<?xml version="1.0" encoding="utf-8"?>
<!-- Generator: Adobe Illustrator 22.0.1, SVG Export Plug-In . SVG Version: 6.00 Build 0)  -->
<svg version="1.1" id="Calque_1" xmlns="http://www.w3.org/2000/svg" xmlns:xlink="http://www.w3.org/1999/xlink" x="0px" y="0px"
	 viewBox="0 0 203.6 267.4" style="enable-background:new 0 0 203.6 267.4;" xml:space="preserve">
<style type="text/css">
	.st0{fill:#A0A0A0;}
</style>
<path class="st0" d="M93.1,0c0,0,51.6,1.6,78.1,0.5c5.6-0.2,10.2,4.3,10.2,9.8c0.1,29.8-21.8,86.2-32.5,112
	c-2.7,6.5,2.1,13.6,9.1,13.6h35.7c8.2,0,12.8,9.5,7.7,16L115,260.5c-7.2,9-20.9,9.2-28.3,0.3c-22.5-27.1-65.5-79.4-84.9-106.2
	c-4.7-6.5,0-15.6,8-15.6h32.8c6.6,0,11.3-6.4,9.4-12.7C44,100,26.6,39.9,27.1,9.6C27.2,4.3,31.6,0,36.9,0H93.1z"/>
</svg>
