<?xml version="1.0" encoding="utf-8"?>
<!-- Generator: Adobe Illustrator 22.0.1, SVG Export Plug-In . SVG Version: 6.00 Build 0)  -->
<svg version="1.1" id="Calque_1" xmlns="http://www.w3.org/2000/svg" xmlns:xlink="http://www.w3.org/1999/xlink" x="0px" y="0px"
	 viewBox="0 0 157.5 95.6" style="enable-background:new 0 0 157.5 95.6;" xml:space="preserve">
<style type="text/css">
	.st0{fill:#B2B2B2;}
	.st1{fill:#878787;}
</style>
<g>
	<g>
		<path d="M40.8,31.7c-0.2,0-0.4,0.1-0.6,0.1c-0.2,0-0.4,0-0.6,0s-0.4,0-0.5,0c-0.2,0-0.3,0-0.3-0.1l0.3-1.2c0.2,0,0.4,0.1,0.7,0.1
			c0.3,0,0.6,0,1.1-0.1c0.6-0.1,1-0.3,1.2-0.6s0.4-0.6,0.4-1c0-0.2,0-0.4-0.1-0.6c-0.1-0.1-0.2-0.2-0.4-0.3C41.7,28,41.5,28,41.3,28
			c-0.2,0-0.5,0-0.7,0.1l-0.4,0.1v-1.1l0.5-0.1c0.2,0,0.3-0.1,0.5-0.2c0.2-0.1,0.3-0.2,0.5-0.3s0.2-0.2,0.3-0.4
			c0.1-0.2,0.1-0.3,0.1-0.6c0-0.2,0-0.3-0.1-0.4s-0.2-0.2-0.3-0.3c-0.1-0.1-0.2-0.1-0.4-0.1s-0.3,0-0.4,0c-0.3,0.1-0.6,0.2-0.9,0.3
			c-0.3,0.2-0.5,0.3-0.7,0.5l-0.5-0.9c0.1-0.1,0.2-0.2,0.4-0.3c0.1-0.1,0.3-0.2,0.5-0.3c0.2-0.1,0.4-0.2,0.6-0.3s0.4-0.1,0.6-0.2
			c0.4-0.1,0.8-0.1,1.1-0.1c0.3,0,0.6,0.1,0.8,0.3c0.2,0.1,0.3,0.3,0.4,0.6c0.1,0.2,0.1,0.5,0.1,0.8c0,0.4-0.1,0.7-0.3,1
			s-0.4,0.6-0.7,0.8c0.4,0.1,0.7,0.2,1,0.5c0.3,0.3,0.4,0.7,0.4,1.2c0,0.3-0.1,0.7-0.2,1c-0.1,0.3-0.3,0.6-0.5,0.9s-0.5,0.5-0.9,0.7
			S41.3,31.6,40.8,31.7z"/>
		<path d="M48.5,25.4c-0.1,0-0.3,0-0.5,0c-0.2,0-0.4,0-0.7,0.1c-0.1,0-0.3,0.1-0.5,0.1c-0.2,0.1-0.3,0.1-0.3,0.1v4.7l-1.3,0.3v-5.5
			c0.3-0.1,0.6-0.3,1-0.5c0.4-0.2,0.8-0.3,1.3-0.4c0.1,0,0.2,0,0.3,0c0.1,0,0.2,0,0.3,0c0.1,0,0.2,0,0.3,0c0.1,0,0.2,0,0.3,0
			L48.5,25.4z"/>
		<path d="M54.5,28.6c-0.3,0.1-0.6,0.3-1,0.4c-0.4,0.1-0.8,0.3-1.2,0.4c-0.5,0.1-0.9,0.1-1.2,0s-0.7-0.2-0.9-0.4
			c-0.2-0.2-0.4-0.5-0.6-0.8c-0.1-0.3-0.2-0.8-0.2-1.2c0-0.5,0.1-0.9,0.2-1.3s0.3-0.8,0.5-1.1s0.5-0.6,0.8-0.8
			c0.3-0.2,0.7-0.4,1.1-0.4c0.3-0.1,0.5-0.1,0.7,0c0.2,0,0.4,0.1,0.5,0.1v-2.8l1.3-0.5V28.6z M50.7,26.6c0,0.6,0.1,1,0.4,1.3
			s0.7,0.4,1.1,0.3c0.2,0,0.4-0.1,0.5-0.1s0.3-0.1,0.4-0.1v-3.3c-0.1-0.1-0.3-0.1-0.5-0.1s-0.4,0-0.6,0c-0.5,0.1-0.8,0.3-1,0.7
			C50.8,25.6,50.7,26.1,50.7,26.6z"/>
		<path d="M62.3,20.6c-0.8,0.2-1.4,0.5-1.8,1.1c-0.4,0.6-0.6,1.3-0.6,2.2c0,0.4,0,0.8,0.1,1.1c0.1,0.3,0.2,0.6,0.4,0.8
			s0.4,0.3,0.7,0.4c0.3,0.1,0.6,0.1,1,0c0.2,0,0.4-0.1,0.6-0.2c0.2-0.1,0.3-0.1,0.4-0.2v-2.8l1.4-0.3v3.7c-0.2,0.1-0.5,0.3-1,0.4
			c-0.5,0.2-1,0.3-1.6,0.4c-0.5,0.1-1,0.1-1.5,0s-0.8-0.3-1.1-0.5c-0.3-0.3-0.6-0.6-0.7-1.1c-0.2-0.5-0.3-1-0.3-1.7s0.1-1.2,0.3-1.8
			c0.2-0.5,0.5-1,0.8-1.4c0.3-0.4,0.7-0.8,1.2-1c0.5-0.3,0.9-0.5,1.4-0.6c0.3-0.1,0.7-0.1,0.9-0.1c0.3,0,0.5,0,0.7,0
			c0.2,0,0.4,0,0.5,0.1c0.1,0,0.2,0.1,0.3,0.1l-0.4,1.2c-0.2-0.1-0.5-0.1-0.8-0.2C63,20.5,62.7,20.5,62.3,20.6z"/>
		<path d="M69.4,21.2c-0.1,0-0.3,0-0.5,0c-0.2,0-0.4,0-0.7,0.1c-0.1,0-0.3,0.1-0.5,0.1c-0.2,0.1-0.3,0.1-0.3,0.1v4.7l-1.3,0.3v-5.5
			c0.3-0.1,0.6-0.3,1-0.5c0.4-0.2,0.8-0.3,1.3-0.4c0.1,0,0.2,0,0.3,0c0.1,0,0.2,0,0.3,0c0.1,0,0.2,0,0.3,0c0.1,0,0.2,0,0.3,0
			L69.4,21.2z"/>
		<path d="M72.4,19.2c0.4-0.1,0.8-0.1,1.1-0.1c0.3,0,0.5,0.2,0.7,0.3c0.2,0.2,0.3,0.4,0.4,0.6s0.1,0.6,0.1,0.9v3.5
			c-0.2,0.1-0.5,0.2-0.9,0.3c-0.4,0.1-0.9,0.3-1.4,0.4c-0.3,0.1-0.7,0.1-0.9,0.1c-0.3,0-0.5-0.1-0.7-0.2s-0.4-0.3-0.5-0.5
			s-0.2-0.5-0.2-0.8c0-0.3,0.1-0.6,0.2-0.9c0.1-0.3,0.3-0.5,0.5-0.7c0.2-0.2,0.5-0.3,0.8-0.5c0.3-0.1,0.6-0.2,0.9-0.3
			c0.1,0,0.3-0.1,0.5-0.1c0.2,0,0.3,0,0.5,0v-0.2c0-0.2,0-0.3-0.1-0.4c0-0.1-0.1-0.2-0.2-0.3c-0.1-0.1-0.2-0.1-0.4-0.2s-0.3,0-0.6,0
			c-0.3,0.1-0.6,0.1-0.8,0.2c-0.3,0.1-0.5,0.2-0.6,0.3l-0.2-1.1c0.2-0.1,0.4-0.2,0.7-0.3S72,19.3,72.4,19.2z M72.5,24.2
			c0.4-0.1,0.7-0.2,0.9-0.3v-1.5c-0.1,0-0.2,0-0.3,0s-0.3,0-0.5,0.1c-0.1,0-0.3,0.1-0.4,0.1c-0.1,0.1-0.3,0.1-0.4,0.2
			c-0.1,0.1-0.2,0.2-0.3,0.3c-0.1,0.1-0.1,0.3-0.1,0.4c0,0.3,0.1,0.5,0.3,0.6C71.9,24.2,72.2,24.2,72.5,24.2z"/>
		<path d="M76.3,18.7c0.3-0.1,0.6-0.3,1-0.4c0.4-0.1,0.9-0.3,1.3-0.4c0.5-0.1,0.9-0.1,1.2,0c0.3,0.1,0.6,0.2,0.7,0.4
			c0.2,0.2,0.3,0.5,0.4,0.8c0.1,0.3,0.1,0.7,0.1,1.1v3.3l-1.3,0.3v-3.1c0-0.3,0-0.6-0.1-0.8s-0.1-0.4-0.2-0.5s-0.2-0.2-0.4-0.2
			s-0.3,0-0.6,0c-0.2,0-0.3,0.1-0.5,0.1c-0.2,0.1-0.3,0.1-0.4,0.1v4.7l-1.3,0.3V18.7z"/>
		<path d="M87.5,21.9c-0.3,0.1-0.6,0.3-1,0.4c-0.4,0.1-0.8,0.3-1.2,0.4c-0.5,0.1-0.9,0.1-1.2,0c-0.4-0.1-0.7-0.2-0.9-0.4
			c-0.2-0.2-0.4-0.5-0.6-0.8c-0.1-0.3-0.2-0.8-0.2-1.2c0-0.5,0.1-0.9,0.2-1.3s0.3-0.8,0.5-1.1s0.5-0.6,0.8-0.8
			c0.3-0.2,0.7-0.4,1.1-0.4c0.3-0.1,0.5-0.1,0.7,0c0.2,0,0.4,0.1,0.5,0.1v-2.8l1.3-0.5V21.9z M83.7,19.9c0,0.6,0.1,1,0.4,1.3
			s0.7,0.4,1.1,0.3c0.2,0,0.4-0.1,0.5-0.1s0.3-0.1,0.4-0.1v-3.3c-0.1-0.1-0.3-0.1-0.5-0.1s-0.4,0-0.6,0c-0.5,0.1-0.8,0.3-1,0.7
			C83.8,18.9,83.7,19.3,83.7,19.9z"/>
		<path d="M93.9,13c1.1-0.2,1.9-0.2,2.5,0.1c0.6,0.3,0.9,0.9,0.9,1.7c0,0.5-0.1,0.9-0.2,1.2c-0.2,0.4-0.4,0.7-0.7,0.9
			c-0.3,0.3-0.7,0.5-1.1,0.7c-0.4,0.2-0.9,0.3-1.5,0.4l-0.7,0.1v2.7l-1.4,0.3v-7.6c0.3-0.1,0.7-0.3,1.1-0.4
			C93.2,13.1,93.6,13.1,93.9,13z M94,14.2c-0.3,0.1-0.6,0.1-0.9,0.2V17l0.7-0.1c0.7-0.1,1.2-0.3,1.5-0.6c0.4-0.3,0.5-0.7,0.5-1.2
			c0-0.3,0-0.5-0.1-0.6c-0.1-0.2-0.2-0.3-0.4-0.3c-0.2-0.1-0.4-0.1-0.6-0.1S94.3,14.1,94,14.2z"/>
		<path d="M101.7,14.6c-0.1,0-0.3,0-0.5,0c-0.2,0-0.4,0-0.7,0.1c-0.1,0-0.3,0.1-0.5,0.1c-0.2,0.1-0.3,0.1-0.3,0.1v4.7l-1.3,0.3v-5.5
			c0.3-0.1,0.6-0.3,1-0.5c0.4-0.2,0.8-0.3,1.3-0.4c0.1,0,0.2,0,0.3,0c0.1,0,0.2,0,0.3,0c0.1,0,0.2,0,0.3,0c0.1,0,0.2,0,0.3,0
			L101.7,14.6z"/>
		<path d="M104.3,11.1c0,0.3-0.1,0.5-0.2,0.6c-0.2,0.2-0.3,0.3-0.6,0.3c-0.2,0-0.4,0-0.6-0.1c-0.2-0.1-0.2-0.3-0.2-0.6
			c0-0.3,0.1-0.5,0.2-0.7c0.2-0.2,0.4-0.3,0.6-0.3c0.2,0,0.4,0,0.6,0.1C104.3,10.7,104.3,10.9,104.3,11.1z M104.2,18.7l-1.3,0.3
			v-5.8l1.3-0.3V18.7z"/>
		<path d="M109.9,12.7c-0.1,0.2-0.3,0.4-0.6,0.8c-0.2,0.3-0.5,0.7-0.8,1.1c-0.3,0.4-0.5,0.8-0.8,1.2c-0.3,0.4-0.5,0.8-0.7,1.2
			l2.9-0.6v1.1l-4.5,0.9v-0.8c0.2-0.3,0.4-0.7,0.6-1.1s0.5-0.8,0.7-1.2s0.5-0.8,0.8-1.2c0.2-0.4,0.5-0.7,0.7-1l-2.6,0.5v-1.1
			l4.3-0.9V12.7z"/>
		<path d="M110.6,14.5c0-0.5,0.1-1,0.2-1.4s0.3-0.8,0.6-1.1c0.2-0.3,0.5-0.6,0.8-0.8c0.3-0.2,0.6-0.3,1-0.4c0.8-0.2,1.4,0,1.8,0.4
			c0.4,0.4,0.7,1.1,0.7,2.1c0,0.1,0,0.2,0,0.2c0,0.1,0,0.2,0,0.3l-3.8,0.8c0,0.5,0.2,0.8,0.5,1c0.3,0.2,0.7,0.2,1.2,0.1
			c0.3-0.1,0.6-0.2,0.9-0.3c0.3-0.1,0.5-0.2,0.6-0.3l0.2,1.1c-0.1,0.1-0.2,0.1-0.3,0.2s-0.3,0.1-0.4,0.2s-0.3,0.1-0.5,0.2
			s-0.4,0.1-0.6,0.2c-0.5,0.1-0.9,0.1-1.3,0c-0.4-0.1-0.7-0.2-0.9-0.4s-0.4-0.5-0.5-0.8S110.6,14.9,110.6,14.5z M114.4,13.1
			c0-0.2,0-0.4-0.1-0.5c-0.1-0.2-0.1-0.3-0.2-0.4c-0.1-0.1-0.2-0.2-0.4-0.2c-0.1,0-0.3,0-0.5,0c-0.2,0-0.4,0.1-0.5,0.2
			c-0.2,0.1-0.3,0.2-0.4,0.4c-0.1,0.1-0.2,0.3-0.2,0.5c-0.1,0.2-0.1,0.3-0.1,0.5L114.4,13.1z"/>
	</g>
	<g>
		<path d="M40.9,43.8c0,0.4,0,0.7-0.1,1.1s-0.2,0.7-0.4,0.9c-0.2,0.3-0.5,0.5-0.8,0.7c-0.3,0.2-0.8,0.4-1.3,0.5
			c-0.5,0.1-0.9,0.1-1.2,0c-0.4-0.1-0.6-0.2-0.8-0.3l0.5-1.2c0.2,0.1,0.4,0.2,0.7,0.2c0.3,0.1,0.5,0.1,0.8,0c0.5-0.1,0.8-0.3,1-0.6
			c0.2-0.3,0.3-0.7,0.3-1.3V39l1.4-0.3V43.8z"/>
		<path d="M44.5,39.7c0.4-0.1,0.8-0.1,1.1-0.1c0.3,0,0.5,0.2,0.7,0.3c0.2,0.2,0.3,0.4,0.4,0.6s0.1,0.6,0.1,0.9V45
			c-0.2,0.1-0.5,0.2-0.9,0.3c-0.4,0.1-0.9,0.3-1.4,0.4c-0.3,0.1-0.7,0.1-0.9,0.1c-0.3,0-0.5-0.1-0.7-0.2s-0.4-0.3-0.5-0.5
			s-0.2-0.5-0.2-0.8c0-0.3,0.1-0.6,0.2-0.9c0.1-0.3,0.3-0.5,0.5-0.7c0.2-0.2,0.5-0.3,0.8-0.5c0.3-0.1,0.6-0.2,0.9-0.3
			c0.1,0,0.3-0.1,0.5-0.1c0.2,0,0.3,0,0.5,0v-0.2c0-0.2,0-0.3-0.1-0.4c0-0.1-0.1-0.2-0.2-0.3c-0.1-0.1-0.2-0.1-0.4-0.2s-0.3,0-0.6,0
			c-0.3,0.1-0.6,0.1-0.8,0.2c-0.3,0.1-0.5,0.2-0.6,0.3l-0.2-1.1c0.2-0.1,0.4-0.2,0.7-0.3S44.1,39.7,44.5,39.7z M44.6,44.7
			c0.4-0.1,0.7-0.2,0.9-0.3v-1.5c-0.1,0-0.2,0-0.3,0s-0.3,0-0.5,0.1c-0.1,0-0.3,0.1-0.4,0.1c-0.1,0.1-0.3,0.1-0.4,0.2
			c-0.1,0.1-0.2,0.2-0.3,0.3c-0.1,0.1-0.1,0.3-0.1,0.4c0,0.3,0.1,0.5,0.3,0.6C44,44.7,44.2,44.7,44.6,44.7z"/>
		<path d="M51.6,41.1c0-0.6-0.1-1-0.2-1.3c-0.1-0.2-0.4-0.3-0.8-0.2c-0.1,0-0.3,0.1-0.5,0.1c-0.2,0.1-0.3,0.1-0.4,0.1v4.7l-1.3,0.3
			v-5.6c0.3-0.1,0.6-0.3,1-0.4c0.4-0.1,0.8-0.3,1.3-0.4c0.4-0.1,0.7-0.1,1,0s0.5,0.1,0.6,0.3c0.1-0.1,0.2-0.2,0.3-0.3
			s0.3-0.2,0.4-0.3c0.2-0.1,0.3-0.2,0.5-0.2c0.2-0.1,0.3-0.1,0.5-0.2c0.4-0.1,0.8-0.1,1.1,0c0.3,0.1,0.5,0.2,0.7,0.4
			c0.2,0.2,0.3,0.5,0.3,0.8c0.1,0.3,0.1,0.7,0.1,1.1v3.3l-1.3,0.3v-3.1c0-0.6-0.1-1-0.2-1.3c-0.1-0.2-0.4-0.3-0.8-0.2
			c-0.2,0-0.4,0.1-0.6,0.2s-0.3,0.2-0.4,0.3c0.1,0.2,0.1,0.4,0.1,0.6c0,0.2,0,0.4,0,0.7v3.2l-1.3,0.3V41.1z"/>
		<path d="M62.9,41.9c-0.2-0.4-0.5-0.8-0.8-1.2s-0.6-0.8-0.9-1.3s-0.7-0.8-1-1.2c-0.3-0.4-0.7-0.7-1-1.1v5.5l-1.3,0.3v-7.7L59,35
			c0.3,0.3,0.6,0.6,0.9,0.9c0.3,0.4,0.7,0.7,1,1.1c0.3,0.4,0.7,0.8,1,1.2s0.6,0.8,0.8,1.1v-5.1l1.4-0.3v7.7L62.9,41.9z"/>
		<path d="M67.7,34.9c0.4-0.1,0.8-0.1,1.1-0.1c0.3,0,0.5,0.2,0.7,0.3c0.2,0.2,0.3,0.4,0.4,0.6s0.1,0.6,0.1,0.9v3.5
			c-0.2,0.1-0.5,0.2-0.9,0.3c-0.4,0.1-0.9,0.3-1.4,0.4c-0.3,0.1-0.7,0.1-0.9,0.1c-0.3,0-0.5-0.1-0.7-0.2s-0.4-0.3-0.5-0.5
			s-0.2-0.5-0.2-0.8c0-0.3,0.1-0.6,0.2-0.9c0.1-0.3,0.3-0.5,0.5-0.7c0.2-0.2,0.5-0.3,0.8-0.5c0.3-0.1,0.6-0.2,0.9-0.3
			c0.1,0,0.3-0.1,0.5-0.1c0.2,0,0.3,0,0.5,0V37c0-0.2,0-0.3-0.1-0.4c0-0.1-0.1-0.2-0.2-0.3c-0.1-0.1-0.2-0.1-0.4-0.2s-0.3,0-0.6,0
			c-0.3,0.1-0.6,0.1-0.8,0.2c-0.3,0.1-0.5,0.2-0.6,0.3L66,35.6c0.2-0.1,0.4-0.2,0.7-0.3S67.4,35,67.7,34.9z M67.8,39.9
			c0.4-0.1,0.7-0.2,0.9-0.3v-1.5c-0.1,0-0.2,0-0.3,0s-0.3,0-0.5,0.1c-0.1,0-0.3,0.1-0.4,0.1c-0.1,0.1-0.3,0.1-0.4,0.2
			c-0.1,0.1-0.2,0.2-0.3,0.3c-0.1,0.1-0.1,0.3-0.1,0.4c0,0.3,0.1,0.5,0.3,0.6C67.2,40,67.5,40,67.8,39.9z"/>
		<path d="M71.6,32.8l1.3-0.5V34l2-0.4v1.1l-2,0.4v2.4c0,0.5,0.1,0.8,0.2,1c0.1,0.2,0.4,0.2,0.7,0.1c0.2,0,0.5-0.1,0.6-0.2
			c0.2-0.1,0.3-0.2,0.4-0.2l0.2,1c-0.2,0.1-0.4,0.2-0.6,0.3c-0.2,0.1-0.5,0.2-0.9,0.3c-0.4,0.1-0.7,0.1-1,0
			c-0.3-0.1-0.5-0.2-0.6-0.4c-0.2-0.2-0.3-0.4-0.3-0.7c-0.1-0.3-0.1-0.6-0.1-1V32.8z"/>
		<path d="M77.7,31.4c0,0.3-0.1,0.5-0.2,0.6c-0.2,0.2-0.3,0.3-0.6,0.3c-0.2,0-0.4,0-0.6-0.1C76.1,32.1,76,32,76,31.7
			c0-0.3,0.1-0.5,0.2-0.7c0.2-0.2,0.4-0.3,0.6-0.3c0.2,0,0.4,0,0.6,0.1C77.6,30.9,77.7,31.1,77.7,31.4z M77.5,38.9l-1.3,0.3v-5.8
			l1.3-0.3V38.9z"/>
		<path d="M84.3,34.6c0,0.5-0.1,0.9-0.2,1.3c-0.1,0.4-0.3,0.8-0.6,1.1s-0.5,0.6-0.9,0.8c-0.3,0.2-0.7,0.4-1.1,0.4
			c-0.4,0.1-0.8,0.1-1.1,0c-0.3-0.1-0.6-0.2-0.9-0.4s-0.4-0.5-0.6-0.9c-0.1-0.4-0.2-0.8-0.2-1.2s0.1-0.9,0.2-1.3
			c0.1-0.4,0.3-0.8,0.6-1.1c0.2-0.3,0.5-0.6,0.9-0.8c0.3-0.2,0.7-0.4,1.1-0.4c0.4-0.1,0.8-0.1,1.1,0c0.3,0.1,0.6,0.2,0.9,0.4
			s0.4,0.5,0.6,0.8C84.3,33.7,84.3,34.1,84.3,34.6z M83,34.9c0-0.6-0.1-1-0.4-1.3c-0.2-0.3-0.6-0.4-1-0.3c-0.4,0.1-0.8,0.3-1,0.7
			c-0.2,0.4-0.4,0.9-0.4,1.4c0,0.6,0.1,1,0.4,1.3s0.6,0.4,1,0.3c0.4-0.1,0.8-0.3,1-0.7S83,35.5,83,34.9z"/>
		<path d="M85.7,31.6c0.3-0.1,0.6-0.3,1-0.4c0.4-0.1,0.9-0.3,1.3-0.4c0.5-0.1,0.9-0.1,1.2,0c0.3,0.1,0.6,0.2,0.7,0.4
			c0.2,0.2,0.3,0.5,0.4,0.8c0.1,0.3,0.1,0.7,0.1,1.1v3.3l-1.3,0.3v-3.1c0-0.3,0-0.6-0.1-0.8s-0.1-0.4-0.2-0.5S88.7,32,88.5,32
			s-0.3,0-0.6,0c-0.2,0-0.3,0.1-0.5,0.1c-0.2,0.1-0.3,0.1-0.4,0.1V37l-1.3,0.3V31.6z"/>
		<path d="M99,28.8c0,0.3-0.1,0.5-0.2,0.8c-0.1,0.3-0.2,0.6-0.4,0.8c-0.2,0.3-0.4,0.5-0.6,0.8c-0.2,0.3-0.4,0.5-0.7,0.8
			c-0.1,0.1-0.2,0.3-0.4,0.5c-0.1,0.2-0.3,0.4-0.4,0.6c-0.1,0.2-0.2,0.4-0.3,0.5c-0.1,0.2-0.1,0.3-0.2,0.4l3.4-0.7v1.1l-4.8,1
			c0-0.1,0-0.1,0-0.2s0-0.1,0-0.2c0-0.4,0.1-0.7,0.2-1s0.3-0.6,0.4-0.9c0.2-0.3,0.4-0.6,0.6-0.9s0.4-0.5,0.7-0.8
			c0.2-0.2,0.3-0.4,0.5-0.6s0.3-0.4,0.4-0.6c0.1-0.2,0.2-0.4,0.3-0.5s0.1-0.4,0.1-0.5c0-0.4-0.1-0.6-0.3-0.8
			c-0.2-0.1-0.5-0.1-0.8-0.1c-0.2,0-0.4,0.1-0.6,0.2s-0.3,0.2-0.5,0.3c-0.1,0.1-0.3,0.2-0.4,0.3c-0.1,0.1-0.2,0.2-0.2,0.3l-0.7-0.8
			c0.3-0.4,0.7-0.7,1.1-0.9c0.4-0.3,0.9-0.4,1.3-0.5c0.8-0.2,1.4-0.1,1.8,0.2C98.8,27.7,99,28.2,99,28.8z"/>
		<path d="M105.6,29.3c0,1.3-0.2,2.3-0.7,3.1s-1.1,1.3-1.9,1.4c-0.8,0.2-1.5,0-1.9-0.6s-0.7-1.5-0.7-2.8c0-0.6,0.1-1.2,0.2-1.8
			c0.1-0.5,0.3-1,0.5-1.4c0.2-0.4,0.5-0.7,0.8-0.9c0.3-0.2,0.7-0.4,1.1-0.5c0.8-0.2,1.5,0,1.9,0.6C105.4,27.1,105.6,28,105.6,29.3z
			 M104.3,29.6c0-0.4,0-0.8-0.1-1.1c0-0.3-0.1-0.6-0.2-0.9c-0.1-0.2-0.2-0.4-0.4-0.5c-0.2-0.1-0.4-0.1-0.6-0.1
			c-0.2,0-0.4,0.2-0.6,0.3c-0.2,0.2-0.3,0.4-0.4,0.7c-0.1,0.3-0.2,0.6-0.2,0.9c0,0.4-0.1,0.7-0.1,1.1s0,0.8,0.1,1.1
			c0,0.3,0.1,0.6,0.2,0.9c0.1,0.2,0.2,0.4,0.4,0.5c0.2,0.1,0.4,0.1,0.6,0.1c0.2,0,0.4-0.2,0.6-0.3s0.3-0.4,0.4-0.7
			c0.1-0.3,0.2-0.6,0.2-0.9C104.3,30.4,104.3,30,104.3,29.6z"/>
		<path d="M107.1,26.8c0.4-0.3,0.8-0.6,1.3-0.9c0.4-0.4,0.8-0.7,1.1-1.2l0.9-0.2v7.7l-1.3,0.3v-5.9c-0.2,0.2-0.4,0.4-0.7,0.6
			c-0.3,0.2-0.6,0.4-0.9,0.5L107.1,26.8z"/>
		<path d="M114,31.5c0-0.6,0.1-1.2,0.3-1.8s0.3-1.3,0.6-1.9c0.2-0.6,0.5-1.2,0.7-1.8s0.5-1.1,0.8-1.5l-3.5,0.7V24l5-1v1
			c-0.2,0.3-0.5,0.7-0.8,1.3c-0.3,0.5-0.6,1.1-0.8,1.8s-0.5,1.3-0.7,2c-0.2,0.7-0.3,1.4-0.3,2.1L114,31.5z"/>
	</g>
</g>
<g>
	<path class="st0" d="M15.4,11.3c-0.3-2.4,0.1-4.5,1.7-6.4c1.9-2.3,4.6-3.6,7.4-4.8c-0.1,0.7-0.2,1.3-0.4,1.8
		c-0.5,2.2-1.1,4.4-2.5,6.2C20.2,10.2,18,11.1,15.4,11.3z"/>
	<path class="st0" d="M22.8,10.6c-0.8,2.7-1.7,5.4-3.6,7.6c-1.8,1.9-4,2.6-6.6,2.5c-0.1-2.2,0.5-4.1,1.9-5.7
		c1.1-1.3,2.5-2.2,4.1-2.9c1.4-0.6,2.8-1.1,4.1-1.6C22.7,10.5,22.8,10.5,22.8,10.6z"/>
	<path class="st0" d="M23,45.7c1.3,2.4,2.5,4.6,2.9,7.3c0.4,2.9-0.7,5.2-2.8,7.1c-0.2-0.1-0.3-0.3-0.4-0.4c-1.9-2-2.6-4.3-2.2-7.1
		C20.8,50.2,21.9,48,23,45.7z"/>
	<path class="st0" d="M27.9,51.5c2.3,2.2,4.6,4.3,5.5,7.5c0.6,2.1,0.1,4.1-1,6c-2-0.9-3.4-2.2-4.3-4.2c-0.7-1.8-0.9-3.6-0.8-5.5
		c0.1-1.3,0.2-2.6,0.4-3.8C27.8,51.5,27.9,51.5,27.9,51.5z"/>
	<path class="st0" d="M10.1,32.9c-0.7-2.2-0.6-4.3,0.5-6.2c1.5-2.8,4.1-4.5,6.7-6.3c0,1.9-0.1,3.7-0.5,5.4c-0.3,1.4-0.7,2.7-1.5,3.9
		C14,31.5,12.2,32.5,10.1,32.9z"/>
	<path class="st0" d="M45.5,67.9c-2.7,0.3-5-0.4-6.9-2.3c-1.9-1.9-3-4.4-4-6.9c0.1,0,0.1-0.1,0.2-0.1c2.5,0.5,4.9,1.1,7,2.4
		C44.2,62.6,45.4,65,45.5,67.9z"/>
	<path class="st0" d="M18.8,39.6c0.8,2.5,1.6,5,1.5,7.6c-0.1,3-1.6,5.1-4.1,6.6c-1.3-1.8-2-3.7-1.7-5.9c0.3-2.5,1.6-4.5,2.9-6.5
		C17.9,40.8,18.3,40.3,18.8,39.6z"/>
	<path class="st0" d="M12.6,43.6c-1.3-2.2-1.6-4.4-0.8-6.8c0.7-2.2,2.1-3.9,3.7-5.6c0.4-0.4,0.9-0.9,1.4-1.3c0.2,1,0.4,1.9,0.5,2.9
		c0.3,1.9,0.4,3.8-0.1,5.7C16.5,40.9,14.9,42.5,12.6,43.6z"/>
	<path class="st0" d="M133.1,0c0.2,0.1,0.5,0.3,0.7,0.4c2.1,0.9,4.1,2,5.7,3.5c2,1.9,2.9,4.2,2.6,7c0,0.1,0,0.2-0.1,0.3
		c-2.2-0.1-4.1-0.8-5.6-2.4c-1.6-1.7-2.3-3.8-2.9-6c-0.2-0.9-0.4-1.9-0.6-2.8C133,0,133,0,133.1,0z"/>
	<path class="st0" d="M147.4,32.8c-3.2-0.7-5.3-2.5-6.3-5.6c-0.7-2.2-0.8-4.4-0.9-6.7c0.1,0,0.1,0,0.1,0c2.2,1.4,4.3,2.9,5.9,5
		c1.5,2.1,2,4.5,1.3,7C147.5,32.6,147.4,32.7,147.4,32.8z"/>
	<path class="st0" d="M125,65c-1.2-2.3-1.6-4.6-0.7-7c0.8-2.1,2.3-3.7,3.9-5.3c0.4-0.4,0.9-0.9,1.5-1.4c0.1,0.6,0.2,1,0.2,1.5
		c0.3,2.4,0.4,4.7-0.3,7.1C128.9,62.3,127.3,63.9,125,65z"/>
	<path class="st0" d="M144.9,20.5c-2.9,0.2-5.3-0.8-7.1-3.1c-1.2-1.5-1.9-3.2-2.5-5c-0.2-0.6-0.4-1.3-0.6-1.9c0,0,0.1-0.1,0.1-0.1
		c2.7,0.8,5.4,1.8,7.6,3.7C144.2,15.8,145,18,144.9,20.5z"/>
	<path class="st0" d="M134.5,45.7c1.3,2.5,2.5,5.1,2.6,8c0.1,2.5-0.9,4.6-2.7,6.3c-1.9-1.7-3-3.8-2.8-6.3c0.1-1,0.3-2.1,0.6-3.1
		c0.6-1.7,1.4-3.3,2.1-4.9C134.3,45.7,134.4,45.7,134.5,45.7z"/>
	<path class="st0" d="M138.7,39.5c1.8,2.4,3.5,4.7,4.2,7.6c0.5,2.4,0,4.6-1.5,6.6c-1.9-1.2-3.3-2.7-3.8-4.9
		c-0.5-2.2-0.2-4.3,0.3-6.5C138.1,41.4,138.4,40.5,138.7,39.5z"/>
	<path class="st0" d="M122.9,58.6c-1.2,3-2.5,5.9-5.2,7.8c-1.7,1.3-3.6,1.6-5.8,1.4c0-1.5,0.4-3,1.1-4.3c1-1.6,2.4-2.7,4.1-3.4
		c1.7-0.8,3.6-1.2,5.5-1.6C122.7,58.5,122.8,58.6,122.9,58.6z"/>
	<path class="st0" d="M144.9,43.5c-3-1.4-4.6-3.6-4.9-6.8c-0.2-2.3,0.2-4.6,0.7-6.9c0.1,0.1,0.3,0.2,0.4,0.3
		c1.7,1.7,3.3,3.5,4.3,5.8c1.1,2.4,1,4.8-0.1,7.1C145.1,43.2,145,43.3,144.9,43.5z"/>
</g>
<g>
	<path class="st1" d="M38.1,75.4c-1.2-0.2-2.5-0.4-3.7-0.6c-0.5-0.1-1-0.3-1.7-0.4c0.5-0.5,1-0.9,1.4-1.2c1.7-1.4,3.5-2.8,5.8-3.4
		c2.5-0.7,4.7-0.1,6.8,1.4c-1.3,2.2-3.1,3.6-5.6,4.1c-0.4,0.1-0.9,0.1-1.3,0.2C39.3,75.4,38.7,75.4,38.1,75.4z"/>
	<path class="st1" d="M0,36.9c2.3,0.3,4.5,0.7,6.6,1.6c3,1.3,4.6,3.6,5,6.8c0,0,0,0.1,0,0.2c-2.1,0.4-4,0.1-5.8-1
		c-2-1.2-3.3-3.1-4.4-5.1C0.9,38.6,0.4,37.8,0,37C0,36.9,0,36.9,0,36.9z"/>
	<path class="st1" d="M5.7,13.5c1.7,2,3.2,4,4.1,6.5c1,2.8,0.4,5.3-1.4,7.7c-2.2-1.4-3.5-3.3-3.9-5.9c-0.3-2.2,0.1-4.3,0.7-6.4
		C5.3,14.7,5.5,14.2,5.7,13.5z"/>
	<path class="st1" d="M20.5,59.6c-2.1,1.1-4.3,1.4-6.5,0.6c-2.9-1-5-3-7.1-5.3c0.8-0.1,1.4-0.2,2-0.3c2.2-0.3,4.3-0.4,6.4,0.2
		C17.7,55.4,19.8,57.4,20.5,59.6z"/>
	<path class="st1" d="M22.9,70.2c2.3-1.7,4.6-3.4,7.4-4c2.6-0.6,4.9,0.2,6.9,1.9c-1.2,1.7-2.7,2.9-4.8,3.4c-2.2,0.5-4.4,0.2-6.6-0.4
		C24.9,70.9,23.9,70.6,22.9,70.2z"/>
	<path class="st1" d="M1.8,45.8c1,0,1.9,0.1,2.8,0.1c1.8,0.1,3.6,0.4,5.3,1.3c2.3,1.1,3.8,3.2,4.3,5.8c-0.6,0.1-1.2,0.3-1.9,0.4
		c-2.4,0.3-4.5-0.6-6.3-2.1c-1.7-1.5-3-3.3-4.2-5.2C1.8,46,1.8,46,1.8,45.8z"/>
	<path class="st1" d="M11.3,16.9c-2.3-2.2-3-4.9-2.4-8c0.4-1.9,1.5-4.6,2.6-6.3c0.1,0.1,0.2,0.2,0.2,0.3c1,1.9,1.9,3.8,2.3,5.9
		C14.7,12.1,13.8,14.8,11.3,16.9z"/>
	<path class="st1" d="M14.1,63c2.5-1,4.9-1.8,7.5-1.8c2.9,0,5.1,1.4,6.8,3.8c-1.7,1.4-3.6,2.1-5.8,1.9c-2.6-0.2-4.8-1.4-6.9-2.7
		C15.2,63.8,14.7,63.4,14.1,63z"/>
	<path class="st1" d="M1.4,25.4c2.5,1.5,5,2.9,6.6,5.3c1.4,2,1.7,4.6,0.8,7c-0.2,0-0.4-0.1-0.5-0.1c-2.9-0.8-4.8-2.7-5.8-5.5
		C1.7,30,1.5,27.8,1.4,25.4z"/>
	<path class="st1" d="M157.5,36.9c-0.4,0.8-0.9,1.6-1.3,2.4c-1.1,2-2.5,3.8-4.4,5.1c-1.8,1.1-3.8,1.4-5.9,1c0.3-2.5,1.3-4.6,3.4-6.1
		c1.9-1.3,4-1.8,6.2-2.2c0.7-0.1,1.3-0.2,2-0.3C157.5,36.8,157.5,36.8,157.5,36.9z"/>
	<path class="st1" d="M151.8,13.4c0.8,2.7,1.5,5.4,1.2,8.2c-0.3,2.6-1.6,4.5-3.9,6c-0.9-1.1-1.5-2.4-1.8-3.8
		c-0.3-1.7,0.1-3.4,0.8-4.9C149,16.8,150.3,15.1,151.8,13.4z"/>
	<path class="st1" d="M110.7,71c2.4-1.7,4.9-2.2,7.7-1.1c1.9,0.7,3.4,1.9,4.9,3.1c0.5,0.4,0.9,0.8,1.4,1.3c-1,0.2-2,0.5-2.9,0.6
		c-1.8,0.3-3.6,0.5-5.4,0.2C113.9,74.7,112,73.3,110.7,71z"/>
	<path class="st1" d="M120.3,68c2-1.6,4.2-2.4,6.8-1.9c2.2,0.4,4.1,1.6,5.9,2.8c0.5,0.4,1,0.7,1.6,1.2c-3.1,1.1-6,2-9.3,1.4
		C123.3,71.1,121.3,69.8,120.3,68z"/>
	<path class="st1" d="M143.2,52.9c0.6-2.9,2.2-5,5-6.1c1.9-0.7,3.9-0.9,5.9-1c0.5,0,1,0,1.6,0c-1,1.6-2,3-3.2,4.3
		c-1,1-2.1,1.9-3.3,2.5C147.2,53.5,145.3,53.5,143.2,52.9z"/>
	<path class="st1" d="M150.6,54.9c-2.3,2.4-4.6,4.6-7.8,5.5c-2,0.5-4,0.2-5.8-0.9c1-2.4,2.7-4.1,5.2-4.8c2.1-0.6,4.2-0.5,6.3-0.2
		C149.1,54.6,149.7,54.7,150.6,54.9z"/>
	<path class="st1" d="M156.1,25.4c-0.2,3.2-0.5,6.4-2.4,9.1c-1.1,1.6-3.2,2.9-5.1,3.1c-0.3-1.1-0.5-2.1-0.4-3.3
		c0.2-2.3,1.3-4.1,2.9-5.6c1.4-1.3,3.1-2.3,4.8-3.3C155.9,25.4,156,25.4,156.1,25.4z"/>
	<path class="st1" d="M129.1,64.8c1.8-2.7,4.4-4,7.6-3.7c2.3,0.2,4.5,0.9,6.7,1.8c-1.5,1.1-3,2.1-4.6,2.8c-1.2,0.6-2.5,1-3.9,1.1
		C132.7,66.9,130.8,66.2,129.1,64.8z"/>
	<path class="st1" d="M146.2,16.8c-2.2-1.9-3.3-4.3-2.9-7.2c0.3-2.6,1.4-4.8,2.7-7.2c0.2,0.3,0.3,0.5,0.4,0.7
		c1.1,2.1,2.1,4.2,2.4,6.5C149.1,12.5,148.2,14.9,146.2,16.8z"/>
	<path class="st1" d="M65.9,73.1c-1.4,1.3-3.2,2.7-5,3.9c2.2,0.2,4.6,0.7,6.2,1.6c0.3,1.2,0.4,3,0.4,4.5c0,1.6-0.1,3-0.4,4.1
		c-1,1.3-8.4,7.2-10.7,7.7c-2.1,0.4-7.1,0.6-9.1,0.7l2.7-6.9c2.3,0.5,7.3,0.9,8.1,0.7c0.5-0.1,1.7-1.1,2-1.4
		c0.2-0.8,0.2-1.9,0.2-2.7c0-0.9,0-1.9-0.2-2.6c-1.1-0.6-4.8-1-7-0.9l1.1-4.8c1.3-0.7,3.6-2,4.5-2.8c0.1-0.6,0.2-1.6,0.2-2.3
		c0-0.4,0-0.9-0.1-1.1c-0.4-0.3-1.9-0.7-2.6-0.6c-1.2,0.2-4.8,2.2-6.9,3.5l0.9-6.1c2.3-1,6.9-2.7,8.4-3c1.6-0.3,6.2,0.5,7.4,1.1
		c0.3,0.8,0.3,2.3,0.3,3.3C66.3,70.4,66.2,72.1,65.9,73.1z"/>
	<path class="st1" d="M74.8,61.4c0.7,0.8,1.6,2.5,2.1,3.9c1.5-2.6,3.6-5.1,4.8-5.3c0.8-0.2,3.1-0.1,4.6,0L84,67.7
		c-1.4-0.1-3.6-0.2-4.1,0c-0.4,0.1-1.7,1.3-2,2v6.3c0,2.4,0.5,3.9,1,5.1l-6.1,4c-1-0.9-2.2-3.9-2.4-4.9c0-2.7,0.3-8.8,0.3-10.4
		c0-1.9-0.5-3.4-1.4-4.8L74.8,61.4z"/>
	<path class="st1" d="M87.9,79.2c-0.6-1.9-1.2-5-1.2-8.1c0-2.4,0.5-6,1.3-8.1c1.5-1.8,5.5-5.4,7.5-5.8c0.6-0.1,2,0,3.3,0.1v-1.1
		c0-2.4-0.5-3.9-1-5.1l6.5-3.7c0.8,0.9,1.9,3.1,2.1,4.1c0,4.1-0.4,12.2-0.4,18.7c0,1.6,0.6,3.2,1.7,4.8l-6.1,4
		c-0.7-0.7-1.3-1.4-1.7-2.3c-2.2,1.8-4.8,3.6-5.9,3.8C92.6,80.9,89,79.8,87.9,79.2z M98.7,73.7V62.4c-0.4-0.2-1.9-0.3-2.4-0.2
		c-0.4,0.1-1.7,0.8-2,1.1c-0.3,1.6-0.3,3.4-0.3,5.2c0,2.5,0.2,5,0.6,6.2c0.3,0.2,1.4,0.4,1.9,0.3C97,75,98.2,74.1,98.7,73.7z"/>
</g>
</svg>
