<?xml version="1.0" encoding="utf-8"?>
<!-- Generator: Adobe Illustrator 22.0.1, SVG Export Plug-In . SVG Version: 6.00 Build 0)  -->
<svg version="1.1" id="Calque_1" xmlns="http://www.w3.org/2000/svg" xmlns:xlink="http://www.w3.org/1999/xlink" x="0px" y="0px"
	 viewBox="0 0 157.5 95.6" style="enable-background:new 0 0 157.5 95.6;" xml:space="preserve">
<style type="text/css">
	.st0{fill:#FCF286;}
	.st1{fill:#FFCE00;}
</style>
<g>
	<path class="st0" d="M15.5,11.3c-0.3-2.4,0.1-4.5,1.7-6.4c1.9-2.3,4.6-3.6,7.4-4.8c-0.1,0.7-0.2,1.3-0.4,1.8
		c-0.5,2.2-1.1,4.4-2.5,6.2C20.2,10.2,18,11.2,15.5,11.3z"/>
	<path class="st0" d="M22.8,10.6c-0.8,2.7-1.7,5.4-3.6,7.6c-1.8,1.9-4,2.6-6.6,2.5c-0.1-2.2,0.5-4.1,1.9-5.7
		c1.1-1.3,2.5-2.2,4.1-2.9c1.4-0.6,2.8-1.1,4.1-1.6C22.7,10.5,22.8,10.5,22.8,10.6z"/>
	<path class="st0" d="M23.1,45.7c1.3,2.4,2.5,4.6,2.9,7.3c0.4,2.9-0.7,5.2-2.8,7.1c-0.2-0.1-0.3-0.3-0.4-0.4c-1.9-2-2.6-4.3-2.2-7.1
		C20.8,50.2,21.9,48,23.1,45.7z"/>
	<path class="st0" d="M27.9,51.5c2.3,2.2,4.6,4.3,5.5,7.5c0.6,2.1,0.1,4.1-1,6c-2-0.9-3.4-2.2-4.3-4.2c-0.7-1.8-0.9-3.6-0.8-5.5
		c0.1-1.3,0.2-2.6,0.4-3.8C27.8,51.6,27.9,51.5,27.9,51.5z"/>
	<path class="st0" d="M10.1,33c-0.7-2.2-0.6-4.3,0.5-6.2c1.5-2.8,4.1-4.5,6.7-6.3c0,1.9-0.1,3.7-0.5,5.4c-0.3,1.4-0.7,2.7-1.5,3.9
		C14,31.5,12.2,32.5,10.1,33z"/>
	<path class="st0" d="M45.5,67.9c-2.7,0.3-5-0.4-6.9-2.3c-1.9-1.9-3-4.4-4-6.9c0.1,0,0.1-0.1,0.2-0.1c2.5,0.5,4.9,1.1,7,2.4
		C44.3,62.7,45.4,65,45.5,67.9z"/>
	<path class="st0" d="M18.8,39.6c0.8,2.5,1.6,5,1.5,7.6c-0.1,3-1.6,5.1-4.1,6.6c-1.3-1.8-2-3.7-1.7-5.9c0.3-2.5,1.6-4.5,2.9-6.5
		C17.9,40.8,18.3,40.3,18.8,39.6z"/>
	<path class="st0" d="M12.6,43.6c-1.3-2.2-1.6-4.4-0.8-6.8c0.7-2.2,2.1-3.9,3.7-5.6c0.4-0.4,0.9-0.9,1.4-1.3c0.2,1,0.4,1.9,0.5,2.9
		c0.3,1.9,0.4,3.8-0.1,5.7C16.5,40.9,14.9,42.5,12.6,43.6z"/>
	<path class="st0" d="M133.1,0c0.2,0.1,0.5,0.3,0.7,0.4c2.1,0.9,4.1,2,5.7,3.5c2,1.9,2.9,4.2,2.6,7c0,0.1,0,0.2-0.1,0.3
		c-2.2-0.1-4.1-0.8-5.6-2.4c-1.6-1.7-2.3-3.8-2.9-6C133.3,1.9,133.2,1,133,0C133,0,133,0,133.1,0z"/>
	<path class="st0" d="M147.4,32.9c-3.2-0.7-5.3-2.5-6.3-5.6c-0.7-2.2-0.8-4.4-0.9-6.7c0.1,0,0.1,0,0.1,0c2.2,1.4,4.3,2.9,5.9,5
		c1.5,2.1,2,4.5,1.3,7C147.5,32.6,147.4,32.7,147.4,32.9z"/>
	<path class="st0" d="M125,65c-1.2-2.3-1.6-4.6-0.7-7c0.8-2.1,2.3-3.7,3.9-5.3c0.4-0.4,0.9-0.9,1.5-1.4c0.1,0.6,0.2,1,0.2,1.5
		c0.3,2.4,0.4,4.7-0.3,7.1C128.9,62.3,127.3,63.9,125,65z"/>
	<path class="st0" d="M144.9,20.5c-2.9,0.2-5.3-0.8-7.1-3.1c-1.2-1.5-1.9-3.2-2.5-5c-0.2-0.6-0.4-1.3-0.6-1.9c0,0,0.1-0.1,0.1-0.1
		c2.7,0.8,5.4,1.8,7.6,3.7C144.2,15.9,145,18,144.9,20.5z"/>
	<path class="st0" d="M134.5,45.8c1.3,2.5,2.5,5.1,2.6,8c0.1,2.5-0.9,4.6-2.7,6.3c-1.9-1.7-3-3.8-2.8-6.3c0.1-1,0.3-2.1,0.6-3.1
		c0.6-1.7,1.4-3.3,2.1-4.9C134.3,45.7,134.4,45.7,134.5,45.8z"/>
	<path class="st0" d="M138.7,39.5c1.8,2.4,3.5,4.7,4.2,7.6c0.5,2.4,0,4.6-1.5,6.6c-1.9-1.2-3.3-2.7-3.8-4.9
		c-0.5-2.2-0.2-4.3,0.3-6.5C138.1,41.5,138.4,40.6,138.7,39.5z"/>
	<path class="st0" d="M123,58.6c-1.2,3-2.5,5.9-5.2,7.8c-1.7,1.3-3.6,1.6-5.8,1.4c0-1.5,0.4-3,1.1-4.3c1-1.6,2.4-2.7,4.1-3.4
		c1.7-0.8,3.6-1.2,5.5-1.6C122.8,58.6,122.8,58.6,123,58.6z"/>
	<path class="st0" d="M144.9,43.5c-3-1.4-4.6-3.6-4.9-6.8c-0.2-2.3,0.2-4.6,0.7-6.9c0.1,0.1,0.3,0.2,0.4,0.3
		c1.7,1.7,3.3,3.5,4.3,5.8c1.1,2.4,1,4.8-0.1,7.1C145.1,43.2,145,43.3,144.9,43.5z"/>
</g>
<g>
	<path class="st1" d="M38.1,75.4c-1.2-0.2-2.5-0.4-3.7-0.6c-0.5-0.1-1-0.3-1.7-0.4c0.5-0.5,1-0.9,1.4-1.2c1.7-1.4,3.5-2.8,5.8-3.4
		c2.5-0.7,4.7-0.1,6.8,1.4c-1.3,2.2-3.1,3.6-5.6,4.1c-0.4,0.1-0.9,0.1-1.3,0.2C39.3,75.4,38.7,75.4,38.1,75.4z"/>
	<path class="st1" d="M0,36.9c2.3,0.3,4.5,0.7,6.6,1.6c3,1.3,4.6,3.6,5,6.8c0,0,0,0.1,0,0.2c-2.1,0.4-4,0.1-5.8-1
		c-2-1.2-3.3-3.1-4.4-5.1C0.9,38.6,0.5,37.8,0,37C0,36.9,0,36.9,0,36.9z"/>
	<path class="st1" d="M5.7,13.5c1.7,2,3.2,4,4.1,6.5c1,2.8,0.4,5.3-1.4,7.7c-2.2-1.4-3.5-3.3-3.9-5.9c-0.3-2.2,0.1-4.3,0.7-6.4
		C5.4,14.8,5.5,14.2,5.7,13.5z"/>
	<path class="st1" d="M20.6,59.6c-2.1,1.1-4.3,1.4-6.5,0.6c-2.9-1-5-3-7.1-5.3c0.8-0.1,1.4-0.2,2-0.3c2.2-0.3,4.3-0.4,6.4,0.2
		C17.7,55.5,19.8,57.4,20.6,59.6z"/>
	<path class="st1" d="M22.9,70.2c2.3-1.7,4.6-3.4,7.4-4c2.6-0.6,4.9,0.2,6.9,1.9c-1.2,1.7-2.7,2.9-4.8,3.4c-2.2,0.5-4.4,0.2-6.6-0.4
		C24.9,70.9,24,70.6,22.9,70.2z"/>
	<path class="st1" d="M1.8,45.9c1,0,1.9,0.1,2.8,0.1c1.8,0.1,3.6,0.4,5.3,1.3c2.3,1.1,3.8,3.2,4.3,5.8c-0.6,0.1-1.2,0.3-1.9,0.4
		c-2.4,0.3-4.5-0.6-6.3-2.1c-1.7-1.5-3-3.3-4.2-5.2C1.9,46,1.9,46,1.8,45.9z"/>
	<path class="st1" d="M11.3,17c-2.3-2.2-3-4.9-2.4-8c0.4-1.9,1.5-4.6,2.6-6.3c0.1,0.1,0.2,0.2,0.2,0.3c1,1.9,1.9,3.8,2.3,5.9
		C14.8,12.1,13.8,14.8,11.3,17z"/>
	<path class="st1" d="M14.1,63c2.5-1,4.9-1.8,7.5-1.8c2.9,0,5.1,1.4,6.8,3.8c-1.7,1.4-3.6,2.1-5.8,1.9c-2.6-0.2-4.8-1.4-6.9-2.7
		C15.3,63.8,14.7,63.4,14.1,63z"/>
	<path class="st1" d="M1.4,25.4c2.5,1.5,5,2.9,6.6,5.3c1.4,2,1.7,4.6,0.8,7c-0.2,0-0.4-0.1-0.5-0.1c-2.9-0.8-4.8-2.7-5.8-5.5
		C1.8,30,1.5,27.8,1.4,25.4z"/>
	<path class="st1" d="M157.5,36.9c-0.4,0.8-0.9,1.6-1.3,2.4c-1.1,2-2.5,3.8-4.4,5.1c-1.8,1.1-3.8,1.4-5.9,1c0.3-2.5,1.3-4.6,3.4-6.1
		c1.9-1.3,4-1.8,6.2-2.2c0.7-0.1,1.3-0.2,2-0.3C157.5,36.8,157.5,36.8,157.5,36.9z"/>
	<path class="st1" d="M151.8,13.4c0.8,2.7,1.5,5.4,1.2,8.2c-0.3,2.6-1.6,4.5-3.9,6c-0.9-1.1-1.5-2.4-1.8-3.8
		c-0.3-1.7,0.1-3.4,0.8-4.9C149,16.8,150.3,15.2,151.8,13.4z"/>
	<path class="st1" d="M110.7,71c2.4-1.7,4.9-2.2,7.7-1.1c1.9,0.7,3.4,1.9,4.9,3.1c0.5,0.4,0.9,0.8,1.4,1.3c-1,0.2-2,0.5-2.9,0.6
		c-1.8,0.3-3.6,0.5-5.4,0.2C113.9,74.7,112,73.3,110.7,71z"/>
	<path class="st1" d="M120.3,68c2-1.6,4.2-2.4,6.8-1.9c2.2,0.4,4.1,1.6,5.9,2.8c0.5,0.4,1,0.7,1.6,1.2c-3.1,1.1-6,2-9.3,1.4
		C123.3,71.1,121.4,69.8,120.3,68z"/>
	<path class="st1" d="M143.2,52.9c0.6-2.9,2.2-5,5-6.1c1.9-0.7,3.9-0.9,5.9-1c0.5,0,1,0,1.6,0c-1,1.6-2,3-3.2,4.3
		c-1,1-2.1,1.9-3.3,2.5C147.3,53.5,145.3,53.5,143.2,52.9z"/>
	<path class="st1" d="M150.6,54.9c-2.3,2.4-4.6,4.6-7.8,5.5c-2,0.5-4,0.2-5.8-0.9c1-2.4,2.7-4.1,5.2-4.8c2.1-0.6,4.2-0.5,6.3-0.2
		C149.1,54.6,149.8,54.7,150.6,54.9z"/>
	<path class="st1" d="M156.1,25.4c-0.2,3.2-0.5,6.4-2.4,9.1c-1.1,1.6-3.2,2.9-5.1,3.1c-0.3-1.1-0.5-2.1-0.4-3.3
		c0.2-2.3,1.3-4.1,2.9-5.6c1.4-1.3,3.1-2.3,4.8-3.3C156,25.4,156,25.4,156.1,25.4z"/>
	<path class="st1" d="M129.1,64.8c1.8-2.7,4.4-4,7.6-3.7c2.3,0.2,4.5,0.9,6.7,1.8c-1.5,1.1-3,2.1-4.6,2.8c-1.2,0.6-2.5,1-3.9,1.1
		C132.7,67,130.8,66.2,129.1,64.8z"/>
	<path class="st1" d="M146.2,16.9c-2.2-1.9-3.3-4.3-2.9-7.2c0.3-2.6,1.4-4.8,2.7-7.2c0.2,0.3,0.3,0.5,0.4,0.7
		c1.1,2.1,2.1,4.2,2.4,6.5C149.1,12.5,148.3,14.9,146.2,16.9z"/>
	<g>
		<path class="st1" d="M65,84.1l-8.4,4.1l0.2-16.9c-0.5-0.1-1.8-0.1-2.7,0l2.9-6.2c2-0.3,5.6-0.3,7.6,0.2c0,1-0.5,5.9-0.5,8.5
			C64.1,77.4,64.5,81.9,65,84.1z"/>
		<path class="st1" d="M66.9,84.4l2.2-6.4c1.6,0.4,6.2,1.1,6.9,1c0.3-0.1,0.9-0.5,1.3-0.8c0-0.3,0.1-0.7,0.1-1.3c0-0.5,0-0.7-0.1-1
			c-2.1-0.5-6.5-1-9-1.2c-0.3-0.8-0.6-2.8-0.6-4.8c0-1.6,0.3-2.9,0.6-3.9c0.5-0.7,5-4.3,7.7-4.9c2.2-0.4,5.4-0.3,9-0.4L82.9,67
			c-1.6-0.3-5.3-0.8-6.4-0.6c-0.4,0.1-0.9,0.4-1.2,0.6c0,0.2-0.1,0.7-0.1,1c0,0.4,0,0.8,0.1,1c1.9,0.5,6.1,0.8,9.1,1
			c0.2,0.5,0.5,2.5,0.5,4.2c0,1.8-0.3,3.5-0.6,4.4c-1.5,1.8-5.4,4.9-7.9,5.4C74.3,84.6,69.6,84.5,66.9,84.4z"/>
		<path class="st1" d="M87.3,60l2.2-0.5l-0.3-3.1l7.5-4.3c-0.1,1.6-0.2,4-0.2,6l6.5-1.8l-2.2,5.6l-4.3,0.9v10.3
			c1.3,0.1,4.2-0.1,5.9-0.3l-2.4,6.6c-3.4,0.3-9-0.4-11-1.6l0.3-13.4L86.2,65L87.3,60z"/>
	</g>
</g>
<g>
	<g>
		<path d="M42.4,31.7c-0.4,0.1-0.8,0.2-1.2,0.2S40.4,32,40.1,32v-7.5c0.2-0.1,0.3-0.1,0.5-0.2c0.2-0.1,0.4-0.1,0.6-0.2
			c0.2-0.1,0.4-0.1,0.6-0.1c0.2,0,0.4-0.1,0.5-0.1c0.5-0.1,0.9-0.1,1.3-0.2c0.4,0,0.7,0,1,0.1c0.3,0.1,0.5,0.3,0.7,0.5
			c0.2,0.2,0.2,0.5,0.2,0.9c0,0.4-0.1,0.7-0.3,1c-0.2,0.3-0.4,0.5-0.7,0.8c0.5,0.1,0.8,0.2,1,0.5c0.2,0.3,0.3,0.6,0.3,1.1
			c0,0.8-0.3,1.4-0.8,2S43.5,31.5,42.4,31.7z M41.4,27.2l1-0.2c0.5-0.1,0.9-0.3,1.2-0.5c0.3-0.2,0.4-0.5,0.4-0.9
			c0-0.4-0.2-0.6-0.5-0.7s-0.7-0.1-1.2,0c-0.2,0-0.4,0.1-0.6,0.1c-0.2,0-0.3,0.1-0.4,0.1V27.2z M41.4,28.3v2.3c0.2,0,0.3,0,0.5-0.1
			s0.3-0.1,0.5-0.1c0.3-0.1,0.5-0.1,0.8-0.2c0.2-0.1,0.5-0.2,0.6-0.3s0.3-0.3,0.4-0.5s0.2-0.4,0.2-0.6c0-0.4-0.2-0.7-0.5-0.8
			c-0.3-0.1-0.7-0.1-1.3,0L41.4,28.3z"/>
		<path d="M46.9,27.8c0-0.5,0.1-1,0.2-1.4s0.3-0.8,0.6-1.1c0.2-0.3,0.5-0.6,0.8-0.8c0.3-0.2,0.6-0.3,1-0.4c0.8-0.2,1.4,0,1.8,0.4
			c0.4,0.4,0.7,1.1,0.7,2.1c0,0.1,0,0.2,0,0.3c0,0.1,0,0.2,0,0.3l-3.8,0.8c0,0.5,0.2,0.8,0.5,1c0.3,0.2,0.7,0.2,1.2,0.1
			c0.3-0.1,0.6-0.2,0.9-0.3c0.3-0.1,0.5-0.2,0.6-0.3l0.2,1.1c-0.1,0.1-0.2,0.1-0.3,0.2c-0.1,0.1-0.3,0.1-0.4,0.2s-0.3,0.1-0.5,0.2
			s-0.4,0.1-0.6,0.2c-0.5,0.1-0.9,0.1-1.3,0c-0.4-0.1-0.7-0.2-0.9-0.4S47.1,29.3,47,29S46.9,28.3,46.9,27.8z M50.7,26.5
			c0-0.2,0-0.4-0.1-0.5c-0.1-0.2-0.1-0.3-0.2-0.4c-0.1-0.1-0.2-0.2-0.4-0.2c-0.1,0-0.3,0-0.5,0c-0.2,0-0.4,0.1-0.5,0.2
			c-0.2,0.1-0.3,0.2-0.4,0.4c-0.1,0.1-0.2,0.3-0.2,0.5c-0.1,0.2-0.1,0.3-0.1,0.5L50.7,26.5z"/>
		<path d="M54.8,28.1c0.3-0.1,0.6-0.2,0.8-0.3c0.2-0.1,0.2-0.3,0.2-0.5c0-0.2-0.1-0.3-0.3-0.4c-0.2-0.1-0.5-0.2-0.8-0.2
			c-0.2,0-0.5-0.1-0.7-0.1c-0.2-0.1-0.4-0.1-0.5-0.2c-0.1-0.1-0.3-0.2-0.3-0.4c-0.1-0.2-0.1-0.4-0.1-0.7c0-0.5,0.2-1,0.6-1.4
			s0.9-0.6,1.6-0.8c0.3-0.1,0.7-0.1,1-0.1s0.5,0,0.7,0l-0.2,1.1c-0.1,0-0.3-0.1-0.6-0.1s-0.5,0-0.8,0.1c-0.3,0.1-0.5,0.1-0.7,0.3
			c-0.2,0.1-0.3,0.3-0.3,0.5c0,0.1,0,0.2,0,0.2c0,0.1,0.1,0.1,0.2,0.2s0.2,0.1,0.3,0.1c0.1,0,0.3,0.1,0.5,0.1
			c0.3,0.1,0.6,0.1,0.8,0.2c0.2,0.1,0.4,0.2,0.5,0.3c0.1,0.1,0.2,0.3,0.3,0.4s0.1,0.4,0.1,0.6c0,0.6-0.2,1-0.6,1.4
			c-0.4,0.4-1,0.6-1.7,0.8c-0.5,0.1-0.9,0.1-1.2,0.1c-0.3,0-0.5,0-0.6-0.1l0.2-1.2c0.2,0,0.4,0.1,0.7,0.1
			C54.2,28.2,54.5,28.2,54.8,28.1z"/>
		<path d="M58.3,21l1.3-0.5v1.8l2-0.4V23l-2,0.4v2.4c0,0.5,0.1,0.8,0.2,1c0.1,0.2,0.4,0.2,0.7,0.1c0.2,0,0.5-0.1,0.6-0.2
			c0.2-0.1,0.3-0.2,0.4-0.2l0.2,1c-0.2,0.1-0.4,0.2-0.6,0.3c-0.2,0.1-0.5,0.2-0.9,0.3c-0.4,0.1-0.7,0.1-1,0
			c-0.3-0.1-0.5-0.2-0.6-0.4c-0.2-0.2-0.3-0.4-0.3-0.7c-0.1-0.3-0.1-0.6-0.1-1V21z"/>
		<path d="M65.5,19.2l1.4-0.3v7.7l-1.4,0.3V19.2z"/>
		<path d="M68.6,20.7c0.3-0.1,0.6-0.3,1-0.4c0.4-0.1,0.9-0.3,1.3-0.4c0.5-0.1,0.9-0.1,1.2,0c0.3,0.1,0.6,0.2,0.7,0.4
			c0.2,0.2,0.3,0.5,0.4,0.8c0.1,0.3,0.1,0.7,0.1,1.1v3.3l-1.3,0.3v-3.1c0-0.3,0-0.6-0.1-0.8s-0.1-0.4-0.2-0.5s-0.2-0.2-0.4-0.2
			s-0.3,0-0.6,0c-0.2,0-0.3,0.1-0.5,0.1c-0.2,0.1-0.3,0.1-0.4,0.1V26l-1.3,0.3V20.7z"/>
		<path d="M75,19.4c0.3-0.1,0.6-0.3,1-0.4c0.4-0.1,0.9-0.3,1.3-0.4c0.5-0.1,0.9-0.1,1.2,0c0.3,0.1,0.6,0.2,0.7,0.4
			c0.2,0.2,0.3,0.5,0.4,0.8c0.1,0.3,0.1,0.7,0.1,1.1V24l-1.3,0.3v-3.1c0-0.3,0-0.6-0.1-0.8s-0.1-0.4-0.2-0.5s-0.2-0.2-0.4-0.2
			s-0.3,0-0.6,0c-0.2,0-0.3,0.1-0.5,0.1c-0.2,0.1-0.3,0.1-0.4,0.1v4.7L75,25V19.4z"/>
		<path d="M86.5,19.7c0,0.5-0.1,0.9-0.2,1.3c-0.1,0.4-0.3,0.8-0.6,1.1s-0.5,0.6-0.9,0.8c-0.3,0.2-0.7,0.4-1.1,0.4
			c-0.4,0.1-0.8,0.1-1.1,0c-0.3-0.1-0.6-0.2-0.9-0.4s-0.4-0.5-0.6-0.9c-0.1-0.4-0.2-0.8-0.2-1.2s0.1-0.9,0.2-1.3
			c0.1-0.4,0.3-0.8,0.6-1.1c0.2-0.3,0.5-0.6,0.9-0.8c0.3-0.2,0.7-0.4,1.1-0.4c0.4-0.1,0.8-0.1,1.1,0c0.3,0.1,0.6,0.2,0.9,0.4
			s0.4,0.5,0.6,0.8C86.4,18.9,86.5,19.3,86.5,19.7z M85.2,20c0-0.6-0.1-1-0.4-1.3c-0.2-0.3-0.6-0.4-1-0.3c-0.4,0.1-0.8,0.3-1,0.7
			c-0.2,0.4-0.4,0.9-0.4,1.4c0,0.6,0.1,1,0.4,1.3s0.6,0.4,1,0.3c0.4-0.1,0.8-0.3,1-0.7S85.2,20.6,85.2,20z"/>
		<path d="M89.2,22.1c-0.4-0.7-0.7-1.5-1.1-2.4c-0.4-0.9-0.7-1.9-1-3l1.4-0.3c0.1,0.3,0.2,0.6,0.3,1c0.1,0.4,0.2,0.7,0.3,1.1
			c0.1,0.3,0.2,0.7,0.4,1c0.1,0.3,0.2,0.6,0.4,0.9c0.1-0.3,0.2-0.6,0.3-1c0.1-0.4,0.2-0.8,0.4-1.2c0.1-0.4,0.2-0.8,0.3-1.2
			c0.1-0.4,0.2-0.8,0.3-1.1l1.4-0.3c-0.3,1.2-0.7,2.3-1,3.4c-0.4,1.1-0.8,2-1.1,2.9L89.2,22.1z"/>
		<path d="M95.3,14.9c0.4-0.1,0.8-0.1,1.1-0.1c0.3,0,0.5,0.2,0.7,0.3c0.2,0.2,0.3,0.4,0.4,0.6s0.1,0.6,0.1,0.9v3.5
			c-0.2,0.1-0.5,0.2-0.9,0.3c-0.4,0.1-0.9,0.3-1.4,0.4c-0.3,0.1-0.7,0.1-0.9,0.1c-0.3,0-0.5-0.1-0.7-0.2s-0.4-0.3-0.5-0.5
			S93,19.9,93,19.6c0-0.3,0.1-0.6,0.2-0.9c0.1-0.3,0.3-0.5,0.5-0.7c0.2-0.2,0.5-0.3,0.8-0.5c0.3-0.1,0.6-0.2,0.9-0.3
			c0.1,0,0.3-0.1,0.5-0.1c0.2,0,0.3,0,0.5,0V17c0-0.2,0-0.3-0.1-0.4c0-0.1-0.1-0.2-0.2-0.3c-0.1-0.1-0.2-0.1-0.4-0.2s-0.3,0-0.6,0
			c-0.3,0.1-0.6,0.1-0.8,0.2c-0.3,0.1-0.5,0.2-0.6,0.3l-0.2-1.1c0.2-0.1,0.4-0.2,0.7-0.3S95,15,95.3,14.9z M95.4,19.9
			c0.4-0.1,0.7-0.2,0.9-0.3v-1.5c-0.1,0-0.2,0-0.3,0s-0.3,0-0.5,0.1c-0.1,0-0.3,0.1-0.4,0.1c-0.1,0.1-0.3,0.1-0.4,0.2
			c-0.1,0.1-0.2,0.2-0.3,0.3c-0.1,0.1-0.1,0.3-0.1,0.4c0,0.3,0.1,0.5,0.3,0.6C94.8,19.9,95.1,19.9,95.4,19.9z"/>
		<path d="M99.2,12.7l1.3-0.5V14l2-0.4v1.1l-2,0.4v2.4c0,0.5,0.1,0.8,0.2,1c0.1,0.2,0.4,0.2,0.7,0.1c0.2,0,0.5-0.1,0.6-0.2
			c0.2-0.1,0.3-0.2,0.4-0.2l0.2,1c-0.2,0.1-0.4,0.2-0.6,0.3c-0.2,0.1-0.5,0.2-0.9,0.3c-0.4,0.1-0.7,0.1-1,0
			c-0.3-0.1-0.5-0.2-0.6-0.4c-0.2-0.2-0.3-0.4-0.3-0.7c-0.1-0.3-0.1-0.6-0.1-1V12.7z"/>
		<path d="M105.3,11.3c0,0.3-0.1,0.5-0.2,0.6c-0.2,0.2-0.3,0.3-0.6,0.3c-0.2,0-0.4,0-0.6-0.1c-0.2-0.1-0.2-0.3-0.2-0.6
			c0-0.3,0.1-0.5,0.2-0.7c0.2-0.2,0.4-0.3,0.6-0.3c0.2,0,0.4,0,0.6,0.1C105.2,10.9,105.3,11.1,105.3,11.3z M105.1,18.8l-1.3,0.3
			v-5.8l1.3-0.3V18.8z"/>
		<path d="M112,14.5c0,0.5-0.1,0.9-0.2,1.3c-0.1,0.4-0.3,0.8-0.6,1.1s-0.5,0.6-0.9,0.8c-0.3,0.2-0.7,0.4-1.1,0.4
			c-0.4,0.1-0.8,0.1-1.1,0c-0.3-0.1-0.6-0.2-0.9-0.4s-0.4-0.5-0.6-0.9c-0.1-0.4-0.2-0.8-0.2-1.2s0.1-0.9,0.2-1.3
			c0.1-0.4,0.3-0.8,0.6-1.1c0.2-0.3,0.5-0.6,0.9-0.8c0.3-0.2,0.7-0.4,1.1-0.4c0.4-0.1,0.8-0.1,1.1,0c0.3,0.1,0.6,0.2,0.9,0.4
			s0.4,0.5,0.6,0.8C111.9,13.7,112,14.1,112,14.5z M110.6,14.8c0-0.6-0.1-1-0.4-1.3c-0.2-0.3-0.6-0.4-1-0.3c-0.4,0.1-0.8,0.3-1,0.7
			c-0.2,0.4-0.4,0.9-0.4,1.4c0,0.6,0.1,1,0.4,1.3s0.6,0.4,1,0.3c0.4-0.1,0.8-0.3,1-0.7S110.6,15.4,110.6,14.8z"/>
		<path d="M113.3,11.6c0.3-0.1,0.6-0.3,1-0.4c0.4-0.1,0.9-0.3,1.3-0.4c0.5-0.1,0.9-0.1,1.2,0c0.3,0.1,0.6,0.2,0.7,0.4
			c0.2,0.2,0.3,0.5,0.4,0.8c0.1,0.3,0.1,0.7,0.1,1.1v3.3l-1.3,0.3v-3.1c0-0.3,0-0.6-0.1-0.8s-0.1-0.4-0.2-0.5s-0.2-0.2-0.4-0.2
			s-0.3,0-0.6,0c-0.2,0-0.3,0.1-0.5,0.1c-0.2,0.1-0.3,0.1-0.4,0.1v4.7l-1.3,0.3V11.6z"/>
	</g>
	<g>
		<path d="M42.6,43.8c0,0.4,0,0.7-0.1,1.1s-0.2,0.7-0.4,0.9c-0.2,0.3-0.5,0.5-0.8,0.7c-0.3,0.2-0.8,0.4-1.3,0.5
			c-0.5,0.1-0.9,0.1-1.2,0c-0.4-0.1-0.6-0.2-0.8-0.3l0.5-1.2c0.2,0.1,0.4,0.2,0.7,0.2c0.3,0.1,0.5,0.1,0.8,0c0.5-0.1,0.8-0.3,1-0.6
			c0.2-0.3,0.3-0.7,0.3-1.3V39l1.4-0.3V43.8z"/>
		<path d="M46.2,39.7c0.4-0.1,0.8-0.1,1.1-0.1c0.3,0,0.5,0.2,0.7,0.3c0.2,0.2,0.3,0.4,0.4,0.6s0.1,0.6,0.1,0.9V45
			c-0.2,0.1-0.5,0.2-0.9,0.3c-0.4,0.1-0.9,0.3-1.4,0.4c-0.3,0.1-0.7,0.1-0.9,0.1c-0.3,0-0.5-0.1-0.7-0.2s-0.4-0.3-0.5-0.5
			s-0.2-0.5-0.2-0.8c0-0.3,0.1-0.6,0.2-0.9c0.1-0.3,0.3-0.5,0.5-0.7c0.2-0.2,0.5-0.3,0.8-0.5c0.3-0.1,0.6-0.2,0.9-0.3
			c0.1,0,0.3-0.1,0.5-0.1c0.2,0,0.3,0,0.5,0v-0.2c0-0.2,0-0.3-0.1-0.4c0-0.1-0.1-0.2-0.2-0.3c-0.1-0.1-0.2-0.1-0.4-0.2s-0.3,0-0.6,0
			c-0.3,0.1-0.6,0.1-0.8,0.2c-0.3,0.1-0.5,0.2-0.6,0.3l-0.2-1.1c0.2-0.1,0.4-0.2,0.7-0.3S45.8,39.8,46.2,39.7z M46.3,44.7
			c0.4-0.1,0.7-0.2,0.9-0.3v-1.5c-0.1,0-0.2,0-0.3,0s-0.3,0-0.5,0.1c-0.1,0-0.3,0.1-0.4,0.1c-0.1,0.1-0.3,0.1-0.4,0.2
			c-0.1,0.1-0.2,0.2-0.3,0.3c-0.1,0.1-0.1,0.3-0.1,0.4c0,0.3,0.1,0.5,0.3,0.6C45.7,44.7,46,44.7,46.3,44.7z"/>
		<path d="M53.3,41.1c0-0.6-0.1-1-0.2-1.3c-0.1-0.2-0.4-0.3-0.8-0.2c-0.1,0-0.3,0.1-0.5,0.1c-0.2,0.1-0.3,0.1-0.4,0.1v4.7l-1.3,0.3
			v-5.6c0.3-0.1,0.6-0.3,1-0.4c0.4-0.1,0.8-0.3,1.3-0.4c0.4-0.1,0.7-0.1,1,0s0.5,0.1,0.6,0.3c0.1-0.1,0.2-0.2,0.3-0.3
			s0.3-0.2,0.4-0.3c0.2-0.1,0.3-0.2,0.5-0.2c0.2-0.1,0.3-0.1,0.5-0.2c0.4-0.1,0.8-0.1,1.1,0c0.3,0.1,0.5,0.2,0.7,0.4
			c0.2,0.2,0.3,0.5,0.3,0.8c0.1,0.3,0.1,0.7,0.1,1.1v3.3l-1.3,0.3v-3.1c0-0.6-0.1-1-0.2-1.3c-0.1-0.2-0.4-0.3-0.8-0.2
			c-0.2,0-0.4,0.1-0.6,0.2s-0.3,0.2-0.4,0.3c0.1,0.2,0.1,0.4,0.1,0.6c0,0.2,0,0.4,0,0.7v3.2l-1.3,0.3V41.1z"/>
		<path d="M64.6,41.9c-0.2-0.4-0.5-0.8-0.8-1.2c-0.3-0.4-0.6-0.8-0.9-1.3s-0.7-0.8-1-1.2c-0.3-0.4-0.7-0.7-1-1.1v5.5l-1.3,0.3v-7.7
			l1.1-0.2c0.3,0.3,0.6,0.6,0.9,0.9c0.3,0.4,0.7,0.7,1,1.1c0.3,0.4,0.7,0.8,1,1.2s0.6,0.8,0.8,1.1v-5.1l1.4-0.3v7.7L64.6,41.9z"/>
		<path d="M69.4,35c0.4-0.1,0.8-0.1,1.1-0.1c0.3,0,0.5,0.2,0.7,0.3c0.2,0.2,0.3,0.4,0.4,0.6s0.1,0.6,0.1,0.9v3.5
			c-0.2,0.1-0.5,0.2-0.9,0.3c-0.4,0.1-0.9,0.3-1.4,0.4c-0.3,0.1-0.7,0.1-0.9,0.1c-0.3,0-0.5-0.1-0.7-0.2s-0.4-0.3-0.5-0.5
			s-0.2-0.5-0.2-0.8c0-0.3,0.1-0.6,0.2-0.9c0.1-0.3,0.3-0.5,0.5-0.7c0.2-0.2,0.5-0.3,0.8-0.5c0.3-0.1,0.6-0.2,0.9-0.3
			c0.1,0,0.3-0.1,0.5-0.1c0.2,0,0.3,0,0.5,0V37c0-0.2,0-0.3-0.1-0.4c0-0.1-0.1-0.2-0.2-0.3c-0.1-0.1-0.2-0.1-0.4-0.2s-0.3,0-0.6,0
			c-0.3,0.1-0.6,0.1-0.8,0.2c-0.3,0.1-0.5,0.2-0.6,0.3l-0.2-1.1c0.2-0.1,0.4-0.2,0.7-0.3S69.1,35,69.4,35z M69.5,39.9
			c0.4-0.1,0.7-0.2,0.9-0.3v-1.5c-0.1,0-0.2,0-0.3,0s-0.3,0-0.5,0.1c-0.1,0-0.3,0.1-0.4,0.1c-0.1,0.1-0.3,0.1-0.4,0.2
			c-0.1,0.1-0.2,0.2-0.3,0.3c-0.1,0.1-0.1,0.3-0.1,0.4c0,0.3,0.1,0.5,0.3,0.6C68.9,40,69.2,40,69.5,39.9z"/>
		<path d="M73.3,32.8l1.3-0.5V34l2-0.4v1.1l-2,0.4v2.4c0,0.5,0.1,0.8,0.2,1c0.1,0.2,0.4,0.2,0.7,0.1c0.2,0,0.5-0.1,0.6-0.2
			c0.2-0.1,0.3-0.2,0.4-0.2l0.2,1c-0.2,0.1-0.4,0.2-0.6,0.3c-0.2,0.1-0.5,0.2-0.9,0.3c-0.4,0.1-0.7,0.1-1,0
			c-0.3-0.1-0.5-0.2-0.6-0.4c-0.2-0.2-0.3-0.4-0.3-0.7c-0.1-0.3-0.1-0.6-0.1-1V32.8z"/>
		<path d="M79.4,31.4c0,0.3-0.1,0.5-0.2,0.6c-0.2,0.2-0.3,0.3-0.6,0.3c-0.2,0-0.4,0-0.6-0.1c-0.2-0.1-0.2-0.3-0.2-0.6
			c0-0.3,0.1-0.5,0.2-0.7c0.2-0.2,0.4-0.3,0.6-0.3c0.2,0,0.4,0,0.6,0.1C79.3,30.9,79.4,31.1,79.4,31.4z M79.2,38.9l-1.3,0.3v-5.8
			l1.3-0.3V38.9z"/>
		<path d="M86,34.6c0,0.5-0.1,0.9-0.2,1.3c-0.1,0.4-0.3,0.8-0.6,1.1s-0.5,0.6-0.9,0.8c-0.3,0.2-0.7,0.4-1.1,0.4
			c-0.4,0.1-0.8,0.1-1.1,0c-0.3-0.1-0.6-0.2-0.9-0.4s-0.4-0.5-0.6-0.9c-0.1-0.4-0.2-0.8-0.2-1.2s0.1-0.9,0.2-1.3
			c0.1-0.4,0.3-0.8,0.6-1.1c0.2-0.3,0.5-0.6,0.9-0.8c0.3-0.2,0.7-0.4,1.1-0.4c0.4-0.1,0.8-0.1,1.1,0c0.3,0.1,0.6,0.2,0.9,0.4
			s0.4,0.5,0.6,0.8C86,33.8,86,34.2,86,34.6z M84.7,34.9c0-0.6-0.1-1-0.4-1.3c-0.2-0.3-0.6-0.4-1-0.3c-0.4,0.1-0.8,0.3-1,0.7
			c-0.2,0.4-0.4,0.9-0.4,1.4c0,0.6,0.1,1,0.4,1.3s0.6,0.4,1,0.3c0.4-0.1,0.8-0.3,1-0.7S84.7,35.5,84.7,34.9z"/>
		<path d="M87.4,31.6c0.3-0.1,0.6-0.3,1-0.4c0.4-0.1,0.9-0.3,1.3-0.4c0.5-0.1,0.9-0.1,1.2,0c0.3,0.1,0.6,0.2,0.7,0.4
			c0.2,0.2,0.3,0.5,0.4,0.8c0.1,0.3,0.1,0.7,0.1,1.1v3.3l-1.3,0.3v-3.1c0-0.3,0-0.6-0.1-0.8s-0.1-0.4-0.2-0.5S90.4,32,90.2,32
			c-0.2,0-0.3,0-0.6,0c-0.2,0-0.3,0.1-0.5,0.1c-0.2,0.1-0.3,0.1-0.4,0.1V37l-1.3,0.3V31.6z"/>
		<path d="M100.7,28.9c0,0.3-0.1,0.5-0.2,0.8c-0.1,0.3-0.2,0.6-0.4,0.8c-0.2,0.3-0.4,0.5-0.6,0.8c-0.2,0.3-0.4,0.5-0.7,0.8
			c-0.1,0.1-0.2,0.3-0.4,0.5c-0.1,0.2-0.3,0.4-0.4,0.6c-0.1,0.2-0.2,0.4-0.3,0.5c-0.1,0.2-0.1,0.3-0.2,0.4l3.4-0.7v1.1l-4.8,1
			c0-0.1,0-0.1,0-0.2s0-0.1,0-0.2c0-0.4,0.1-0.7,0.2-1s0.3-0.6,0.4-0.9c0.2-0.3,0.4-0.6,0.6-0.9c0.2-0.3,0.4-0.5,0.7-0.8
			c0.2-0.2,0.3-0.4,0.5-0.6s0.3-0.4,0.4-0.6c0.1-0.2,0.2-0.4,0.3-0.5s0.1-0.4,0.1-0.5c0-0.4-0.1-0.6-0.3-0.8
			c-0.2-0.1-0.5-0.1-0.8-0.1c-0.2,0-0.4,0.1-0.6,0.2s-0.3,0.2-0.5,0.3c-0.1,0.1-0.3,0.2-0.4,0.3c-0.1,0.1-0.2,0.2-0.2,0.3L96,28.6
			c0.3-0.4,0.7-0.7,1.1-0.9c0.4-0.3,0.9-0.4,1.3-0.5c0.8-0.2,1.4-0.1,1.8,0.2C100.5,27.7,100.7,28.2,100.7,28.9z"/>
		<path d="M107.4,29.3c0,1.3-0.2,2.3-0.7,3.1c-0.5,0.8-1.1,1.3-1.9,1.4c-0.8,0.2-1.5,0-1.9-0.6s-0.7-1.5-0.7-2.8
			c0-0.6,0.1-1.2,0.2-1.8c0.1-0.5,0.3-1,0.5-1.4c0.2-0.4,0.5-0.7,0.8-0.9c0.3-0.2,0.7-0.4,1.1-0.5c0.8-0.2,1.5,0,1.9,0.6
			C107.1,27.1,107.4,28,107.4,29.3z M106,29.6c0-0.4,0-0.8-0.1-1.1c0-0.3-0.1-0.6-0.2-0.9c-0.1-0.2-0.2-0.4-0.4-0.5
			c-0.2-0.1-0.4-0.1-0.6-0.1c-0.2,0-0.4,0.2-0.6,0.3c-0.2,0.2-0.3,0.4-0.4,0.7c-0.1,0.3-0.2,0.6-0.2,0.9c0,0.4-0.1,0.7-0.1,1.1
			s0,0.8,0.1,1.1c0,0.3,0.1,0.6,0.2,0.9c0.1,0.2,0.2,0.4,0.4,0.5c0.2,0.1,0.4,0.1,0.6,0.1c0.2,0,0.4-0.2,0.6-0.3s0.3-0.4,0.4-0.7
			c0.1-0.3,0.2-0.6,0.2-0.9C106,30.4,106,30,106,29.6z"/>
		<path d="M108.8,26.8c0.4-0.3,0.8-0.6,1.3-0.9c0.4-0.4,0.8-0.7,1.1-1.2l0.9-0.2v7.7l-1.3,0.3v-5.9c-0.2,0.2-0.4,0.4-0.7,0.6
			c-0.3,0.2-0.6,0.4-0.9,0.5L108.8,26.8z"/>
		<path d="M115.7,31.5c0-0.6,0.1-1.2,0.3-1.8s0.3-1.3,0.6-1.9c0.2-0.6,0.5-1.2,0.7-1.8s0.5-1.1,0.8-1.5l-3.5,0.7V24l5-1v1
			c-0.2,0.3-0.5,0.7-0.8,1.3c-0.3,0.5-0.6,1.1-0.8,1.8s-0.5,1.3-0.7,2c-0.2,0.7-0.3,1.4-0.3,2.1L115.7,31.5z"/>
	</g>
</g>
</svg>
