<?xml version="1.0" encoding="utf-8"?>
<!-- Generator: Adobe Illustrator 22.0.1, SVG Export Plug-In . SVG Version: 6.00 Build 0)  -->
<svg version="1.1" id="Calque_1" xmlns="http://www.w3.org/2000/svg" xmlns:xlink="http://www.w3.org/1999/xlink" x="0px" y="0px"
	 viewBox="0 0 636.6 636.6" style="enable-background:new 0 0 636.6 636.6;" xml:space="preserve">
<style type="text/css">
	.st0{fill:#214697;}
	.st1{fill-rule:evenodd;clip-rule:evenodd;fill:#FDF288;}
</style>
<path class="st0" d="M567.1,70.8C523.3,27,430.5,0.8,318.7,0.8C207,0.8,114.1,27,70.3,70.8C26.6,114.5,0.4,207.4,0.4,319.1
	s26.1,204.6,69.9,248.4c43.8,43.8,136.6,69.9,248.4,69.9c0,0,0,0,0,0c111.7,0,204.6-26.1,248.4-69.9
	c43.8-43.8,69.9-136.6,69.9-248.4C637,207.4,610.9,114.5,567.1,70.8z"/>
<path id="XMLID_3_" class="st1" d="M271.2,409.5c0-28.5-0.1-57,0.1-85.6c0-4.8-1.3-6.3-6.1-6.1c-8.9,0.4-17.8,0-26.7,0.2
	c-3.6,0.1-4.9-0.9-4.9-4.7c0.2-17.8,0.2-35.6,0-53.4c0-3.4,1-4.5,4.5-4.5c9.1,0.2,18.2-0.3,27.3,0.2c5.3,0.3,6.4-1.6,6.2-6.5
	c-0.3-13.5-0.3-27.1,0-40.7c0.4-16.5,4.8-32,14.7-45.4c12.5-17,30.2-24.8,50.6-25.7c21-0.9,42.1-0.4,63.1-0.6c2.9,0,3.8,1,3.8,3.9
	c-0.1,18-0.1,36,0,54c0,3.2-1,4.2-4.2,4.1c-10.1-0.2-20.2-0.1-30.3-0.1c-13.5,0-21.5,7-22.4,20.3c-0.7,10.7-0.2,21.4-0.4,32.1
	c-0.1,3.8,2.2,3.6,4.7,3.6c15.4,0,30.7,0.2,46.1-0.1c4.5-0.1,6,1,5.5,5.7c-1.9,17.9-3.6,35.8-5.1,53.7c-0.3,4-2.2,4.8-5.8,4.8
	c-12.1-0.2-24.3-0.1-36.4-0.1c-8.7,0.1-7.9-1.3-7.9,7.6c0,55.8-0.1,111.7,0.1,167.5c0,5.9-1.5,7.4-7.3,7.3
	c-20.8-0.4-41.7-0.4-62.5,0c-5.9,0.1-6.8-1.9-6.8-7.1C271.3,465.7,271.2,437.6,271.2,409.5z"/>
</svg>
