<?xml version="1.0" encoding="utf-8"?>
<!-- Generator: Adobe Illustrator 22.0.1, SVG Export Plug-In . SVG Version: 6.00 Build 0)  -->
<svg version="1.1" id="Calque_1" xmlns="http://www.w3.org/2000/svg" xmlns:xlink="http://www.w3.org/1999/xlink" x="0px" y="0px"
	 viewBox="0 0 636.6 636.6" style="enable-background:new 0 0 636.6 636.6;" xml:space="preserve">
<style type="text/css">
	.st0{fill:#214697;}
	.st1{fill:#FDF288;}
</style>
<path class="st0" d="M566.8,69.9C523,26.2,430.3,0.1,318.7,0.1c-111.6,0-204.4,26.1-248.1,69.8C26.9,113.7,0.8,206.4,0.8,318
	s26.1,204.4,69.8,248.1c43.7,43.7,136.5,69.8,248.1,69.8c0,0,0,0,0,0c111.6,0,204.4-26.1,248.1-69.8
	c43.7-43.7,69.8-136.5,69.8-248.1C636.6,206.4,610.5,113.7,566.8,69.9z"/>
<g>
	<path class="st1" d="M400.9,520H236.5c-64.5,0-116.9-52.4-116.9-116.9V227.7c0-64.5,52.4-116.9,116.9-116.9h164.4
		c64.5,0,116.9,52.4,116.9,116.9v175.4C517.8,467.6,465.3,520,400.9,520z M236.5,140.8c-47.9,0-86.9,39-86.9,86.9v175.4
		c0,47.9,39,86.9,86.9,86.9h164.4c47.9,0,86.9-39,86.9-86.9V227.7c0-47.9-39-86.9-86.9-86.9H236.5z"/>
	<path class="st1" d="M318.7,423.6c-59.9,0-108.7-48.8-108.7-108.7c0-29.6,12.1-58.3,33.3-78.9c20.7-20.1,47.6-30.6,75.9-29.8
		c33.9,1,61.9,12.4,81.2,33c18.3,19.5,27.6,45.8,26.9,76.1c-0.6,29-12.1,56.1-32.2,76.4C374.8,412.2,347.6,423.6,318.7,423.6z
		 M316.2,242.7c-17.6,0-34.4,6.9-47.4,19.5c-14.1,13.7-22.2,32.9-22.2,52.6c0,39.7,32.3,72.1,72.1,72.1c39.5,0,71.2-31.8,72.1-72.5
		l0,0c0.4-20.5-5.4-37.9-17.1-50.3c-12.5-13.3-31.7-20.7-55.6-21.4C317.5,242.7,316.8,242.7,316.2,242.7z"/>
	<circle class="st1" cx="430" cy="203.1" r="25.4"/>
</g>
</svg>
