<?xml version="1.0" encoding="utf-8"?>
<!-- Generator: Adobe Illustrator 22.0.1, SVG Export Plug-In . SVG Version: 6.00 Build 0)  -->
<svg version="1.1" id="Calque_1" xmlns="http://www.w3.org/2000/svg" xmlns:xlink="http://www.w3.org/1999/xlink" x="0px" y="0px"
	 viewBox="0 0 636.6 636.6" style="enable-background:new 0 0 636.6 636.6;" xml:space="preserve">
<style type="text/css">
	.st0{fill-rule:evenodd;clip-rule:evenodd;fill:#FFFFFF;}
	.st1{fill:url(#SVGID_1_);}
	.st2{fill:#FFFFFF;}
</style>
<path id="XMLID_2_" class="st0" d="M270.8,408.6c0-28.5-0.1-57,0.1-85.6c0-4.8-1.3-6.3-6.1-6.1c-8.9,0.4-17.8,0-26.7,0.2
	c-3.6,0.1-4.9-0.9-4.9-4.7c0.2-17.8,0.2-35.6,0-53.4c0-3.4,1-4.5,4.5-4.5c9.1,0.2,18.2-0.3,27.3,0.2c5.3,0.3,6.4-1.6,6.2-6.5
	c-0.3-13.5-0.3-27.1,0-40.7c0.4-16.5,4.8-32,14.7-45.4c12.5-17,30.2-24.8,50.6-25.7c21-0.9,42.1-0.4,63.1-0.6c2.9,0,3.8,1,3.8,3.9
	c-0.1,18-0.1,36,0,54c0,3.2-1,4.2-4.2,4.1c-10.1-0.2-20.2-0.1-30.3-0.1c-13.5,0-21.5,7-22.4,20.3c-0.7,10.7-0.2,21.4-0.4,32.1
	c-0.1,3.8,2.2,3.6,4.7,3.6c15.4,0,30.7,0.2,46.1-0.1c4.5-0.1,6,1,5.5,5.7c-1.9,17.9-3.6,35.8-5.1,53.7c-0.3,4-2.2,4.8-5.8,4.8
	c-12.1-0.2-24.3-0.1-36.4-0.1c-8.7,0.1-7.9-1.3-7.9,7.6c0,55.8-0.1,111.7,0.1,167.5c0,5.9-1.5,7.4-7.3,7.3
	c-20.8-0.4-41.7-0.4-62.5,0c-5.9,0.1-6.8-1.9-6.8-7.1C270.9,464.9,270.8,436.7,270.8,408.6z"/>
<radialGradient id="SVGID_1_" cx="176.778" cy="605.0272" r="561.354" gradientUnits="userSpaceOnUse">
	<stop  offset="0" style="stop-color:#FFD676"/>
	<stop  offset="0.2463" style="stop-color:#F2A454"/>
	<stop  offset="0.3793" style="stop-color:#F05C3C"/>
	<stop  offset="0.6995" style="stop-color:#C22F86"/>
	<stop  offset="0.9568" style="stop-color:#6666AD"/>
	<stop  offset="0.9852" style="stop-color:#5C6CB2"/>
</radialGradient>
<path class="st1" d="M566.8,70.1C523,26.4,430.3,0.3,318.7,0.3c-111.6,0-204.4,26.1-248.1,69.8C26.9,113.9,0.8,206.6,0.8,318.2
	s26.1,204.4,69.8,248.1c43.7,43.7,136.5,69.8,248.1,69.8c0,0,0,0,0,0c111.6,0,204.4-26.1,248.1-69.8
	c43.7-43.7,69.8-136.5,69.8-248.1C636.6,206.6,610.5,113.9,566.8,70.1z"/>
<g>
	<path class="st2" d="M400.9,520.2H236.5c-64.5,0-116.9-52.4-116.9-116.9V227.9c0-64.5,52.4-116.9,116.9-116.9h164.4
		c64.5,0,116.9,52.4,116.9,116.9v175.4C517.8,467.8,465.3,520.2,400.9,520.2z M236.5,141c-47.9,0-86.9,39-86.9,86.9v175.4
		c0,47.9,39,86.9,86.9,86.9h164.4c47.9,0,86.9-39,86.9-86.9V227.9c0-47.9-39-86.9-86.9-86.9H236.5z"/>
	<path class="st2" d="M318.7,423.8C258.7,423.8,210,375,210,315.1c0-29.6,12.1-58.3,33.3-78.9c20.7-20.1,47.6-30.6,75.9-29.8
		c33.9,1,61.9,12.4,81.2,33c18.3,19.5,27.6,45.8,26.9,76.1c-0.6,29-12.1,56.1-32.2,76.4C374.8,412.4,347.6,423.8,318.7,423.8z
		 M316.2,242.9c-17.6,0-34.4,6.9-47.4,19.5c-14.1,13.7-22.2,32.9-22.2,52.6c0,39.7,32.3,72.1,72.1,72.1c39.5,0,71.2-31.8,72.1-72.5
		l0,0c0.4-20.5-5.4-37.9-17.1-50.3c-12.5-13.3-31.7-20.7-55.6-21.4C317.5,242.9,316.8,242.9,316.2,242.9z"/>
	<circle class="st2" cx="430" cy="203.3" r="25.4"/>
</g>
</svg>
