<?xml version="1.0" encoding="utf-8"?>
<!-- Generator: Adobe Illustrator 22.0.1, SVG Export Plug-In . SVG Version: 6.00 Build 0)  -->
<svg version="1.1" id="Calque_1" xmlns="http://www.w3.org/2000/svg" xmlns:xlink="http://www.w3.org/1999/xlink" x="0px" y="0px"
	 viewBox="0 0 965.7 796.3" style="enable-background:new 0 0 965.7 796.3;" xml:space="preserve">
<style type="text/css">
	.st0{fill:#B2B2B2;}
	.st1{fill:#71422A;}
	.st2{fill:#965534;}
	.st3{fill:#FCF286;}
	.st4{fill:#FFCE00;}
	.st5{fill:url(#SVGID_1_);}
	.st6{fill:url(#SVGID_2_);}
	.st7{fill:#C9C9C9;}
	.st8{fill:#989898;}
	.st9{fill:#909090;}
	.st10{fill:#654531;}
	.st11{fill:#845839;}
	.st12{fill:#E7E7E7;}
	.st13{fill:#C6C6C6;}
	.st14{fill:#2288EE;}
	.st15{fill:#304798;}
	.st16{fill:#334EA4;}
	.st17{fill:url(#SVGID_3_);}
	.st18{fill:#8899AD;}
</style>
<path class="st0" d="M638.4,168.4c-22.8-5.9-34.4-3.8-37.1-3.9c-5.5,2.6-5.6,2.6-5.7,2.7c-0.5,0.4-0.7,0.5-1,0.7
	c-2.4,1.5-2.6,1.6-2.7,1.7l25.3,6.5c0.2-0.1,0.3-0.2,2.7-1.7c0.2-0.2,0.5-0.3,1-0.7c0.1-0.1,0.2-0.2,5.7-2.7
	c2.7,0.1,14.3-1.9,37.1,3.9L638.4,168.4z"/>
<g>
	<polygon class="st1" points="593.9,315.4 599.2,320.3 608.5,328.9 379.7,669.7 366.8,658.8 363.8,641.5 390.1,602.1 410.4,589.4 	
		"/>
</g>
<polygon class="st2" points="623.4,342 620.7,339.6 608.5,328.9 379.7,669.7 394.3,682.5 419.6,689 435.4,685.9 461.6,646.7 
	466.8,619.6 648.7,348.5 "/>
<path class="st0" d="M743.5,118.7c-0.2-0.3-34.7-53.9-33.3-78c0-0.1,0-2.1,1-3.2c1-1.1,2.4-4,0.4-6c-0.2-0.2-0.5-0.4-0.9-0.5
	l-25.3-6.5c0.1,0,0.2,0.1,0.3,0.1c-0.4-0.2-0.9-0.2-1.6-0.2c-0.1,0-0.3,0-0.4,0.1l0,0c0,0,0,0-0.1,0c-0.3,0-0.5,0.1-0.8,0.2h-0.1
	c-0.3,0.1-0.6,0.2-0.9,0.3h-0.1c-0.3,0.1-0.6,0.2-1,0.4h-0.1c-0.3,0.1-0.7,0.3-1,0.4c0,0-0.1,0-0.1,0.1c-0.3,0.2-0.7,0.3-1,0.5
	c-0.1,0-0.1,0.1-0.2,0.1c-0.3,0.2-0.7,0.3-1,0.5c-0.1,0.1-0.2,0.1-0.3,0.2c-0.3,0.2-0.6,0.3-0.9,0.5c-0.4,0.2-0.8,0.5-1.2,0.7
	c2.2,0.6,4.3,1.1,6.5,1.7c-21.8,57-11.9,113.1-3.8,142.2l40.4-60.1l0,0L743.5,118.7z M686.4,25c-0.1-0.1-0.3-0.2-0.4-0.3
	C686.1,24.8,686.3,24.9,686.4,25z"/>
<g>
	<polygon class="st3" points="785.9,30.7 790.9,34.5 599.2,320.3 578.8,285.7 599.2,272.2 593,261.6 603.1,246.5 613,246.8 
		619.4,251.7 628.9,245.3 672.4,180.4 677.8,172.3 718.2,112.2 766.3,40.6 	"/>
</g>
<polygon class="st4" points="836.3,84.7 838.9,60.1 816.2,41 790.9,34.5 599.3,320.4 620.7,339.6 623.4,342 645.6,361.9 
	670.9,368.4 677.8,357.8 683.2,331.3 695.1,334.3 705.3,318.5 701.6,305.6 695.5,302 700.1,287.3 "/>
<radialGradient id="SVGID_1_" cx="802.5" cy="573.4485" r="85.3497" fx="728.8364" fy="616.5557" gradientTransform="matrix(1 0 0 -1 0 796)" gradientUnits="userSpaceOnUse">
	<stop  offset="0" style="stop-color:#666666"/>
	<stop  offset="4.600942e-02" style="stop-color:#747474"/>
	<stop  offset="0.1431" style="stop-color:#8B8B8B"/>
	<stop  offset="0.2555" style="stop-color:#9C9C9C"/>
	<stop  offset="0.3911" style="stop-color:#A9A9A9"/>
	<stop  offset="0.5732" style="stop-color:#B0B0B0"/>
	<stop  offset="1" style="stop-color:#B2B2B2"/>
</radialGradient>
<path class="st5" d="M872.8,137.9c-29.9,151.5-125.3,183.7-130.3,185.4c7.8-46.5-22.7-103.9-24.3-106.9l44.2-65.8
	c0.8,0.2,1.6,0.4,2.4,0.6c0.2,0.1,0.5,0.1,0.7,0.2c0.5,0.1,1.1,0.3,1.6,0.4c0.3,0.1,0.5,0.1,0.8,0.2c0.5,0.1,1,0.2,1.5,0.4
	c0.3,0.1,0.6,0.2,1,0.2c0.4,0.1,0.9,0.2,1.3,0.3c0.3,0.1,0.6,0.1,0.9,0.2c0.4,0.1,0.9,0.2,1.3,0.3c0.3,0.1,0.6,0.1,0.9,0.2
	c0.4,0.1,0.8,0.2,1.3,0.3c0.3,0.1,0.7,0.1,1,0.2c0.4,0.1,0.8,0.2,1.2,0.2c0.3,0.1,0.6,0.1,1,0.2c0.4,0.1,0.8,0.2,1.2,0.2
	c0.3,0.1,0.6,0.1,1,0.2c0.4,0.1,0.8,0.1,1.2,0.2c0.3,0.1,0.6,0.1,1,0.2c0.4,0.1,0.8,0.1,1.2,0.2c0.3,0.1,0.6,0.1,0.9,0.1
	c0.4,0.1,0.8,0.1,1.1,0.2c0.3,0,0.6,0.1,1,0.1c0.4,0.1,0.7,0.1,1.1,0.2c0.3,0,0.6,0.1,1,0.1c0.4,0.1,0.7,0.1,1.1,0.1
	c0.3,0,0.6,0.1,0.9,0.1c0.4,0,0.8,0.1,1.2,0.1c0.3,0,0.6,0.1,0.8,0.1c0.4,0,0.8,0.1,1.1,0.1s0.6,0.1,0.9,0.1c0.4,0,0.7,0.1,1.1,0.1
	c0.3,0,0.6,0.1,0.8,0.1c0.4,0,0.8,0.1,1.1,0.1s0.5,0,0.8,0.1c0.4,0,0.7,0.1,1.1,0.1c0.3,0,0.5,0,0.8,0.1c0.4,0,0.7,0,1.1,0.1
	c0.3,0,0.5,0,0.8,0c0.4,0,0.8,0,1.1,0.1c0.2,0,0.5,0,0.7,0c0.4,0,0.8,0,1.2,0c0.2,0,0.4,0,0.6,0c0.4,0,0.8,0,1.2,0
	c0.2,0,0.4,0,0.6,0c0.5,0,0.9,0,1.4,0c0.9,0,1.5,0,2.1,0c0.2,0,0.3,0,0.5,0c0.4,0,0.8,0,1.3,0c0.2,0,0.3,0,0.5,0c0.4,0,0.8,0,1.2,0
	c0.2,0,0.5,0,0.7,0c0.3,0,0.7,0,1,0c0.2,0,0.5,0,0.7,0c0.3,0,0.6,0,0.9,0c0.3,0,0.5,0,0.8,0s0.6,0,0.8,0c0.3,0,0.5,0,0.7-0.1
	c0.3,0,0.6,0,0.9-0.1c0.2,0,0.5,0,0.7-0.1c0.2,0,0.4,0,0.6,0c0.5,0,0.8-0.1,1.1-0.1c0.2,0,0.5,0,0.7-0.1c0.3,0,0.6-0.1,0.9-0.1
	c0.2,0,0.5-0.1,0.7-0.1c0.3,0,0.6-0.1,0.9-0.1c0.2,0,0.4-0.1,0.7-0.1s0.6-0.1,0.9-0.1c0.2,0,0.4-0.1,0.6-0.1c0.3,0,0.6-0.1,0.9-0.1
	c0.2,0,0.4-0.1,0.6-0.1c0.3-0.1,0.7-0.1,1-0.2c0.2,0,0.3-0.1,0.5-0.1c0.5-0.1,0.9-0.2,1.4-0.2c0.6-0.1,1-0.2,1.5-0.3
	c0.6-0.1,1-0.2,1.4-0.3c0.8-0.2,1.1-0.2,1.4-0.3c0.2,0,0.3-0.1,0.5-0.1c0.3-0.1,0.6-0.1,0.9-0.2c0.2,0,0.3-0.1,0.5-0.1
	c0.3-0.1,0.6-0.1,0.8-0.2c0.2,0,0.3-0.1,0.5-0.1c0.3-0.1,0.6-0.1,0.8-0.2c0.2,0,0.3-0.1,0.5-0.1c0.3-0.1,0.5-0.1,0.8-0.2
	c0.2-0.1,0.4-0.1,0.5-0.2c0.2-0.1,0.5-0.1,0.7-0.2c0.2-0.1,0.3-0.1,0.5-0.2c0.2-0.1,0.5-0.2,0.7-0.2c0.2-0.1,0.3-0.1,0.5-0.2
	c0.2-0.1,0.5-0.2,0.7-0.2c0.2-0.1,0.4-0.1,0.5-0.2c0.2-0.1,0.5-0.2,0.7-0.2c0.2-0.1,0.3-0.1,0.5-0.2c0.2-0.1,0.5-0.2,0.7-0.2
	c0.2-0.1,0.3-0.1,0.5-0.2c0.2-0.1,0.4-0.2,0.7-0.2c0.2-0.1,0.3-0.1,0.5-0.2c0.2-0.1,0.4-0.2,0.6-0.2c0.2-0.1,0.3-0.1,0.5-0.2
	c0.2-0.1,0.4-0.2,0.6-0.2c0.2-0.1,0.3-0.1,0.5-0.2c0.2-0.1,0.4-0.2,0.6-0.3c0.2-0.1,0.3-0.1,0.5-0.2c0.2-0.1,0.4-0.2,0.6-0.3
	c0.2-0.1,0.3-0.1,0.5-0.2c0.2-0.1,0.4-0.2,0.5-0.3c0.2-0.1,0.3-0.1,0.5-0.2c0.2-0.1,0.4-0.2,0.5-0.3c0.2-0.1,0.3-0.2,0.5-0.2
	c0.2-0.1,0.3-0.2,0.5-0.3s0.3-0.2,0.5-0.2c0.2-0.1,0.4-0.2,0.6-0.3c0.6-0.3,0.8-0.4,1-0.5c0.6-0.3,0.8-0.4,1-0.5
	c0.5-0.3,0.7-0.4,0.9-0.5c0.6-0.3,0.9-0.5,1.2-0.7c0.4-0.2,0.7-0.4,1.1-0.6c1.6-1.1,1.8-1.2,2-1.4c1.3-1.1,1.8-1.5,2.5-2.1
	C870.8,139.7,871.7,138.9,872.8,137.9z"/>
<radialGradient id="SVGID_2_" cx="809.7684" cy="507.0274" r="115.9821" gradientTransform="matrix(1 0 0 -2 0 1254.0046)" gradientUnits="userSpaceOnUse">
	<stop  offset="0" style="stop-color:#BABABA"/>
	<stop  offset="1" style="stop-color:#C9C9C9"/>
</radialGradient>
<path class="st6" d="M897,103.6c0.1-0.2,23.1,53.8-44.3,164.9c-0.8,1.3-1.6,2.7-2.5,4c-1.2,1.9-2,3.1-2.7,4.3
	c-0.1,0.2-0.3,0.5-0.4,0.7c-0.8,1.2-1.6,2.5-2.4,3.7c-1,1.5-1.8,2.6-2.5,3.8c-1.1,1.7-1.9,2.8-2.7,3.9c-0.1,0.2-0.3,0.4-0.4,0.6
	c-0.8,1.1-1.6,2.2-2.4,3.3c-1.1,1.5-1.9,2.6-2.7,3.6c-1,1.3-1.8,2.4-2.6,3.4c-1.2,1.6-2,2.6-2.8,3.6c-1.2,1.5-2,2.6-2.8,3.5
	c-0.9,1.1-1.7,2.1-2.5,3c-1.1,1.4-1.9,2.3-2.7,3.2c-1.2,1.4-2,2.3-2.8,3.2c-1.1,1.2-1.8,2-2.6,2.8c-1,1.1-1.8,2-2.6,2.8
	c-1.2,1.3-2,2.1-2.7,2.9c-1.2,1.2-1.9,2-2.7,2.7c-0.9,0.9-1.6,1.6-2.4,2.4c-1.2,1.2-1.9,1.9-2.7,2.6c-1.2,1.1-1.9,1.8-2.7,2.5
	c-1,0.9-1.7,1.5-2.4,2.1c-1.1,1-1.8,1.6-2.5,2.2c-1.2,1-1.9,1.7-2.6,2.2c-1,0.9-1.7,1.4-2.4,2c-1,0.8-1.7,1.4-2.4,1.9
	c-1.2,0.9-1.9,1.5-2.6,2c-1.1,0.9-1.8,1.4-2.6,1.9c-0.8,0.6-1.5,1.1-2.2,1.6c-1.1,0.7-1.7,1.2-2.4,1.7c-1.1,0.8-1.8,1.2-2.5,1.7
	c-0.9,0.6-1.5,1-2.2,1.4c-1,0.6-1.6,1-2.3,1.4c-1.1,0.7-1.7,1.1-2.4,1.4c-1,0.6-1.6,0.9-2.2,1.3c-0.9,0.5-1.5,0.9-2.1,1.2
	c-1,0.6-1.6,0.9-2.2,1.2c-1,0.5-1.6,0.9-2.2,1.2c-0.8,0.4-1.4,0.7-1.9,1c-1,0.5-1.6,0.8-2.1,1c-1,0.5-1.6,0.7-2.1,1
	c-0.8,0.4-1.4,0.6-1.9,0.8c-0.9,0.4-1.4,0.6-1.9,0.8c-0.9,0.4-1.5,0.6-2,0.8c-0.9,0.4-1.4,0.6-2,0.8c-0.6,0.2-1.1,0.4-1.6,0.6
	c-0.9,0.3-1.4,0.5-1.9,0.7c-0.8,0.3-1.3,0.5-1.8,0.6c-0.7,0.2-1.2,0.4-1.6,0.5c-0.7,0.2-1.2,0.4-1.6,0.5c-0.8,0.2-1.2,0.4-1.7,0.5
	c-0.7,0.2-1.1,0.3-1.6,0.4s-0.9,0.2-1.4,0.4c-0.7,0.2-1.1,0.3-1.5,0.4c-0.6,0.2-1.1,0.2-1.5,0.3c-0.5,0.1-0.9,0.2-1.2,0.3
	c-0.6,0.1-0.9,0.2-1.3,0.3c-0.6,0.1-0.9,0.2-1.3,0.2c-0.5,0.1-0.9,0.2-1.2,0.2c-0.4,0.1-0.7,0.1-1.1,0.2c-0.5,0.1-0.8,0.1-1.1,0.2
	c-0.7,0.1-1.3,0.2-1.9,0.2c-0.4,0-0.7,0.1-0.9,0.1c-0.4,0-0.6,0.1-0.8,0.1c3-8.9,11.5-20,17.8-34.3c5.8-13,6-18.6,6-18.9
	c5-1.7,100.5-33.9,130.5-185.5c0.3-0.3,0.7-0.7,1.2-1.2c1.4-1.5,2.6-2.7,3.7-4.1c0.4-0.5,0.8-1,1.2-1.4c0.7-0.8,0.9-1.1,1.2-1.4
	c2-2.5,3.8-4.9,5.4-7.2c1.5-2.2,2.7-3.9,3.7-5.6c1.3-2,2.3-3.7,3.3-5.3c0.4-0.6,0.7-1.2,1-1.8c0.5-0.8,0.8-1.4,1.1-2
	C895.9,105.6,896.7,104.1,897,103.6z"/>
<g>
	<path class="st7" d="M897,103.6l25.3,6.5c0.1-0.2,23.1,53.8-44.3,164.9c-0.8,1.3-1.6,2.7-2.5,4c-1.2,1.9-2,3.1-2.7,4.3
		c-0.1,0.2-0.3,0.5-0.4,0.7c-0.8,1.2-1.6,2.5-2.4,3.7c-1,1.5-1.8,2.6-2.5,3.8c-1.1,1.7-1.9,2.8-2.7,3.9c-0.1,0.2-0.3,0.4-0.4,0.6
		c-0.8,1.1-1.6,2.2-2.4,3.3c-1.1,1.5-1.9,2.6-2.7,3.6c-1,1.3-1.8,2.4-2.6,3.4c-1.2,1.6-2,2.6-2.8,3.6c-1.2,1.5-2,2.6-2.8,3.5
		c-0.9,1.1-1.7,2.1-2.5,3c-1.1,1.4-1.9,2.3-2.7,3.2c-1.2,1.4-2,2.3-2.8,3.2c-1.1,1.2-1.8,2-2.6,2.8c-1,1.1-1.8,2-2.6,2.8
		c-1.2,1.3-2,2.1-2.7,2.9c-1.2,1.2-1.9,2-2.7,2.7c-0.9,0.9-1.6,1.6-2.4,2.4c-1.2,1.2-1.9,1.9-2.7,2.6c-1.2,1.1-1.9,1.8-2.7,2.5
		c-1,0.9-1.7,1.5-2.4,2.1c-1.1,1-1.8,1.6-2.5,2.2c-1.2,1-1.9,1.7-2.6,2.2c-1,0.9-1.7,1.4-2.4,2c-1,0.8-1.7,1.4-2.4,1.9
		c-1.2,0.9-1.9,1.5-2.6,2c-1.1,0.9-1.8,1.4-2.6,1.9c-0.8,0.6-1.5,1.1-2.2,1.6c-1.1,0.7-1.7,1.2-2.4,1.7c-1.1,0.8-1.8,1.2-2.5,1.7
		c-0.9,0.6-1.5,1-2.2,1.4c-1,0.6-1.6,1-2.3,1.4c-1.1,0.7-1.7,1.1-2.4,1.4c-1,0.6-1.6,0.9-2.2,1.3c-0.9,0.5-1.5,0.9-2.1,1.2
		c-1,0.6-1.6,0.9-2.2,1.2c-1,0.5-1.6,0.9-2.2,1.2c-0.8,0.4-1.4,0.7-1.9,1c-1,0.5-1.6,0.8-2.1,1c-1,0.5-1.6,0.7-2.1,1
		c-0.8,0.4-1.4,0.6-1.9,0.8c-0.9,0.4-1.4,0.6-1.9,0.8c-0.9,0.4-1.5,0.6-2,0.8c-0.9,0.4-1.4,0.6-2,0.8c-0.6,0.2-1.1,0.4-1.6,0.6
		c-0.9,0.3-1.4,0.5-1.9,0.7c-0.8,0.3-1.3,0.5-1.8,0.6c-0.7,0.2-1.2,0.4-1.6,0.5c-0.7,0.2-1.2,0.4-1.6,0.5c-0.8,0.2-1.2,0.4-1.7,0.5
		c-0.7,0.2-1.1,0.3-1.6,0.4s-0.9,0.2-1.4,0.4c-0.7,0.2-1.1,0.3-1.5,0.4c-0.6,0.2-1.1,0.2-1.5,0.3c-0.5,0.1-0.9,0.2-1.2,0.3
		c-0.6,0.1-0.9,0.2-1.3,0.3c-0.6,0.1-0.9,0.2-1.3,0.2c-0.5,0.1-0.9,0.2-1.2,0.2c-0.4,0.1-0.7,0.1-1.1,0.2c-0.5,0.1-0.8,0.1-1.1,0.2
		c-0.7,0.1-1.3,0.2-1.9,0.2c-0.4,0-0.7,0.1-0.9,0.1c-0.4,0-0.6,0.1-0.8,0.1l-25.3-6.5c0.2,0,0.5,0,0.8-0.1c0.2,0,0.5-0.1,0.9-0.1
		c0.5-0.1,1.1-0.1,1.9-0.2c0.3,0,0.6-0.1,1.1-0.2c0.3,0,0.7-0.1,1.1-0.2c0.3-0.1,0.6-0.1,1.2-0.2c0.3-0.1,0.7-0.1,1.3-0.2
		c0.4-0.1,0.7-0.1,1.3-0.3c0.4-0.1,0.8-0.2,1.2-0.3c0.4-0.1,0.8-0.2,1.5-0.3c0.4-0.1,0.8-0.2,1.5-0.4c0.4-0.1,0.9-0.2,1.4-0.4
		c0.4-0.1,0.9-0.2,1.6-0.4c0.4-0.1,0.9-0.3,1.7-0.5c0.5-0.1,0.9-0.3,1.6-0.5c0.4-0.1,0.9-0.3,1.6-0.5c0.5-0.2,1-0.3,1.8-0.6
		c0.5-0.2,1-0.4,1.9-0.7c0.5-0.2,1-0.4,1.6-0.6c0.5-0.2,1.1-0.4,2-0.8c0.5-0.2,1.1-0.4,2-0.8c0.5-0.2,1.1-0.5,1.9-0.8
		c0.5-0.2,1-0.5,1.9-0.8c0.6-0.3,1.1-0.5,2.1-1c0.6-0.3,1.1-0.5,2.1-1c0.5-0.3,1.1-0.5,1.9-1c0.6-0.3,1.2-0.6,2.2-1.2
		c0.6-0.3,1.2-0.6,2.2-1.2c0.6-0.3,1.2-0.7,2.1-1.2c0.6-0.3,1.2-0.7,2.2-1.3c0.6-0.4,1.3-0.8,2.4-1.4c0.6-0.4,1.3-0.8,2.3-1.4
		c0.6-0.4,1.2-0.8,2.2-1.4c0.7-0.4,1.4-0.9,2.5-1.7c0.7-0.5,1.4-0.9,2.4-1.7c0.7-0.5,1.4-1,2.2-1.6c0.7-0.5,1.4-1,2.6-1.9
		c0.7-0.5,1.4-1.1,2.6-2c0.7-0.6,1.4-1.1,2.4-1.9c0.7-0.5,1.4-1.1,2.4-2c0.7-0.6,1.4-1.2,2.6-2.2c0.7-0.6,1.4-1.3,2.5-2.2
		c0.7-0.6,1.4-1.3,2.4-2.1c0.7-0.7,1.5-1.4,2.7-2.5c0.7-0.7,1.5-1.4,2.7-2.6c0.8-0.7,1.5-1.5,2.4-2.4c0.8-0.8,1.5-1.5,2.7-2.7
		c0.8-0.8,1.5-1.6,2.7-2.9c0.8-0.8,1.5-1.7,2.6-2.8c0.7-0.8,1.5-1.6,2.6-2.8c0.8-0.9,1.5-1.8,2.8-3.2c0.8-0.9,1.5-1.8,2.7-3.2
		c0.8-0.9,1.6-1.9,2.5-3c0.8-1,1.6-2,2.8-3.5c0.8-1,1.6-2,2.8-3.6c0.8-1,1.6-2.1,2.6-3.4c0.8-1.1,1.6-2.1,2.7-3.6
		c0.8-1.1,1.6-2.2,2.4-3.3c0.1-0.2,0.3-0.4,0.4-0.6c0.8-1.1,1.6-2.3,2.7-3.9c0.8-1.1,1.5-2.3,2.5-3.8c0.8-1.2,1.6-2.4,2.4-3.7
		c0.1-0.2,0.3-0.5,0.4-0.7c0.8-1.2,1.6-2.5,2.7-4.3c0.8-1.3,1.6-2.6,2.5-4C920.1,157.3,897.1,103.3,897,103.6z"/>
</g>
<path class="st8" d="M683.3,24.6c0.2,0,0.4-0.1,0.5-0.1c-1.4,3.2-2.6,6.4-3.7,9.7c-0.3,0.9-0.6,1.8-1,2.8c-2,6-3.7,11.9-5.1,17.8
	c-0.4,1.8-0.8,3.6-1.2,5.4c-0.3,1.4-0.5,2.7-0.8,4c-0.3,1.8-0.6,3.6-0.9,5.4c-0.1,0.9-0.3,1.8-0.4,2.7c-0.4,2.7-0.7,5.3-1,7.9
	c0,0.4-0.1,0.9-0.1,1.3c-0.8,7.8-1.2,15.5-1.2,22.9c0,0.4,0,0.8,0,1.3c0,1.2,0,2.4,0,3.6c0,1.3,0.1,2.4,0.1,3.5
	c0.1,1.4,0.1,2.4,0.1,3.5c0.5,8.9,1.3,16.9,2.4,24.4c0.1,0.9,0.2,1.4,0.3,2c0,0.2,0,0.3,0.1,0.5c0.1,0.5,0.2,1,0.2,1.4
	c0,0.2,0.1,0.4,0.1,0.6c0.4,2.5,0.9,5,1.3,7.4c0.2,0.8,0.3,1.7,0.5,2.5c0.2,0.9,0.4,1.8,0.6,2.6c0.2,0.9,0.4,1.8,0.6,2.7
	c1,4.4,2,8.4,3,12l-5.4,8c-45.7-19.8-67.3-15.8-71.1-15.9c-5.5,2.6-5.6,2.6-5.7,2.7c-0.5,0.4-0.7,0.5-1,0.7
	c-2.4,1.5-2.6,1.6-2.7,1.7c9.4-57.5,27.1-86,28-87.5c30.5-36.3,48.2-49,53.1-52.3c0.3-0.2,0.5-0.3,0.8-0.5s0.5-0.3,0.8-0.5
	s0.4-0.3,0.6-0.4c0.1-0.1,0.3-0.2,0.4-0.3c0.3-0.2,0.5-0.3,0.6-0.4c0.3-0.2,0.4-0.2,0.6-0.3c0.2-0.1,0.4-0.2,0.6-0.3
	c0.3-0.2,0.5-0.3,0.6-0.3c0.2-0.1,0.4-0.2,0.5-0.3c0.3-0.1,0.4-0.2,0.6-0.3c0.3-0.1,0.5-0.2,0.6-0.3c0.2-0.1,0.3-0.2,0.5-0.2
	c0.3-0.1,0.4-0.2,0.6-0.3c0.2-0.1,0.4-0.2,0.5-0.2c0.2-0.1,0.4-0.1,0.5-0.2c0.2-0.1,0.4-0.1,0.5-0.2c0.2-0.1,0.3-0.1,0.5-0.1
	C683.1,24.7,683.2,24.7,683.3,24.6z"/>
<g>
	
		<ellipse transform="matrix(0.7744 -0.6327 0.6327 0.7744 -229.3619 702.3722)" class="st0" cx="870.2" cy="672.8" rx="43.3" ry="8.7"/>
	<path class="st9" d="M874.5,680.5c0.4-0.3,0.8-0.7,1.3-1c18.5-15.1,31.1-30.4,28-34.2c-2.9-3.5-18.4,4.4-35.6,17.9
		C867,664.2,868.4,666.7,874.5,680.5z"/>
	<g>
		<path class="st10" d="M847.4,616.7c10.7,15.6,26.2,33.1,32.6,40.2c1.8,2,2.2,4.9,1,7.3l-4.4,9c-0.5,1-1.2,1.8-2,2.6l0,0l-2.2,1.9
			l-31.1-48.8l-4.7-3.3l7.3-6.1L847.4,616.7z"/>
	</g>
	<g>
		<path class="st11" d="M836.7,625.6l4.7,3.3l31.1,48.8l-13.9,5.7c-3,1.2-6.4,0.1-8.1-2.7c-4.8-7.9-15.2-24.5-29.2-42.4l12.3-10.1
			L836.7,625.6z"/>
	</g>
	<path class="st0" d="M861.4,716.9c-6,1.7-12.3-0.5-16.1-5.4l-9-11.7c0,0,5.8,7.5,45-24.9l12.4,20.4l4.9-0.4l2.9,3.2l10,27.6
		l24,27.6l-4.3,5.6l14.8,9.2l9.3,26.6c0,0-5.8,2.3-9.4,1.1c-3.6-1.3-10.8-3.8-10.8-3.8l-3.8,2.6l-7.8-10.5l-2-17l-29.8-35.6
		l-26.4-15.8L861.4,716.9z"/>
	<path class="st9" d="M955.3,794.8c0,0,9-5.2,8.2-13.2c-0.8-7.9-1.2-11.8-1.2-11.8l3.4-4.9l-7.8-10l-14.4-4.8l-24-38.1l-9.1-34.8
		l2.8-5.5c2.7-5.3,2.1-11.7-1.6-16.3l-7.9-10.1c0,0,5.9,3.6-22.5,29.5l12.4,20.4l4.9-0.4l2.9,3.2l10,27.6l24,27.6l-4.3,5.6l14.8,9.2
		L955.3,794.8z"/>
	<path class="st12" d="M764.3,541L373.7,6.3l14.2,4.8L793.8,516l81.8,61.3c3.9,2.9,5.2,8.1,3.3,12.5c-7,15.8-15.7,28.8-25,39.5
		L764.3,541z"/>
	<path class="st13" d="M774.4,676.9c16-3.7,51-15.1,79.4-47.7L764.3,541L382,16.3l-8.8-11.1l1.6,18.3l352.7,547.3l35.3,99.9
		C764.5,675.4,769.4,678.1,774.4,676.9z"/>
	<path class="st14" d="M407.8,74.6c7.7-3.1,14.5-7.9,18.3-15.9c-6.7-8.7-7.9-10.3-18.3-22.8c-2,7.3-9.1,11.3-15.6,14.4L407.8,74.6z"
		/>
	<path class="st15" d="M407.8,74.6c4.3-1.7,8.3-4,11.6-7c-7.6-10.1-11.3-15.5-17.1-23.5c-3,2.6-6.7,4.5-10.2,6.2L407.8,74.6z"/>
	<path class="st14" d="M374.8,23.4c0,0,11.8-3.3,13-12.3L371.3,0.3c0,0-2.8-1.5-2.6,2L374.8,23.4z"/>
	<path class="st15" d="M369.5,0.1c-0.4,0.2-0.8,0.8-0.8,2.1l6.1,21.1c0,0,5-1.4,8.9-4.9C383.7,18.5,371,1.2,369.5,0.1z"/>
	<path class="st14" d="M792.8,514.8c0,0-13.4,41-65.3,56.2l-14.4-22.7c0,0,39.8-6.9,62.5-54.9L792.8,514.8z"/>
	<path class="st15" d="M770.5,547c-9.9,9.3-23.8,18.4-43,24l-14.4-22.7c0,0,20.1-3.5,39.9-22.8C757.9,532.2,765.9,541.9,770.5,547z"
		/>
	<path class="st14" d="M722.3,427.1c-5.4,11.1-20.9,35.8-56.2,48.4c-6.2-9.3-11.3-17.3-14.5-22.4c11.7-4,36.2-15.8,53.2-47.6
		C711,413.1,716.8,420.2,722.3,427.1z"/>
	<path class="st15" d="M701.3,454.7c-8.6,7.8-20.1,15.4-35.1,20.8c-6.2-9.3-11.3-17.3-14.5-22.4c7.6-2.6,20.5-8.5,33.3-20.9
		C689.7,437.8,695.5,446.3,701.3,454.7z"/>
	<path class="st14" d="M665.2,356.1c-6.9,11.8-21.6,30.4-49.3,41.5c-5.3-7.8-10.6-16.1-14.4-22.4c11.8-4.8,31.3-16.1,46.2-40.9
		C653.1,340.6,660.5,350,665.2,356.1z"/>
	<path class="st15" d="M646.3,379c-7.7,6.8-17.7,13.5-30.4,18.6c-5.3-7.8-10.6-16.1-14.4-22.4c7.4-3,17.8-8.5,28.1-18.3
		C635.2,364.1,639.2,369.3,646.3,379z"/>
	<path class="st14" d="M558.1,222.8c-7.1,9.6-18.3,21.1-35.5,29.8c-4.1-5.6-11.3-16.9-14.6-22.6c9.8-5.3,21.9-14.3,32.5-29.1
		C546.8,208.8,550,212.8,558.1,222.8z"/>
	<path class="st15" d="M544.1,238.1c-5.8,5.2-13,10.2-21.6,14.5c-4.1-5.6-11.3-16.9-14.6-22.6c5.9-3.2,12.7-7.8,19.5-14.1
		C532.6,222.3,539.9,232.8,544.1,238.1z"/>
	<path class="st14" d="M510.9,164.2c-6.5,8.2-16,17.3-29.4,24.8c-3.2-4.8-12.4-18.9-14.6-22.7c8.3-5,17.8-12.6,26.5-23.9
		C498.3,148.5,506.5,158.6,510.9,164.2z"/>
	<path class="st15" d="M499,176.7c-4.9,4.3-10.7,8.5-17.4,12.2c-3.2-4.8-12.4-18.9-14.6-22.7c5-3,10.3-6.9,15.7-12
		C486.6,159.4,493.6,169.4,499,176.7z"/>
	<path class="st14" d="M463,104.5c-5,7.4-13.1,14.2-23.3,19.4c-4.8-6.6-11-17.2-14.7-22.8c9.3-4.3,16.1-9.8,20.6-18.3
		C450.5,88.8,458.5,98.7,463,104.5z"/>
	<path class="st15" d="M453.7,114.7c-4,3.4-8.8,6.6-14.1,9.3c-4.8-6.6-11-17.2-14.7-22.8c5-2.3,9.3-5,12.9-8.3
		C442.7,99.4,449.1,108.4,453.7,114.7z"/>
	<path class="st14" d="M607.4,284.2c-7.4,11-20.5,25.2-42.2,34.8c-6.5-9.9-10.1-15.5-14.4-22.5c11-5.2,26.3-15.2,39-34.2
		C595.7,269.2,602.2,277.5,607.4,284.2z"/>
	<path class="st15" d="M590.5,303.1c-6.7,5.8-15.1,11.4-25.3,15.9c-6.5-9.9-10.1-15.5-14.4-22.5c6.7-3.2,15-8.1,23.3-15.8
		C581.5,290.7,584.5,294.9,590.5,303.1z"/>
</g>
<g>
	<g>
		<path class="st16" d="M343.3,515l22.8,213.5c-14.9-6.8-28.4-14.1-40.7-21.8c-0.2-0.1-0.4-0.2-0.5-0.3c-0.5-0.3-0.8-0.5-1.1-0.7
			c-4.1-2.6-8-5.2-11.8-7.8l-13.7-120.5l20.4-28.2L343.3,515z"/>
	</g>
	<g>
		<path class="st4" d="M472.4,278.4l5.6,50.1l-42.8,59.3L390,450.3L343.3,515l-24.7,34.2l-67,92.8c-48.2-60.6-49.4-115.6-49.5-118.5
			l-25.2-228.3c126.1-3.4,144-32.3,145-33.9c0.6,0.7,12.5,13.8,63.2,18.2C406.6,281.4,435.1,281.6,472.4,278.4z"/>
	</g>
	<g>
		<path class="st15" d="M375.1,358.5l-5.5-2.1l4.3,9.3l-5.5,9.1l-1.2-8l-2.9,7.7l-9.5,3.8l0.3-8.5l-9.8,6.4l-9.2-3.4
			c-0.2,0-3.5-0.3-6,3.4l-0.3,5.6l3.2,4.6l8.6-5.5l8.9,4.1l3.5,11.5l-4.9,1.2l-4.9-5l-7.5,6l5,0.4l3.7,7.2l-5.8,5.4l-1.3-6l-2.6-0.2
			L334,409l-2.8,26.7l3.5,2l10.1,8.5l2.2,10.6l5-0.8l2.2,4.9L351,468l-11.4-1l0.2-8.6l-5-6.1l-9.9,1.1l0.2,13.9l-4.7,5.3
			c0,0.1-0.9,1.9,1.1,3.3l-0.6,3.4l-12.2,0.9V474l4.9-4l0.2-6.4l-3.9-5.8l-9.5-0.8l-6.3-8.5l-1.5-13l-15.1-0.6l-14.2-9.7l-9.3-15.1
			l3.5-0.4l-3.5-3.5l-9.5,5.8l-7.1-1.4l9.9-12l-9.9,3.3l-10.8-11.8l8.4,0.5l6-6.1l-6.9-5.3l12.1-4.6l7.1,2.1l-3.7-4.8l14.9,0.6
			l13.2,8.1l11,16.8l2.8,13.6l-4.3,3.6l1.1,8l5,6.1l6.5-11.8l-0.7-9.2l-2.8-2.2l-8.2-19.5l1.7-6l-11.4-5.2v-7.9l-4.5,4.3l-9.5-12
			l8.4,1.2l10.3-11.2l-5-0.2l5.8-10.1l-4.7-0.9l9.1-6.6l-2.4-6.6l7.8,3.2l3.4-23.4l11.5-9.1l2.6,17.7l43.4-2.1l5.2-6.1l5.8,4.3v22.6
			l-4.9,7.2l-25.6,3l2,4.5l25.3-2.1l5.2-4.5l5.5,6.7L375.1,358.5z M313.4,337.4c2.2,0.2,4-1.7,4-4.3c0-2.6-1.8-4.8-4-5
			s-4.1,1.7-4.1,4.3C309.3,335,311.2,337.2,313.4,337.4"/>
	</g>
	<g>
		<path class="st14" d="M251.6,642l67-92.8l-20.4,28.2l13.7,120.5C286.3,680.2,266.6,661,251.6,642z"/>
	</g>
	<g>
		<path class="st14" d="M343.3,515l46.8-64.7l28.3,249.8c-12.8,11.1-27.5,21.7-44.4,32c-8.1-3.5-15.9-7.2-23.3-11
			c5,2.6,10.1,5.1,15.4,7.5L343.3,515z"/>
	</g>
	<g>
		
			<linearGradient id="SVGID_3_" gradientUnits="userSpaceOnUse" x1="329.0745" y1="465.0017" x2="393.0745" y2="-39.9981" gradientTransform="matrix(1 0 0 -1 0 796)">
			<stop  offset="0" style="stop-color:#C6C6C6"/>
			<stop  offset="1" style="stop-color:#8899AD"/>
		</linearGradient>
		<path class="st17" d="M532,498l-28.2-255.5c-46,4-81,3.7-107.5,1.4c-62.5-5.5-77.1-21.6-77.9-22.4c-1.2,1.9-23.3,37.5-178.6,41.7
			l27.8,255.5c0.2,8.3,3.7,166.6,211.6,257C564.9,662.9,533.6,506.2,532,498z M373.9,732.1c-18-7.8-34.1-16.3-50.2-26.4
			c-4.1-2.6-8-5.2-11.8-7.8c-25.6-17.8-45.3-37-60.4-55.9c-48.2-60.6-49.4-115.6-49.5-118.5l-25.2-228.3
			c126.1-3.4,144-32.3,145-33.9c0.6,0.7,12.5,13.8,63.2,18.2c21.5,1.9,50,2.1,87.3-1.2l5.6,50.1l19.9,178.2
			C499.3,513.4,524.7,640.6,373.9,732.1"/>
	</g>
	<g>
		<path class="st16" d="M435.2,387.8l27.9,263c-12.8,18.6-27.7,34.7-44.8,49.3L390,450.3L435.2,387.8z"/>
	</g>
	<g>
		<path class="st14" d="M497.9,506.7c0.5,2.9,1.6,7.4,2.2,18.9c2.2,43.8-11.7,88.9-37,125.2l-27.9-263l42.8-59.3L497.9,506.7z"/>
	</g>
	<g>
		<path class="st18" d="M263.2,248.9l-2.7,0.7c0,0-3.9,0.9-10.5,2.4c35-10.9,42.4-22.9,43.1-24l25.3-6.5
			C317.6,222.7,308.6,237.2,263.2,248.9z"/>
	</g>
	<path class="st18" d="M167.6,518.7l-27.8-255.5l-25.3,6.5l27.8,255.5c0.2,8.3,3.7,166.6,211.6,257l25.3-6.5
		C171.2,685.3,167.7,527,167.6,518.7z"/>
</g>
<g>
	<path class="st15" d="M170.4,418.7l-25.3,6.5c-0.9,0.2-1.8,0.5-2.7,0.8c-0.7-4.3-2.6-8.4-5.5-11.6c-3.2-3.5-7.3-5.7-11.5-6.1
		c-1.4-0.1-2.9,0-4.2,0.2l-4,0.8c-0.8,0.2-1.5,0.4-2.2,0.6c-1,0-2,0-3,0.2c-13.9,2.2-37.1,4.8-49.6,5.1c-1.2,0-2.3,0.2-3.4,0.5h0.1
		l-25.3,6.5c-4.9,1.3-8.9,5-10.9,10.3l-12.2,32.1c-2.5,6.7-1.5,14.6,2.7,20.6c3.3,4.8,8.1,7.8,13.2,8.2c0.6,0,1.1,0.1,1.7,0.1
		l-3.9,15c-0.5,1.9-0.7,3.9-0.7,5.8l-1.2,0.3c-5.1,1.3-9.4,5.4-11.3,11.2L1,557.5c-1.9,5.9-1.1,12.8,2.1,18.4
		c3.2,5.5,8.5,9.1,14.2,9.6c8.9,0.7,38,1.6,53.4-1.5c0.3-0.1,0.6-0.1,1-0.2l25.3-6.5l0,0c4-1,9.4-3.8,19.8-14.1
		c7.6,2.6,17,3.9,22,4.4c6,0.5,11.2,0.4,15.4-0.5c0.5-0.1,0.9-0.2,1.4-0.3l25.3-6.5l0,0c4.8-1.2,10-3.8,15-7.1l-5.7,15
		c-2.6,6.7-1.5,14.7,2.8,20.9c1.7,2.4,3.8,4.4,6.2,5.8c-0.6,5.8-0.9,12-0.9,17.4c0,9.6,1.3,24,4.1,32.7c1.7,5.5,5.4,10.1,10.1,12.5
		c7.1,3.6,16.5,6,28.1,7c9,0.8,18.9,0.7,27.1-0.4c0.6-0.1,1.2-0.2,1.8-0.3l18-4.6c0.4,0.1,0.8,0.1,1.2,0.1c1.7,0.1,3.4,0,5-0.4
		l25.3-6.5c-0.2,0-0.3,0.1-0.5,0.1c1.2-0.3,2.5-0.7,3.6-1.3c1.1,0.3,2.2,0.6,3.3,0.7c1.7,0.1,3.4,0,5-0.4l25.3-6.5
		c-0.2,0-0.4,0.1-0.6,0.1c1.2-0.3,2.4-0.7,3.5-1.2c1.1,0.3,2.1,0.5,3.2,0.6c1.7,0.1,3.4,0,5-0.4l25.3-6.5c-0.2,0-0.3,0.1-0.5,0.1
		c0.7-0.1,1.4-0.3,2-0.6c0.8,0.2,1.7,0.4,2.5,0.4c1.7,0.1,3.4,0,5-0.4l25.3-6.5c-0.2,0-0.3,0.1-0.5,0.1c2-0.4,4-1.3,5.7-2.6l8.7-6.6
		c2.9,0.5,5.9,0.9,9,1.2c8.3,0.7,17.1,0.5,26.2-0.7c0.6-0.1,1.1-0.2,1.7-0.3l25.3-6.5c-0.1,0-0.1,0-0.2,0c5.3-1.3,9.7-5.6,11.5-11.5
		l7.1-22.7c0.7-2.2,1.1-4.4,1.1-6.8c0-4.1-1.1-8-3-11.4c3.4-4.1,4.9-10.1,4-16.2c-0.5-3-1.8-18.7-2-25.1c-0.3-7.2-4-14-9.7-17.7
		s-14.9-5.7-21-6.5c0.9-0.4,1.7-0.9,2.5-1.5l3.3-2.4c2.2,1.4,4.7,2.2,7.2,2.4c1.7,0.1,3.4,0,5-0.4l25.3-6.5c-0.2,0-0.4,0.1-0.6,0.1
		c2-0.4,3.8-1.2,5.5-2.5l3.8-2.7c0.4,0.2,0.8,0.5,1.2,0.7c2,1.1,4.1,1.7,6.2,1.9c1.7,0.1,3.4,0,5-0.4l11-2.8c-1.2,5.7-0.1,12,3.1,17
		c3.2,5.1,8.3,8.4,13.6,8.9c0.6,0.1,1.2,0.1,1.9,0c1.8-0.1,5.1,0,9,0c10.9,0.1,23.2,0.2,30.7-1.3c0.4-0.1,0.7-0.2,1.1-0.3l25.3-6.5
		l0,0c4.6-1.2,12-4.6,27.6-17.9c1.7-1.4,16.5-14.1,21.3-21c2.2-3.2,3.5-7.3,3.5-11.6c0-2.2-0.3-5-0.9-11.6c-0.9-9.2-2.2-23-2.2-32.3
		c0-6.9,0.2-20.8,0.4-33.1c0.2-10.8,0.4-21,0.4-25.6c0-8-4.1-15.5-10.6-19.1c-7.6-4.3-23.3-6-28-6.4c-7.3-0.6-12.9-0.5-17.1,0.3
		c-1.1,0.2-2.3,0.6-3.5,1c0.8-0.3,1.6-0.5,2.3-0.7l-25.3,6.5c-7.2,1.9-16.6,7.6-24.9,14c-6.1-2.5-13.4-4.6-19.6-5.1
		c-3.1-0.3-5.8-0.2-8.3,0.3c-0.4,0.1-0.9,0.2-1.4,0.3c0.1,0,0.2,0,0.3-0.1l-25.3,6.5c-0.1,0-0.2,0.1-0.3,0.1
		c-0.7-0.2-1.5-0.3-2.2-0.4c-2-0.2-4,0.1-5.9,0.7c0.3-0.1,0.6-0.2,0.9-0.3l-11.2,2.9c-2.5-8.4-5.2-13-11.9-19.1
		c-6-5.6-14.7-10.5-22.1-11.5c-2.7-0.2-6.9,0.9-9.4,2.1c-19,5.6-27.1,17.2-33.9,31.5c-2.6-2-3.8-7.3-6.8-7.5c-1.9-0.2-3.8,0-5.6,0.6
		c0.2-0.1,0.4-0.1,0.6-0.2l-25.3,6.5c-1.5,0.4-2.9,1-4.2,1.8L372.9,371c-3.7,2.3-6.2,6.1-7.4,10.6c-6.7,0-12.7,0.2-18.1,1.3
		c-0.8,0.2-1.5,0.3-2.3,0.6c0.2-0.1,0.5-0.1,0.7-0.2l-25.3,6.5c-5,1.3-10.6,4-16.8,8.2c-2.7-2.2-5.9-3.5-9.1-3.8
		c-1.7-0.2-3.5,0-5.1,0.4h0.1l-25.3,6.5c-1.8,0.5-3.4,1.2-5,2.4l-2.7,1.9c-2.1-1.2-4.4-1.9-6.7-2.1c-1.8-0.2-3.5,0-5.1,0.4
		c0.1,0,0.1,0,0.2,0l-25.3,6.5c-1.8,0.5-3.5,1.3-5.1,2.4l-11.1,8.1c0,0-12.6-0.7-16.3-1.3c-6-1-7.5-0.9-11.5-0.8L170.4,418.7z
		 M179.6,560.5L179.6,560.5L179.6,560.5L179.6,560.5z M563.4,339.2c0.2-0.1,0.4-0.1,0.5-0.2C563.7,339.1,563.6,339.2,563.4,339.2z
		 M562.6,339.5c0.2-0.1,0.4-0.1,0.6-0.2C562.9,339.4,562.7,339.4,562.6,339.5z M530.5,345.9c-0.4,0.1-0.7,0.3-1.1,0.4
		C529.8,346.2,530.1,346,530.5,345.9z M429.7,511.1l8.3-2.1c-1.7,1-3.5,2.1-5.2,3.2C431.8,511.8,430.8,511.4,429.7,511.1z
		 M443.6,517.2L443.6,517.2L443.6,517.2L443.6,517.2z M460.7,501.1c2.1-2,3.7-4.6,4.7-7.7l1.8-5.9c1,1.3,2,2.7,3,4
		c2,2.5,4.3,4.3,6.9,5.5c-0.4,0.1-0.8,0.1-1.2,0.2c-0.5,0.1-1.1,0.3-1.6,0.4c0.1,0,0.3-0.1,0.4-0.1L460.7,501.1z M430.3,344.6
		c-0.2,0.1-0.5,0.2-0.7,0.3C429.8,344.8,430.1,344.7,430.3,344.6z M429.2,345c-0.3,0.1-0.6,0.3-0.8,0.4
		C428.7,345.3,428.9,345.2,429.2,345z M386.9,506.5c8.6,2.9,17.7,4.2,23,4.8c-2.8,1.3-6.6,3.7-12,8.1c-4.3-1.4-8.5-2.4-12-2.7
		c-2.7-0.2-5.1-0.1-7.3,0.3c-3.1,0.6-7,2.1-13.9,7.7c-0.9-0.6-1.8-1.1-2.7-1.5C370.8,520,379.9,513,386.9,506.5z M343.7,383.8
		c0.4-0.1,0.7-0.2,1.1-0.3C344.4,383.6,344.1,383.7,343.7,383.8z M285.8,396.2c0.2-0.1,0.3-0.2,0.5-0.3
		C286.2,396,286,396.1,285.8,396.2z M287,395.5c0.2-0.1,0.4-0.2,0.5-0.2C287.4,395.4,287.2,395.4,287,395.5z M288.3,395
		c0.2-0.1,0.4-0.1,0.6-0.2C288.7,394.9,288.5,394.9,288.3,395z M239.9,406L239.9,406L239.9,406L239.9,406z M244.1,403.9
		c-0.2,0.1-0.4,0.1-0.6,0.2C243.8,404,244,403.9,244.1,403.9z M242.9,404.4c-0.2,0.1-0.4,0.2-0.5,0.2
		C242.5,404.5,242.7,404.4,242.9,404.4z M241.6,405c-0.2,0.1-0.3,0.2-0.5,0.3C241.2,405.2,241.4,405.1,241.6,405z M220.1,531.6
		c1.6,1.4,3.4,2.7,5.3,4.2l-12,3.1C216,536.3,218.2,533.8,220.1,531.6z M314.1,652.5c0.3,0,0.7,0,1,0
		C314.8,652.6,314.5,652.5,314.1,652.5z M317,652.4c0.2,0,0.5-0.1,0.7-0.1C317.5,652.4,317.3,652.4,317,652.4z M315.7,652.5
		c0.3,0,0.5,0,0.8,0C316.2,652.5,315.9,652.5,315.7,652.5z M351,645.1c0.3,0,0.5,0,0.8,0C351.5,645.1,351.3,645.1,351,645.1z
		 M353.6,645c0.2,0,0.5-0.1,0.7-0.1C354.1,645,353.9,645,353.6,645z M352.4,645.1c0.2,0,0.5,0,0.7,0
		C352.8,645.1,352.6,645.1,352.4,645.1z M387.1,637.7c0.4,0,0.8,0,1.1,0C387.8,637.8,387.5,637.8,387.1,637.7z M390.1,637.7
		c0.3,0,0.5-0.1,0.8-0.1C390.6,637.6,390.3,637.6,390.1,637.7z M388.7,637.8c0.3,0,0.6,0,0.8,0C389.2,637.7,389,637.7,388.7,637.8z
		 M421.2,630.8c0.4,0,0.8,0.1,1.2,0.1C422,630.8,421.6,630.8,421.2,630.8z M424.3,630.7c0.2,0,0.5-0.1,0.7-0.1
		C424.8,630.6,424.6,630.7,424.3,630.7z M422.9,630.8c0.3,0,0.6,0,0.8,0C423.5,630.8,423.2,630.8,422.9,630.8z M528.8,489.2
		c0.3,0,0.5,0,0.8,0C529.4,489.2,529.1,489.2,528.8,489.2z M531.5,489.1c0.2,0,0.5-0.1,0.7-0.1C532,489.1,531.7,489.1,531.5,489.1z
		 M530.2,489.2c0.2,0,0.5,0,0.7,0C530.7,489.2,530.5,489.2,530.2,489.2z"/>
	<g>
		<path class="st4" d="M701.8,438.8c-0.9-9.2-2.2-23-2.2-32.3c0-6.9,0.2-20.8,0.4-33.1c0.2-10.8,0.4-21,0.4-25.6
			c0-8-4.1-15.5-10.6-19.1c-7.6-4.3-23.3-6-28-6.4c-7.3-0.6-12.9-0.5-17.1,0.3c-11.9,2.4-30.7,16.9-40.5,26.9
			c-0.7-0.6-1.5-1.2-2.3-1.8c-6-3.9-18.5-8.5-28.2-9.4c-3.1-0.3-5.8-0.2-8.3,0.3c-3.8,0.8-8.8,2.8-18.8,11.1
			c-2.9-2.7-6.5-4.3-10.1-4.7c-3.4-0.3-6.6,0.5-9.4,2.4l-6.4,4.3c-0.4-8.8-4.7-17.5-12.4-24.6c-6-5.6-13.4-9.3-20.8-10.3
			c-2.7-0.2-5.5,0.3-7.9,1.5c-0.8,0.4-1.7,0.9-2.7,1.5c-4.8,1.1-25.1,18.4-25,35.2c-1.4-3.7-3.8-6.3-7-8.7c-2.6-2-5.7-3.2-8.8-3.5
			c-1.9-0.2-3.8,1-5.6,1.6c-1.3,0.4-2.5,0.9-3.6,1.7L398,364.4c-5.1,3.2-8.1,9.3-8.1,16.1c-0.7,0.5-1.3,1-1.9,1.6
			c-0.6-0.1-1.1-0.2-3.4-0.3c-3.9,0-7.7-0.1-11.4-0.1c-9.9-0.2-18.5-0.4-25.9,1.1c-6.8,1.4-14.7,5.5-24.1,12.7
			c-2.2,1.7-8.4,6.5-12.6,11.2c-1.4-2.4-2.8-4.5-4.4-6.3c-3.2-3.7-7.4-5.9-11.7-6.3c-3.6-0.3-7,0.6-10,2.8l-21,15.2
			c-0.5-0.7-1-1.4-1.5-2c-3.3-4-7.6-6.5-12.2-6.9c-3.6-0.3-7.1,0.7-10.1,2.8l-23.4,17.2c-0.6,0.4-1.1,0.9-1.7,1.4
			c-7.8-4.1-21.2-6.2-27.5-6.7c-6-0.5-11.2-0.4-15.5,0.5c-7.2,1.5-15.8,6.2-25.3,14.1c-1.5,1.2-3,2.5-4.4,3.8
			c0.1-1.3,0.3-2.6,0.4-3.9c0.8-6.5-1.3-13.2-5.6-17.9c-3.2-3.5-7.3-5.7-11.5-6.1c-1.4-0.1-2.9,0-4.2,0.2l-4,0.8
			c-0.8,0.2-1.5,0.4-2.2,0.6c-1,0-2,0-3,0.2c-13.9,2.2-37.1,4.8-49.6,5.1c-6.3,0.2-11.7,4.3-14.2,10.8l-12.2,32.1
			c-2.5,6.7-1.5,14.6,2.7,20.6c3.3,4.8,8.1,7.8,13.2,8.2c0.6,0,1.1,0.1,1.7,0.1l-3.9,15c-0.5,1.9-0.7,3.9-0.7,5.9
			c-5.7,0.9-10.5,5.2-12.5,11.5l-10,31.5c-1.9,5.9-1.1,12.8,2.1,18.4c3.2,5.5,8.5,9.1,14.2,9.6c8.9,0.7,38,1.6,53.4-1.5
			c4.4-0.9,10.4-3.6,23.8-17.3c3-3.1,6.8-7.1,10.2-11.1c1.5,1.9,3.3,3.4,5.2,4.6c7.5,4.5,22.2,6.8,28.8,7.4c6,0.5,11.2,0.4,15.4-0.5
			c14.2-2.9,31.9-18.5,40.5-28.9c1.6,1.4,3.4,2.7,5.3,4.2l-9.9,25.7c-2.6,6.7-1.5,14.7,2.8,20.9c1.7,2.4,3.8,4.4,6.2,5.8
			c-0.6,5.8-0.9,12-0.9,17.4c0,9.6,1.3,24,4.1,32.7c1.8,5.5,5.4,10.1,10.1,12.5c7.1,3.6,16.5,6,28.2,7c9,0.8,18.9,0.7,27.1-0.4
			c5-0.6,9.3-3.8,11.8-8.6c2.7,2.2,5.8,3.5,9.1,3.8c3.6,0.3,7.1-0.7,10.1-2.8l15.3-10.5c3.1,3.4,7.2,5.5,11.3,5.9
			c3.6,0.3,7-0.6,10-2.8l14.8-10.7c1.1,1.1,2.4,2.2,3.7,3.1c2.5,1.7,5.2,2.7,8,2.9c3.7,0.3,7.2-0.7,10.2-2.9l12.8-9.6
			c1.3,1.2,2.6,2.2,3.9,3c2.3,1.4,4.8,2.3,7.4,2.5c3.7,0.3,7.2-0.7,10.2-2.9l17.9-13.4c1.2-0.9,2.2-1.9,3.2-3.1
			c6.6,2.4,13.9,4,21.9,4.7c8.3,0.7,17.1,0.5,26.2-0.7c6-0.8,11-5.3,13-11.8l7.1-22.7c0.7-2.2,1.1-4.4,1.1-6.8c0-4.1-1.1-8-3-11.4
			c3.4-4.1,4.9-10.1,4-16.2c-0.5-3-1.8-18.7-2-25.1c-0.3-7.2-4-14-9.7-17.7s-14.9-5.7-21-6.5c0.9-0.4,1.7-0.9,2.5-1.5l21.6-15.9
			c0.9,1.3,1.9,2.5,2.8,3.6c3.1,3.4,7.2,5.5,11.3,5.9c3.6,0.3,7-0.6,10-2.8l21.7-15.7c2.4,2.8,5.3,5.4,8.6,7.1
			c2,1.1,4.1,1.7,6.2,1.9c3.7,0.3,7.2-0.7,10.2-2.9l7.5-5.6l-1,3c-2.1,6.2-1.1,13.6,2.5,19.3c3.2,5.1,8.3,8.4,13.6,8.9
			c0.6,0.1,1.2,0.1,1.9,0c1.8-0.1,5.1,0,9,0c10.9,0.1,23.2,0.2,30.7-1.3c4.5-0.9,11.8-3.8,28.7-18.1c1.7-1.4,16.5-14.1,21.3-21
			c2.2-3.2,3.5-7.3,3.5-11.6C702.7,448.2,702.4,445.4,701.8,438.8z M477.1,497c-0.4,0.1-0.8,0.1-1.2,0.2c-10.3,2.1-24,12.1-32.4,20
			c-4.6-2.7-13.9-7.1-22.2-7.9c-2.5-0.2-4.9-0.1-7.1,0.3c-2.8,0.6-7.4,2.2-16.5,9.6c-4.3-1.4-8.5-2.4-12-2.7
			c-2.7-0.2-5.1-0.1-7.3,0.3c-3.1,0.6-7,2.1-13.9,7.7c-0.9-0.6-1.8-1.1-2.7-1.5c14.7-5.2,30-20.9,35.2-27.9c0.5-0.6,0.9-1.3,1.3-2
			c11.8,8.7,33.2,11.2,39.4,11.7c5,0.4,9.5,0.5,13.5,0.3c6.5-0.4,11.9-5,14-11.9l1.8-5.9c1,1.3,2,2.7,3,4
			C472.2,494,474.6,495.8,477.1,497"/>
	</g>
	<g>
		<g>
			<path class="st3" d="M646.7,366.8c0.4-0.1,0.9-0.1,1.4,0c2.4,0.2,5.9,1.4,6.9,2.3v47.7c-3.2,2-7.3,4.3-8.5,4.5
				c-0.2,0-0.6,0.1-0.9,0c-2.1-0.2-5.9-1.6-6.9-2.4c-1.3-6.3-1.7-14.7-1.7-21.2c0-7.5,0.2-19,1.3-26.2
				C639.9,370.1,645,367.1,646.7,366.8z M646.5,409.9v-32.4l-0.1,0.1c-0.4,4.1-0.7,10.5-0.7,20.4c0,4.5,0.2,8.6,0.5,12.1
				C646.3,410,646.4,409.9,646.5,409.9"/>
		</g>
		<g>
			<path class="st3" d="M176.1,461.1c2.7,0.2,6.2,1.4,7.1,2.1c1.7,6.8,2.5,14.7,2.5,27c0,8.3-0.5,17.3-1.5,24.2
				c-1.5,1.3-4.8,3.8-6.7,4.1c-0.5,0.1-1.2,0.1-2,0c-2.7-0.2-6.3-1.4-7-2.2c-1.7-6.8-2.5-14.7-2.5-27c0-8.3,0.5-17.3,1.5-24.2
				c1.3-1.3,4.7-3.7,6.5-4.1C174.5,461,175.3,461,176.1,461.1z M176.1,507.8c0.6-5.5,0.9-12.2,0.9-18.8c0-7.6-0.3-13.4-1.1-18.4
				c-0.2,0.1-0.3,0.2-0.5,0.3c-0.6,5.5-0.9,12.3-0.9,18.8c0,7.6,0.3,13.4,1,18.3C175.8,508,175.9,507.9,176.1,507.8"/>
		</g>
		<g>
			<path class="st15" d="M125.4,428.7c-2.3,19.3-3.3,42-3.3,65.3c0,9.9,0.5,24.8,1.4,32.9c-5.2,8.2-25.7,30.1-31.6,31.3
				c-12.9,2.6-40.1,2-49.3,1.3l10.2-31.3c5.9,1.1,11.7,1.8,17.1,2.3c6.3,0.6,12.1,0.7,16.8,0.5v-27.3l-20.4,5.9l5.8-22.7l14.5-0.8
				v-15.8l15.4-10c-15.7,2-35.1,4.9-50.2,7.6L64,435.7c13.4-0.3,37.5-3,51.8-5.4c-2,11.7-3.3,34.9-3.3,50.9
				c0,10.7,0.2,24.9,0.7,36.8c2.2-1.8,4.3-3.4,6.2-5.2c-0.2-5.7-0.2-12.4-0.2-18.4c0-28.1,0.8-49,2.1-65.1L125.4,428.7z"/>
		</g>
		<g>
			<path class="st3" d="M693.2,439.1c0.6,6.1,0.8,8.9,0.8,10.6c0,2.1-0.6,4.2-1.7,5.8c-3,4.3-12.4,13.1-19.9,19.4
				c-17.6,14.9-23.4,16.1-25.3,16.5c-6.7,1.4-19.2,1.3-29.2,1.2c-3.9,0-7.3-0.1-9.3,0c-3.6-0.3-6.1-1.9-7.8-4.5
				c-1.8-2.9-2.3-6.5-1.3-9.6l9.7-28.7c-1.2-1.8-2.5-3.2-3.4-4.9c-0.2,2.7-1.4,5.2-3.5,6.7l-22.4,16.8c-1.5,1.1-3.3,1.6-5.1,1.5
				c-1-0.1-2.1-0.4-3.1-0.9c-4.9-2.6-8.5-8.1-10.7-12.2c-1.1,0.9-2.3,2.9-4.1,4.2l-23.6,17c-1.5,1.1-3.2,1.5-5,1.4
				c-2-0.2-4.1-1.2-5.7-2.9c-3.1-3.4-6-9.6-8.2-15.4c0.4,3.6-0.8,7.1-3.5,9l-23.4,17.2c-1.5,1.1-3.3,1.6-5,1.4
				c-2.2-0.2-4.5-1.4-6.1-3.5c-5.4-6.8-9.2-13.9-11.3-21l-7.9,25.4c-1.1,3.4-3.8,5.7-7,5.9c-3.6,0.2-7.8,0.1-12.4-0.3
				c-11.3-1-27.3-4.2-35.2-10.1c-2.8-2-4.4-5.6-4.3-9.2l1-46.8c-2.2,0.4-2.9,0.5-3.6,0.4c-2.2-0.2-4.4-1.4-6-3.3l-3.6,7
				c2.7,1.7,5.1,4.4,6.1,7.8c1.1,3.9,2.3,13.8,2.3,21.9c0,8.4-1,17.3-2.6,22.7c-0.3,1.1-0.8,2.1-1.5,3c-5.6,7.6-22.2,23.6-35.1,26.2
				c-5.8,1.2-14.9,1.2-24.6,0.8c4.9,4.2,8.5,10.1,8.5,16.2c0,1.7,0,6.8-7,15c0.7-0.4,1.6-1.3,2.6-2l17.5-11.6c1.5-1,3.1-1.4,4.7-1.2
				c2.7,0.2,5.3,1.9,7,4.7c11-8.7,14.9-9.5,16.6-9.8c1.5-0.3,3.2-0.4,5.2-0.2c4.3,0.4,9.6,2,14.1,3.8c5.8-5,12.3-10,16.5-10.8
				c1.5-0.3,3.2-0.4,5-0.2c7.1,0.6,15.6,4.8,19.1,6.9c1.6,1,2.9,2.5,3.8,4.2c6-7.2,23.1-21.3,33.8-23.4c2.5-0.5,5.6-0.6,9.2-0.3
				c6.5,0.6,15.7,2.7,20,5.5c2.8,1.8,4.7,5.2,4.8,8.9c0.3,6.5,1.6,22.7,2.2,26.4c0.7,4.5-1.3,8.7-4.8,10.3l-12.6,5.7
				c1.9-0.2,3.7-0.5,5.5-0.8c0.5-0.1,1.1-0.1,1.6-0.1c5.4,0.6,9.1,5.3,9.1,10.7c0,1.2-0.2,2.4-0.6,3.5l-7.1,22.9
				c-1,3.2-3.5,5.5-6.5,5.9c-8.6,1.1-16.8,1.4-24.6,0.7c-10.3-0.9-19.3-3.4-26.6-7.3c-0.1,2.9-1.4,5.6-3.5,7.2l-17.9,13.4
				c-1.5,1.1-3.3,1.6-5.1,1.5c-1.3-0.1-2.5-0.5-3.7-1.3c-2.7-1.7-5-4.4-6.9-7.3l-18.6,14c-1.5,1.1-3.3,1.6-5.1,1.5
				c-1.4-0.1-2.7-0.6-4-1.5c-2.4-1.6-4.8-4.5-6.9-7.8c-0.5,0.6-1,1.2-1.7,1.6l-18.9,13.6c-1.5,1.1-3.2,1.5-5,1.4
				c-2-0.2-4.1-1.2-5.7-2.9c-1.7-1.9-3.4-4.7-4.8-7.7c-0.6,1.1-1.4,2.1-2.5,2.9l-18.7,13.8c-1.5,1.1-3.3,1.6-5,1.4
				c-2.2-0.2-4.5-1.4-6.2-3.5c-2.8-3.5-5.1-7.1-6.8-10.8l-2.8,12.4c-0.8,3.7-3.5,6.3-6.8,6.7c-7.7,1-17,1.1-25.5,0.3
				c-7.3-0.6-17.6-2.2-25.1-6.1c-2.3-1.2-4.2-3.5-5.1-6.2c-2.3-7.1-3.5-20.4-3.5-29.2c0-8.4,0.9-18.5,2.2-26c-1.6,0.3-2.3,0.3-3,0.3
				c-2.5-0.2-4.9-1.7-6.6-4c-2.1-3-2.7-7.1-1.4-10.4l9.9-25.7c1.3-3.3,4.1-5.4,7.4-5.3c2.9,0,6.6,0,10.7-0.2
				c-9.6-0.8-21.4-6.1-27.9-12.3c-2.2-2.1-3.5-5.1-3.5-8.2c0-2,0.1-4.7,0.1-7.8c-0.8,4.6-1.8,9-3,12.6c-0.3,0.9-0.7,1.7-1.2,2.4
				c-6,8.5-25,26.5-38.5,29.2c-3.5,0.7-8,0.8-13.3,0.4c-8.6-0.8-20.4-3.3-25.3-6.2c-2.2-1.3-3.9-3.6-4.7-6.3c-0.8-3-1.6-6.1-2.2-9.4
				c-0.2,1.3-0.7,2.5-1.3,3.6c-3.3,5.2-10.8,13.7-16.6,19.7c-13.6,13.9-18,14.8-19.9,15.2c-14.5,2.9-43.1,2.1-51.4,1.4
				c-2.9-0.3-5.5-2-7.1-4.8s-2-6.2-1.1-9.2l10.2-31.3c1.2-3.8,4.5-6.1,8.1-5.8c6.2,1.1,11.7,1.8,17.1,2.3c2.8,0.2,5.6,0.4,8.2,0.5
				v-4.5l-9.1,2.6c-0.9,0.3-1.8,0.3-2.7,0.3c-2.2-0.2-4.4-1.3-6-3.3c-2.3-2.7-3.2-6.6-2.3-10.1l5.8-22.7c1-3.7,3.8-6.3,7.2-6.4
				l7-0.4v-2.9c-8.4,1.3-16.8,2.6-24.2,3.9c-0.6,0.1-1.3,0.1-1.9,0.1c-2.5-0.2-4.9-1.7-6.6-4.1c-2.1-3-2.6-7-1.4-10.3l12.2-32.1
				c1.2-3.2,4-5.3,7.1-5.4c12.8-0.3,36.5-3,50.7-5.2c0.5-0.1,1.1-0.1,1.6-0.1c2.1-0.3,2.9-0.6,3.8-0.8l4-0.8
				c0.7-0.1,1.4-0.2,2.1-0.1c2.1,0.2,4.1,1.2,5.8,3c2.1,2.4,3.2,5.7,2.8,9c-1.5,12.7-2.5,27.8-3,44.4c0.8-5.5,1.9-10.7,3.2-14.8
				c0.3-1,0.8-1.9,1.3-2.6c3.4-4.7,9.8-11.2,16.4-16.6c5.9-4.9,14.6-11,22.1-12.5c3.6-0.7,8.1-0.9,13.4-0.4
				c8.5,0.7,20.3,3.3,25.2,6.2c2.2,1.3,3.9,3.6,4.7,6.3c2.1,7.3,3.6,15.4,4.4,23.6c-0.1-8.8-1.6-16.8-3-20.5
				c-1.6-4.4-0.4-9.3,2.9-11.8l23.4-17.2c1.5-1.1,3.3-1.6,5-1.4c2.2,0.2,4.4,1.4,6.1,3.4c2.4,2.9,4.6,7.3,6.5,11.8
				c0.4-2.4,1.6-4.5,3.5-5.9l23.6-17c1.5-1.1,3.2-1.5,5-1.4c2.1,0.2,4.2,1.3,5.9,3.1c4.6,5.3,9.2,17.2,11,24.3
				c0.5-5.1,1.4-9.1,2.1-11.9c0.3-1,0.7-1.9,1.2-2.8c2.3-3.7,9.7-9.8,13.7-12.9c8.3-6.4,15.4-10.2,21-11.3c6.7-1.4,14.9-1.2,24.3-1
				c3.8,0.1,7.6,0.2,11.6,0.2c2.8,0.2,4.6,1.2,6,2.6c0.8-3.3,3.2-5.7,6.2-6.3l1-5.9c-0.3-3.7,1.3-7.1,4-8.8l28.9-18.3
				c1.4-0.9,3-1.3,4.6-1.1c1.5,0.1,3,0.7,4.4,1.7c2.8,2.1,4.4,5.8,4.2,9.4c-0.2,3.5-0.3,7.9-0.5,12.7l13.1-3.7
				c0.7-0.2,1.5-0.3,2.3-0.3c3.7,0.4,6.2,2.3,7.7,5l4.1-2.6c-6.2-4.9-11-12.1-11-19.4c0-11.5,15-25.1,23-29.1c1.2-0.6,2.6-0.9,4-0.7
				c5.4,0.7,11,3.6,15.7,7.9c5.7,5.3,8.9,11.5,8.9,17.5c0,1.9,0,7.5-8.2,17.1c-0.5,0.5-0.9,1.1-1.4,1.6c1.2,2.1,2.4,4.6,3.6,7.1
				c0.6-3.9,2-6,3.9-7.3l21.9-14.5c1.5-1,3.1-1.3,4.7-1.2c2.7,0.2,5.3,1.9,7,4.7l2.2,3.8c12.9-11.9,18.3-14.4,21.8-15.1
				c1.8-0.4,3.8-0.4,6.2-0.2c8.1,0.7,19.3,4.8,24.4,8.1c3,1.9,4.9,5.5,4.9,9.3c0,2.2-0.1,5.2-0.2,8.6c0.6-3.6,1.3-6.8,2-9.5
				c0.3-1.2,0.9-2.3,1.6-3.3c6.3-8.3,28.5-26.6,40.3-29c3.5-0.7,8.5-0.8,15-0.2c0.7,0.1,18.1,1.6,24.6,5.3c3.2,1.8,5.3,5.6,5.3,9.6
				c0,4.5-0.2,14.6-0.4,25.4c-0.2,12.3-0.4,26.3-0.4,33.3C691,415.6,692.3,429.7,693.2,439.1z M123.5,526.9
				c-0.8-8.1-1.4-23.1-1.4-32.9c0-23.3,1-46.1,3.3-65.3l-4,0.8c-1.3,16.1-2.1,37-2.1,65.1c0,5.9,0,12.7,0.2,18.4
				c-1.8,1.8-4,3.4-6.2,5.2c-0.5-12-0.7-26.2-0.7-36.8c0-16,1.3-39.2,3.3-50.9c-14.4,2.3-38.5,5-51.8,5.4L51.9,468
				c15.1-2.7,34.5-5.6,50.2-7.6l-15.4,10v15.8L72.2,487l-5.8,22.7l20.4-5.9v27.3c-4.7,0.2-10.5,0-16.8-0.5
				c-5.4-0.5-11.2-1.2-17.1-2.3l-10.2,31.3c9.2,0.7,36.5,1.3,49.3-1.3C97.7,557.1,118.3,535.1,123.5,526.9 M644.9,482
				c8.7-1.8,36.4-27,40.5-32.7c0-3.8-3-28.5-3-43.9c0-13,0.8-49.2,0.8-58.7c-2.8-1.6-12.4-3.5-21.2-4.3c-5.1-0.4-9.9-0.5-12.9,0.1
				c-9.4,1.9-29.9,18.3-35.8,26c-2.3,8.8-4.3,25.2-4.3,35.7c0,13.6,1.7,26.4,4,36.2c3.7,2.1,14.6,5,21.3,5.6
				c1.7,0.1,3.1,0.1,4.1-0.1c3.7-0.7,11.4-7,17.9-13.3c1.2,9.1,2.5,17.3,2.5,19.1c-1.2,1.8-5.2,5.8-7.2,6.2
				c-1.7,0.3-5.4,0.2-9.8-0.2c-7.9-0.7-18.3-2.2-24.5-3.4l-9.7,28.7C614.8,482.8,636.4,483.7,644.9,482 M357.1,541.1l-17.5,11.6
				c2.8,5.1,4.6,10.6,4.6,17.3c0,5.7-0.9,27.2-0.9,36.9c0.5,3.7,4.3,14.6,7.2,17.8l18.9-13.6c-1.6-4.3-3.1-9.8-3.1-18.2V563
				c2-2,5.4-4.4,6.7-4.7c0.4-0.1,0.8-0.1,1.2,0c1.7,0.1,3.8,1,5.1,1.8v44.4c0.3,2.6,4.4,10.7,7.6,12.9l17.9-13.4
				c-2.7-6.3-3.5-12-3.5-19.2c0-6,0.5-19.6,0.9-30.6c1.9-1.3,3.9-2.5,4.8-2.7c0.4-0.1,0.9-0.1,1.3-0.1c1.7,0.2,3.8,1,5,1.8v44.5
				c0.5,2.6,4.2,10.6,7.8,12.8L439,597c-2.7-6.3-3.5-12-3.5-19.2c0-8.9,1.3-34.4,1.3-43.5c-3.2-2-10.3-5.3-15.5-5.7
				c-1-0.1-2-0.1-2.9,0.1c-2.8,0.6-10.6,6.7-16.7,12.4c-3.6-2.1-10.9-4.8-16-5.3c-1.2-0.1-2.2-0.1-3.1,0.1
				c-4,0.8-13.2,9.5-19.4,15.8L357.1,541.1 M574.8,460.4l22.4-16.8c-3.3-7.8-4.4-14.9-4.4-24c0-11.1,1.6-43,1.6-54.3
				c-3.8-2.5-13.8-6.2-20.7-6.8c-1.6-0.1-3-0.1-4.1,0.1c-5.2,1.1-17,12-25.2,19.9l-7.9-13.2l-21.9,14.5c3.5,6.4,5.7,13.3,5.7,21.6
				c0,7.1-1.1,34-1.1,46.1c0.7,4.6,5.4,18.3,9,22.3l23.6-17c-2-5.3-3.9-12.3-3.9-22.7v-37.4c2.5-2.5,7.3-5.6,9-6
				c0.5-0.1,1.1-0.1,1.7-0.1c2.2,0.2,4.9,1.2,6.5,2.2v55.6C565.3,447.1,570,457.8,574.8,460.4 M250.9,525.3c1.6,0.1,3.1,0.1,4.4-0.2
				c6.4-1.3,16.9-12.5,22.6-19.4l7.7,13.3l21.9-14.5c-3.2-6.7-5-12.8-5-20.5c0-13,1.3-38.4,1.3-47.9c-0.7-4.6-5.5-17.7-9-21.7
				l-23.6,17c2,5.7,3.7,12.3,3.7,22.4v39.1c-2,2-6.2,4.8-9,5.4c-0.2,0-0.5,0.1-0.8,0c-1.9-0.2-5-1.7-7-4c0.2-11.1,1-35,1-49.2
				c-0.7-4.6-5-17-8.9-21.7l-23.4,17.2c2.2,5.9,3.7,15.9,3.7,25.4c0,6.3-1.6,39.1-1.6,49.6C233.7,520.3,243.6,524.7,250.9,525.3
				 M209.1,515.3c3-8.9,4.8-24.9,4.8-35.4c0-13.6-2-26.7-4.9-36.8c-2.9-1.7-12.6-4.3-21.7-5.1c-4.2-0.4-8.2-0.4-11.3,0.3
				c-10.7,2.2-28.3,18.4-33.8,26c-2.8,8.9-4.7,25.3-4.7,35.7c0,13.6,1.9,26.3,4.7,36.4c2.9,1.7,12.7,4.3,21.8,5
				c4.2,0.4,8.1,0.4,11.2-0.3C186.2,539.1,203.7,522.9,209.1,515.3 M449.1,485.9l9-28.9c-5.9,0.7-15.6,1.3-21,0.8
				c-0.6-0.1-1.1-0.1-1.6-0.2v-45.7l16.4-3.3l8.5-24.7l-24.9,7c0.2-9.1,0.5-19.9,0.8-26.9l-28.9,18.3l1,14l-8.5,1.7l-4.2,21.8
				l12.5-2.5l-1.3,59.8c5.6,4.2,19.1,7.4,30.9,8.4C441.9,486,445.8,486.1,449.1,485.9 M378,429.7l8.3-27.6c-13.9,0-26.3-1-34.6,0.7
				c-10.4,2.1-27.8,17.5-29.8,20.7c-1.2,4.6-2.2,10.1-2.2,17.4c0,8.7,1.3,17.5,2.4,21.3c9.4,1.1,26.3,3.8,34.5,6.5
				c0.2,1.2,0.3,2.3,0.3,4.5c0,2.4-0.2,4.2-0.3,5.6c-1.3,1.3-3.5,3.3-4.9,3.6c-0.4,0.1-1.2,0.1-2.2,0c-5.7-0.5-19.2-3.5-24.4-5.3
				l-8.3,28.2c10.2,0.7,28.1,1.8,36.5,0.1c9.7-2,24.7-15.5,30.4-23.2c1.2-4,2.2-11.7,2.2-19.6c0-7.7-1.2-16.4-1.9-18.8
				c-11.5-1.2-27.9-3.4-35.1-5.7c-0.3-0.9-0.5-2.9-0.5-4.7c0-1.4,0.2-3.4,0.3-4.4c1.2-0.8,3-2.4,4.5-2.7c1.1-0.2,2.9-0.2,5.1,0
				C364.4,426.7,373.4,428.6,378,429.7 M292.4,565.3l10.2-25.9c-12.3,2.5-46.7,5.2-61.3,5l-9.9,25.7c7.1-1.4,16.9-2.6,26.9-3.5
				L244,577.2c-1.6,5.5-3.2,18.4-3.2,29.3c0,9,1.4,20.6,3,25.7c5.4,2.8,13.5,4.5,22.1,5.2c8.2,0.7,16.8,0.6,23.9-0.3l5.6-25.2
				c-8.8,1.3-17.3,2.1-24,2l0.4-48.2C280.2,565.3,287.7,565.2,292.4,565.3 M450.9,536.7c-1.3,5.6-2.5,18.9-2.5,27.2
				c0,9.3,1.1,20.8,2.3,25.3c6.4,3.5,14.5,5.6,23.6,6.4c7.2,0.6,14.9,0.4,23-0.7l7.2-23.1c-8.9,1.5-21.7,2.3-29.2,1.7
				c-1.2-0.1-2.3-0.3-3.3-0.4c-0.4-2.1-0.8-5.7-1.1-9.3l34.9-15.9c-0.7-4.3-2-21-2.3-27.7c-2.4-1.5-9.8-3.6-16.2-4.2
				c-2.6-0.2-5.1-0.2-7.1,0.2C471.9,517.9,456.1,530.4,450.9,536.7 M482.5,479.1l23.4-17.2c-4-7.3-6-14.2-6-21.5
				c0-16.4,2.1-38.8,2.1-47.7c-0.7-4.6-5-14.4-8-18.7l-24.9,15.7c1.8,5.4,2.9,12.5,2.9,23V453C472,462.7,476.7,471.8,482.5,479.1
				 M332.6,618.4c-3.2-5.8-4.8-11.4-4.8-17.2c0-13.1,1.7-31,1.7-38.2c-0.5-3.7-4-11.5-6.4-15l-19.9,12.6c1.5,4.3,2.3,10,2.3,18.4
				v32.3c0,7.7,3.8,15.1,8.4,20.9L332.6,618.4 M469.2,357.8c0,5.7,8.9,13.8,15.9,15c8.7-4.3,18.4-16.2,18.4-20.9
				c0-5.7-8.9-13.8-15.9-14.8C479.1,341.4,469.2,353.1,469.2,357.8 M463.3,449.2v-37.7c0-3-0.1-5.6-0.3-8l-3.1,9
				c-1,2.9-3.2,5-5.9,5.5l-9.9,2v27.6c4.1-0.1,8.7-0.5,12.3-0.9c0.4-0.1,0.8-0.1,1.3-0.1c0.1,0,0.2,0,0.4,0c0.1,0,0.2,0,0.3,0
				C460.2,446.9,462,447.8,463.3,449.2 M302.2,519.4l-12,7.9c-1.5,1-3.1,1.3-4.7,1.2c-2.7-0.2-5.4-1.9-7.1-4.8l-1.6-2.8
				c-6,6.2-13.3,12.4-19.4,13.7h-0.2c13-0.7,28.4-2.1,37.9-3.5C296.3,527,299,522.9,302.2,519.4 M317.9,518.5
				c-6.8,3.4-14.7,12.8-14.7,16.6c0,4.6,7.1,11.1,12.7,12c7-3.5,14.7-12.9,14.7-16.7C330.6,525.8,323.5,519.3,317.9,518.5
				 M296.8,602.8v-24c0-1.4,0-2.7-0.1-4c-1.2,0.7-2.5,1-3.9,1c-3.3-0.1-7.6-0.1-12.5,0.1l-0.2,28.3c4.1-0.3,8.5-0.8,13.3-1.5
				c0.5-0.1,1-0.1,1.6-0.1c0.1,0,0.2,0,0.4,0h0.2C296,602.6,296.4,602.7,296.8,602.8 M508.5,440.7c0,5,1.4,9.9,4.3,15.4
				c-1.1-3.4-1.8-6.3-2-8.1c-0.1-0.5-0.1-1.1-0.1-1.6c0-7,0.4-18.6,0.7-28.8c0.2-7.4,0.5-14.4,0.5-17.3c0-3.1-0.4-6-1.3-8.9
				c0.1,0.6,0.1,1.2,0.1,1.7c0,4.1-0.4,10.5-0.8,17.8C509.2,420.6,508.5,431.6,508.5,440.7 M311.7,457.2c-0.3,9.5-0.7,20.2-0.7,27.1
				c0,2.2,0.2,4.3,0.6,6.3l5.3-17.9c0.3-1,0.7-1.8,1.2-2.6c-2-1.4-3.5-3.6-4.2-6.2c-0.7-2.7-1.5-6.8-2-11.4
				C311.9,454.1,311.8,455.7,311.7,457.2"/>
		</g>
		<g>
			<path class="st3" d="M483.4,536.9c0.3,1.8,0.7,5.4,0.7,9c-3.6,2.5-8.8,5.6-13.5,8c0-5.2,0.1-11.3,0.4-14.6c0.9-1,3.7-3.4,5.1-3.7
				c0.3-0.1,0.8-0.1,1.4,0C479.5,535.7,482.6,536.5,483.4,536.9z"/>
		</g>
	</g>
	<g>
		<g>
			<path class="st15" d="M573.9,358.5c6.9,0.6,16.8,4.3,20.7,6.8c0,11.3-1.6,43.2-1.6,54.3c0,9.1,1,16.2,4.4,24L575,460.4
				c-4.9-2.6-9.5-13.3-9.5-16.1v-55.6c-1.6-0.9-4.3-2-6.5-2.2c-0.6-0.1-1.2,0-1.7,0.1c-1.7,0.3-6.5,3.5-9,6V430
				c0,10.5,1.9,17.4,3.9,22.7l-23.6,17c-3.7-4-8.4-17.7-9-22.3c0-12.1,1.1-39,1.1-46.1c0-8.3-2.2-15.2-5.7-21.6l21.9-14.5l7.9,13.2
				c8.2-8,20.1-18.9,25.2-19.9C570.9,358.4,572.3,358.4,573.9,358.5z"/>
		</g>
		<g>
			<path class="st15" d="M436.3,364.1c-0.3,7-0.7,17.7-0.8,26.9l24.9-7l-8.5,24.7l-16.4,3.3v45.7c0.5,0.1,1,0.1,1.6,0.2
				c5.4,0.5,15.1-0.2,21-0.8l-9,28.9c-3.3,0.2-7.2,0.1-11.3-0.2c-11.8-1-25.3-4.3-30.9-8.4l1.3-59.8l-12.5,2.5l4.2-21.8l8.5-1.7
				l-1-14L436.3,364.1z"/>
		</g>
		<g>
			<path class="st15" d="M386.3,402.1l-8.3,27.6c-4.6-1.1-13.5-3-19.7-3.5c-2.2-0.2-4-0.2-5.1,0c-1.5,0.3-3.3,1.9-4.5,2.7
				c-0.2,1-0.3,3-0.3,4.4c0,1.8,0.2,3.7,0.5,4.7c7.2,2.3,23.6,4.5,35.1,5.7c0.7,2.4,1.8,11.1,1.9,18.8c0,7.9-1,15.6-2.2,19.6
				c-5.7,7.7-20.7,21.2-30.4,23.2c-8.4,1.7-26.3,0.6-36.5-0.1l8.3-28.2c5.3,1.8,18.8,4.8,24.4,5.3c1,0.1,1.7,0.1,2.2,0
				c1.3-0.3,3.5-2.3,4.9-3.6c0.2-1.4,0.3-3.2,0.3-5.6c0-2.2-0.2-3.3-0.3-4.5c-8.2-2.7-25.1-5.4-34.5-6.5c-1-3.8-2.4-12.6-2.4-21.3
				c0-7.3,1-12.9,2.2-17.4c2-3.2,19.4-18.6,29.8-20.7C360.1,401.1,372.4,402.1,386.3,402.1z"/>
		</g>
		<g>
			<path class="st15" d="M323,548c2.4,3.5,5.9,11.3,6.4,15c0,7.1-1.7,25-1.7,38.2c0,5.9,1.6,11.4,4.8,17.2l-18.7,13.8
				c-4.7-5.9-8.4-13.2-8.4-20.9V579c0-8.4-0.8-14.1-2.3-18.4L323,548z"/>
		</g>
		<g>
			<path class="st15" d="M271.8,565.7l-0.4,48.2c6.7,0.1,15.1-0.7,24-2l-5.6,25.2c-7.1,0.9-15.7,1-23.9,0.3
				c-8.6-0.8-16.7-2.5-22.1-5.2c-1.6-5.1-3-16.6-3-25.7c0-10.9,1.6-23.7,3.2-29.3l14.3-10.7c-10,0.9-19.8,2.1-26.9,3.5l9.9-25.7
				c14.6,0.2,49-2.5,61.3-5l-10.2,25.9C287.7,565.2,280.2,565.3,271.8,565.7z M267.6,613.8c0.5,0,1.1,0.1,1.7,0.1l-0.3-48l-4,0.3
				c-1.1,9.4-1.6,20.4-1.6,27.5c0,8.6,0.5,16.3,1.2,19.7C265.5,613.5,266.5,613.7,267.6,613.8"/>
		</g>
		<g>
			<path class="st15" d="M682.4,405.4c0,15.4,3,40.1,3,43.9c-4,5.8-31.8,31-40.5,32.7c-8.5,1.7-30.1,0.8-37.3,1l9.7-28.7
				c6.2,1.1,16.6,2.7,24.5,3.4c4.4,0.4,8,0.5,9.8,0.2c2-0.4,6-4.4,7.2-6.2c0-1.8-1.3-10-2.5-19.1c-6.5,6.3-14.2,12.6-17.9,13.3
				c-1,0.2-2.4,0.2-4.1,0c-6.7-0.6-17.6-3.5-21.3-5.6c-2.3-9.8-4-22.5-4-36.2c0-10.5,2-26.9,4.3-35.7c5.8-7.7,26.4-24.1,35.8-26
				c3-0.6,7.8-0.5,12.9-0.1c8.8,0.8,18.5,2.7,21.2,4.3C683.2,356.2,682.4,392.4,682.4,405.4z M655.1,416.7V369
				c-1.1-0.9-4.6-2.1-6.9-2.3c-0.6,0-1,0-1.4,0c-1.7,0.3-6.9,3.4-8.4,4.7c-1.2,7.2-1.3,18.7-1.3,26.2c0,6.5,0.3,15,1.7,21.2
				c1,0.8,4.8,2.2,6.9,2.4c0.4,0,0.7,0,0.9,0C647.8,420.9,651.9,418.7,655.1,416.7"/>
		</g>
		<g>
			<path class="st15" d="M487.6,337.1c7,0.9,15.9,9,15.9,14.8c0,4.7-9.7,16.6-18.4,20.9c-7-1.1-15.9-9.2-15.9-15
				C469.2,353.1,479.1,341.4,487.6,337.1z"/>
		</g>
		<g>
			<path class="st15" d="M501.2,410.3c-0.6,9.6-1.3,20.8-1.3,30.1c0,7.3,2,14.2,6,21.5l-23.4,17.2c-5.9-7.3-10.5-16.4-10.6-26.1
				v-40.3c0-10.5-1-17.6-2.9-23l25-15.7c3,4.3,7.4,14.1,8,18.7C502,396.6,501.6,403,501.2,410.3"/>
		</g>
		<g>
			<path class="st15" d="M421.4,528.6c5.2,0.5,12.2,3.7,15.5,5.7c0,9-1.3,34.6-1.3,43.5c0,7.3,0.8,13,3.5,19.2l-17.9,13.4
				c-3.6-2.3-7.2-10.2-7.8-12.8v-44.5c-1.2-0.8-3.2-1.6-5-1.8c-0.5,0-0.9,0-1.3,0.1c-0.9,0.2-2.9,1.4-4.8,2.7
				c-0.4,11-0.9,24.6-0.9,30.6c0,7.3,0.8,13,3.5,19.2L387,617.3c-3.2-2.2-7.4-10.2-7.6-12.9V560c-1.3-0.7-3.4-1.6-5.1-1.8
				c-0.4,0-0.8,0-1.2,0c-1.3,0.3-4.7,2.7-6.7,4.7v29.9c0,8.4,1.5,13.9,3.1,18.2l-18.9,13.6c-3-3.2-6.7-14.1-7.2-17.8
				c0-9.7,0.9-31.2,0.9-36.9c0-6.6-1.8-12.1-4.6-17.3l17.5-11.6l6.3,10.6c6.2-6.3,15.4-15,19.4-15.8c0.8-0.2,1.9-0.2,3.1-0.1
				c5.1,0.4,12.4,3.2,16,5.3c6.2-5.7,13.9-11.8,16.7-12.4C419.4,528.5,420.4,528.5,421.4,528.6z"/>
		</g>
		<g>
			<path class="st15" d="M317.9,518.5c5.6,0.8,12.7,7.2,12.7,11.8c0,3.8-7.7,13.3-14.7,16.7c-5.6-0.9-12.7-7.4-12.7-12
				C303.2,531.3,311.1,522,317.9,518.5z"/>
		</g>
		<g>
			<path class="st15" d="M294.7,414.3c3.5,4,8.4,17.1,9,21.7c0,9.5-1.3,34.9-1.3,47.9c0,7.7,1.8,13.9,5,20.5L285.5,519l-7.7-13.3
				c-5.7,6.9-16.2,18.1-22.6,19.4c-1.3,0.3-2.8,0.3-4.4,0.2c-7.3-0.6-17.2-5-22.2-9.8c0-10.5,1.6-43.2,1.6-49.6
				c0-9.5-1.5-19.5-3.7-25.4l23.4-17.2c3.9,4.8,8.2,17.1,8.9,21.7c0,14.2-0.8,38.1-1,49.2c2,2.3,5.1,3.8,7,4c0.3,0,0.6,0,0.8,0
				c2.8-0.6,7-3.4,9-5.4v-39.1c0-10.1-1.7-16.7-3.7-22.4L294.7,414.3z"/>
		</g>
		<g>
			<path class="st15" d="M209,443.2c2.8,10.1,4.9,23.1,4.9,36.8c0,10.5-1.8,26.5-4.8,35.4c-5.4,7.6-22.9,23.8-33.8,26
				c-3.1,0.6-7,0.6-11.2,0.3c-9-0.8-18.9-3.3-21.8-5c-2.8-10.1-4.7-22.8-4.7-36.4c0-10.5,1.8-26.9,4.7-35.8
				c5.5-7.6,23.1-23.9,33.8-26c3.1-0.6,7.1-0.6,11.3-0.3C196.4,438.9,206.2,441.4,209,443.2z M184.2,514.4c1-6.9,1.5-15.9,1.5-24.2
				c0-12.3-0.9-20.2-2.5-27c-0.9-0.7-4.3-1.9-7.1-2.1c-0.8-0.1-1.5-0.1-2.1,0.1c-1.8,0.4-5.2,2.8-6.5,4.1c-1,6.9-1.5,15.9-1.5,24.2
				c0,12.3,0.9,20.2,2.5,27c0.8,0.8,4.3,1.9,7,2.2c0.8,0.1,1.4,0.1,2-0.1C179.3,518.2,182.7,515.7,184.2,514.4"/>
		</g>
		<g>
			<path class="st15" d="M471.9,573.1c0.9,0.2,2,0.3,3.3,0.4c7.6,0.7,20.4-0.1,29.2-1.7l-7.2,23.1c-8,1.1-15.8,1.3-23,0.7
				c-9.1-0.8-17.2-2.9-23.6-6.4c-1.2-4.5-2.3-16-2.3-25.3c0-8.4,1.2-21.6,2.5-27.2c5.2-6.3,21-18.8,29.3-20.5
				c1.9-0.4,4.4-0.4,7.1-0.2c6.5,0.6,13.9,2.6,16.2,4.2c0.3,6.7,1.6,23.4,2.3,27.7l-34.9,15.9C471.1,567.4,471.6,571,471.9,573.1z
				 M471,539.3c-0.3,3.4-0.4,9.4-0.4,14.6c4.7-2.4,9.9-5.5,13.5-8c0-3.6-0.4-7.2-0.7-9c-0.8-0.4-3.9-1.2-5.9-1.4
				c-0.6-0.1-1.1-0.1-1.4,0C474.7,535.8,471.9,538.3,471,539.3"/>
		</g>
	</g>
	<path class="st3" d="M269,565.8l-4,0.3c0,0-3.3,26.3-0.4,47.2c0,0,2.5,0.4,4.7,0.5L269,565.8z"/>
</g>
</svg>
