<?xml version="1.0" encoding="utf-8"?>
<!-- Generator: Adobe Illustrator 22.0.1, SVG Export Plug-In . SVG Version: 6.00 Build 0)  -->
<svg version="1.1" id="Layer_1" xmlns="http://www.w3.org/2000/svg" xmlns:xlink="http://www.w3.org/1999/xlink" x="0px" y="0px"
	 viewBox="0 0 1400 1903.7" style="enable-background:new 0 0 1400 1903.7;" xml:space="preserve">
<g>
	<path d="M1044.6,640.3c-6.3,3.5-8.6,11.4-5.1,17.7c24.1,43.6,36.9,89.6,36.9,133.1c0,15.2-1.3,30.5-3.7,45.4
		c-1.2,7.1,3.6,13.8,10.7,15c0.7,0.1,1.4,0.2,2.2,0.2c6.2,0,11.7-4.5,12.8-10.9c2.7-16.3,4.1-33,4.1-49.6
		c0-47.8-13.9-98.2-40.1-145.6C1058.7,639.1,1050.8,636.8,1044.6,640.3z"/>
	<path d="M1121.6,591.5c-6.2,3.6-8.3,11.5-4.7,17.8c35,60.5,52.9,127.9,49.3,185c-0.3,5-0.6,9.8-0.9,14.6c-2.1,35.4-4,66-14.4,97.5
		c-2.3,6.8,1.4,14.2,8.2,16.4c1.4,0.5,2.7,0.7,4.1,0.7c5.5,0,10.5-3.5,12.3-8.9c11.5-34.7,13.5-68.4,15.7-104.1
		c0.3-4.8,0.6-9.6,0.9-14.5c4-62.1-15.2-134.9-52.7-199.7C1135.8,590,1127.8,587.9,1121.6,591.5z"/>
	<path d="M700,0C313.4,0,0,358.2,0,800s313.4,800,700,800s700-358.2,700-800S1086.6,0,700,0z M113.9,1182.3h397.1v67.7H151.6
		c-3.3-5.3-6.5-10.6-9.7-16C132,1217.3,122.6,1200,113.9,1182.3z M1069.7,1369.2v78c-21.6,16.3-44,31.2-67.1,44.5v-122.5H1069.7z
		 M220,1343.2c-18.2-21.2-35.4-43.7-51.4-67.2h355.5h186.2h186.2h173.2v67.2H220z M418,1369.2v133.9c-22.4-11.9-44.4-25.2-65.6-39.9
		v-94H418z M444,1369.2h67.1v174c-22.7-7.6-45.1-16.6-67.1-27V1369.2z M537.1,1369.2h67.1v197c-22.6-3.7-45-8.7-67.1-15V1369.2z
		 M630.2,1369.2h67.1V1574c-22.6-0.1-44.9-1.5-67.1-4.1V1369.2z M723.3,1369.2h69.1v197.6c-22.8,3.6-45.9,5.8-69.1,6.7V1369.2z
		 M818.4,1369.2h65.1V1545c-21.4,7-43.2,12.7-65.1,17.2V1369.2z M907.2,1250l-20-102.3L1040,1250H907.2z M880.7,1250h-62.3v-148.3
		l38.3,25.7L880.7,1250z M812.7,1066.6C812.7,1066.6,812.7,1066.6,812.7,1066.6L812.7,1066.6c-0.4-0.2-0.7-0.4-1-0.6
		c-0.1-0.1-0.2-0.1-0.4-0.2c-0.2-0.1-0.4-0.2-0.6-0.3c-0.1-0.1-0.3-0.1-0.4-0.2c-0.2-0.1-0.5-0.2-0.7-0.3c-0.1,0-0.2-0.1-0.4-0.1
		c-0.3-0.1-0.7-0.2-1.1-0.3c-0.1,0-0.2,0-0.4-0.1c-0.3-0.1-0.5-0.1-0.8-0.1c-0.1,0-0.2,0-0.4,0c-0.4,0-0.8-0.1-1.2-0.1c0,0,0,0,0,0
		c0,0-0.1,0-0.1,0c-0.4,0-0.7,0-1.1,0.1c-0.1,0-0.2,0-0.4,0c-0.3,0-0.6,0.1-0.8,0.1c-0.1,0-0.2,0-0.3,0.1c-0.3,0.1-0.7,0.2-1,0.3
		c-0.1,0-0.3,0.1-0.4,0.1c-0.2,0.1-0.4,0.2-0.7,0.2c-0.1,0.1-0.3,0.1-0.4,0.2c-0.2,0.1-0.4,0.2-0.6,0.3c-0.1,0.1-0.2,0.1-0.4,0.2
		c-0.3,0.2-0.6,0.3-0.9,0.5l-0.1,0.1c0,0,0,0,0,0l-39.8,26.3l46.8-229.1l44.5,227.6L812.7,1066.6z M792.4,1101.5V1250h-66.2
		l24.8-121.2L792.4,1101.5z M699.7,1250H567.4l152.9-100.9L699.7,1250z M243.4,1369.2h83v75c-0.6-0.5-1.3-1-1.9-1.4
		C296,1420.7,268.8,1396.1,243.4,1369.2z M909.5,1535.9v-166.6h67.1V1506c-5.1,2.7-10.3,5.2-15.5,7.8
		C944.2,1521.9,926.9,1529.3,909.5,1535.9z M1095.7,1426.5v-57.3h57.2h3.7C1137.3,1389.6,1117,1408.8,1095.7,1426.5z M1258.1,1234.1
		c-23,38.9-49.2,75.6-78,109.2h-27.1h-57.2V1263c0,0,0-0.1,0-0.1c0-0.4,0-0.7-0.1-1.1c0-0.1,0-0.1,0-0.2c0-0.4-0.1-0.8-0.2-1.1
		c0-0.2-0.1-0.3-0.1-0.5c-0.1-0.2-0.1-0.4-0.2-0.7c-0.1-0.2-0.1-0.3-0.2-0.5c-0.1-0.2-0.1-0.4-0.2-0.6c-0.1-0.2-0.1-0.3-0.2-0.5
		c-0.1-0.2-0.2-0.5-0.3-0.7c-0.1-0.1-0.1-0.2-0.2-0.3c-0.2-0.3-0.4-0.6-0.6-1c-0.1-0.1-0.1-0.2-0.2-0.3c-0.2-0.2-0.3-0.4-0.5-0.7
		c-0.1-0.1-0.2-0.2-0.3-0.3c-0.2-0.2-0.4-0.4-0.5-0.6c-0.1-0.1-0.2-0.2-0.3-0.3c-0.2-0.2-0.4-0.4-0.6-0.5c-0.1-0.1-0.2-0.2-0.3-0.2
		c-0.2-0.2-0.5-0.4-0.7-0.5c-0.1-0.1-0.1-0.1-0.2-0.2c0,0,0,0,0,0l-209.8-140.5l-57.4-293.3l220.4,117.8l-43.3,129.8
		c-0.4,1.3-0.7,2.7-0.7,4.1c0,33,26.7,59.8,59.6,59.8s59.6-26.8,59.6-59.8c0-1.4-0.2-2.8-0.7-4.1l-46-138c-0.6-4-2.9-7.6-6.7-9.6
		L404.4,565.3c-0.1,0-0.2-0.1-0.3-0.1c-0.2-0.1-0.5-0.2-0.7-0.3c-0.2-0.1-0.3-0.1-0.5-0.2c-0.2-0.1-0.4-0.1-0.6-0.2
		c-0.2-0.1-0.4-0.1-0.6-0.2c-0.2,0-0.4-0.1-0.5-0.1c-0.2,0-0.4-0.1-0.6-0.1c-0.2,0-0.4-0.1-0.5-0.1c-0.2,0-0.4-0.1-0.6-0.1
		c-0.4,0-0.7,0-1.1,0c-0.1,0-0.3,0-0.4,0c-0.3,0-0.5,0-0.8,0c-0.1,0-0.3,0-0.4,0.1c-0.3,0-0.5,0.1-0.8,0.1c-0.1,0-0.3,0.1-0.4,0.1
		c-0.2,0.1-0.5,0.1-0.7,0.2c-0.2,0-0.3,0.1-0.4,0.1c-0.2,0.1-0.5,0.2-0.7,0.2c-0.2,0.1-0.3,0.1-0.5,0.2c-0.1,0-0.2,0.1-0.3,0.1
		L169.5,668.2c-8,2.1-15.4,5.6-22,10.5c-29.2,21.3-35.6,62.4-14.3,91.6c10.3,14.1,25.5,23.4,42.8,26.1c3.4,0.5,6.9,0.8,10.3,0.8
		c13.8,0,27.1-4.3,38.5-12.6c6.7-4.9,12.3-10.8,16.7-17.8L401,593l390.3,208.6l-63.6,311.4L536.9,1239v-69.7c0-7.2-5.8-13-13-13
		H101.6c-8-17.7-15.4-35.7-22.2-53.9C44,1006.6,26,904.9,26,800s18-206.6,53.4-302.4c17-45.9,38-90.3,62.5-131.7
		c24.2-41,52-79.5,82.7-114.5c30.6-34.9,64.2-66.6,99.9-94.2c36-27.8,74.5-51.7,114.3-70.9C521.6,46.3,609.5,26,700,26
		c90.5,0,178.4,20.3,261.2,60.3c39.9,19.3,78.3,43.1,114.3,70.9c35.7,27.6,69.4,59.3,99.9,94.2c30.6,35,58.4,73.5,82.7,114.5
		c24.5,41.4,45.5,85.7,62.5,131.7C1356,593.4,1374,695.1,1374,800s-18,206.6-53.4,302.4C1303.6,1148.3,1282.6,1192.6,1258.1,1234.1z
		 M1058.8,971.7l33.5,100.4c-1,17.7-15.6,31.8-33.5,31.8s-32.5-14.1-33.5-31.8L1058.8,971.7z M344.7,615.9L221.4,750.1
		c-0.6,0.6-1.1,1.3-1.5,2.1c-2.7,4.5-6.2,8.3-10.5,11.4c-8.5,6.2-19,8.7-29.4,7.1c-10.4-1.6-19.6-7.2-25.8-15.8
		c-12.8-17.6-9-42.4,8.6-55.3c4.2-3.1,9-5.3,14.1-6.5c0.8-0.2,1.6-0.5,2.4-0.8L344.7,615.9z"/>
	<polygon points="112.6,1809.4 141,1809.4 141,1901.5 172.7,1901.5 172.7,1809.4 201.9,1809.4 201.9,1780.9 112.6,1780.9 	"/>
	<path d="M331.1,1819.6c0-23.6-14.9-38.7-40.1-38.7h-44.1v120.6h31.7v-38.7h7.7l16.6,38.7h36.5l-22.7-48.4
		C323.7,1844.3,331.1,1832.8,331.1,1819.6z M294.7,1835.1h-16.2v-25.7h11.3c6.5,0,9.2,5,9.2,10.8
		C299.1,1824.9,297.8,1830.4,294.7,1835.1z"/>
	<polygon points="414.8,1853.8 454,1853.8 454,1825.9 414.8,1825.9 414.8,1809.4 460.7,1809.4 460.7,1780.9 383.1,1780.9 
		383.1,1901.5 461.1,1901.5 461.1,1873.1 414.8,1873.1 	"/>
	<path d="M582.6,1835.7c4.7-6.7,8.6-13.5,8.6-24.5c0-21.6-14.9-30.2-36.4-30.2h-44.6v120.6h40.5c23.8,0,45.9-10.6,45.9-39.6
		C596.6,1851.5,592.1,1841.4,582.6,1835.7z M541.9,1809.4h10.3c4.5,0,7.4,3.2,7.4,7.7c0,2.3-1.3,7.4-3.2,10.3h-14.4V1809.4z
		 M552.1,1873.1h-10.3v-19.4h12.4c6.3,0,9.9,3.4,9.9,9C564.2,1869.7,560.4,1873.1,552.1,1873.1z"/>
	<path d="M703.5,1857.3c0,12.2-6.8,17.8-14.6,17.8s-14.8-5.6-14.8-17.8v-76.3h-31.7v77.2c0,28.3,19.3,45.5,46.4,45.5
		c27,0,46.3-17.3,46.3-45.5v-77.2h-31.7V1857.3z"/>
	<path d="M836.7,1875.1c-12.8,0-22-7.9-22-34.9c0-23.6,9.2-32.8,22.1-32.8c1.6,0,5.9,0,7.9,0.2l-0.4,23.6h27.4l1.6-47.7
		c-11.5-2.9-22.3-4.3-32.6-4.3c-34.4,0-58.5,20-58.5,61c0,36.7,13.9,63.5,52.4,63.5c11.5,0,28.4-2.9,41.9-8.8l-6.5-28.1
		C856.1,1873.3,843.5,1875.1,836.7,1875.1z"/>
	<polygon points="994.4,1825.9 955.9,1825.9 955.9,1780.9 924.2,1780.9 924.2,1901.5 955.9,1901.5 955.9,1854.4 994.4,1854.4 
		994.4,1901.5 1026.1,1901.5 1026.1,1780.9 994.4,1780.9 	"/>
	<polygon points="1111.4,1853.8 1150.6,1853.8 1150.6,1825.9 1111.4,1825.9 1111.4,1809.4 1157.3,1809.4 1157.3,1780.9 
		1079.7,1780.9 1079.7,1901.5 1157.6,1901.5 1157.6,1873.1 1111.4,1873.1 	"/>
	<polygon points="1198.1,1809.4 1226.6,1809.4 1226.6,1901.5 1258.3,1901.5 1258.3,1809.4 1287.4,1809.4 1287.4,1780.9 
		1198.1,1780.9 	"/>
</g>
</svg>
