<?xml version="1.0" encoding="utf-8"?>
<!-- Generator: Adobe Illustrator 22.0.1, SVG Export Plug-In . SVG Version: 6.00 Build 0)  -->
<svg version="1.1" id="Calque_1" xmlns="http://www.w3.org/2000/svg" xmlns:xlink="http://www.w3.org/1999/xlink" x="0px" y="0px"
	 viewBox="0 0 636.6 636.6" style="enable-background:new 0 0 636.6 636.6;" xml:space="preserve">
<style type="text/css">
	.st0{fill:#214697;}
	.st1{fill:#FDF288;}
</style>
<g>
	<path class="st0" d="M566.5,69.8C522.7,26,429.8-0.2,318.1-0.2C206.3-0.2,113.5,26,69.7,69.8C25.9,113.5-0.2,206.4-0.2,318.1
		s26.1,204.6,69.9,248.4c43.8,43.8,136.6,69.9,248.4,69.9c0,0,0,0,0,0c111.7,0,204.6-26.1,248.4-69.9
		c43.8-43.8,69.9-136.6,69.9-248.4S610.2,113.5,566.5,69.8z"/>
</g>
<path class="st1" d="M511.9,177.3c0,0-30.3,17-52.6,20.6c-14.5-15.8-35.3-25.7-58.4-25.7c-43.9,0-79.5,35.6-79.5,79.5
	c0,6,0.7,11.7,1.9,17.3c-67.5-1.4-136.3-44.7-162.8-83c-23.9,43.4-4.6,85.9,24.7,106.5c-13.9,0.6-28.1-4.4-35.5-10.8
	c-4.7,35.5,27.3,75,61.7,78.6c-10.1,5.4-25.6,3.4-34.4,2.1c8.3,37.2,50.1,57.6,73.6,54.5c-29.5,27.4-79.8,38.8-116.9,32.8
	c44.9,33.1,136.7,55.3,225.1,11.7c86.5-42.7,121.5-132,121.5-209.8c0-0.5,0-0.9,0-1.4c14.1-9.7,33.3-29.3,39.1-42.5
	c-9.1,6.4-23.6,12.5-42.4,12.5C489.8,215.4,505.1,196.6,511.9,177.3z"/>
</svg>
